<svg width="1440" height="784" viewBox="0 0 1440 784" fill="none" xmlns="http://www.w3.org/2000/svg">
<g opacity="0.2">
<path d="M1385.79 160.111L1198.96 139.149M1385.79 160.111L1449.98 233.728L1418.47 270.191M1385.79 160.111L1418.47 270.191M1385.79 160.111L1386.95 306.655M1385.79 160.111L1345.86 365.943M1385.79 160.111L1329.07 270.979M1385.79 160.111L1321.15 189.085M1198.96 139.149L1163.22 309.727M1198.96 139.149L1321.15 189.085M1198.96 139.149L1251.67 256.76M1198.96 139.149L1202.81 302.095M1163.22 309.727L1088.71 328.034M1163.22 309.727L1202.81 302.095M1163.22 309.727L1152.51 405.129M1163.22 309.727L1170.69 444.904M1088.71 328.034L1039.03 421.075M1088.71 328.034L1069.61 426.519M1088.71 328.034L1152.51 405.129M1088.71 328.034L1109.09 473.715M1039.03 421.075L1069.61 426.519M1039.03 421.075L1049.54 556.089M1039.03 421.075L983.351 540.612M1039.03 421.075L993.94 446.233M927.921 483.073L850.102 450.191M927.921 483.073L993.94 446.233M927.921 483.073L983.351 540.612M927.921 483.073L965.257 576.317M927.921 483.073L920.339 550.649M927.921 483.073L867.323 507.468M850.102 450.191L745.229 416.286M850.102 450.191L867.323 507.468M850.102 450.191L799.185 509.383M850.102 450.191L763.208 435.41M745.229 416.286L653.284 374.776M745.229 416.286L763.208 435.41M745.229 416.286L729.524 488.989M745.229 416.286L657.649 467.34M653.284 374.776L537.26 440.247M653.284 374.776L729.524 488.989M653.284 374.776L657.649 467.34M653.284 374.776L606.171 489.739M653.284 374.776L539.781 458.14M537.26 440.247L480.887 386.627M537.26 440.247L439.544 477.082M537.26 440.247L539.781 458.14M537.26 440.247L475.843 507.821M480.887 386.627L393.484 434.682M480.887 386.627L439.544 477.082M393.484 434.682L311.847 512.062M393.484 434.682L439.544 477.082M393.484 434.682L371.505 540.893M393.484 434.682L457.678 557.606M393.484 434.682L314.303 436.363M393.484 434.682L284.027 401.269M393.484 434.682L306.155 338.579M237.188 262.682L306.155 338.579M237.188 262.682L215.055 356.801M237.188 262.682L169.882 388.462M237.188 262.682L169.8 294.869M86.2052 334.797L13.2777 271.773M86.2052 334.797L20.5183 391.096M86.2052 334.797L52.7221 458.334M86.2052 334.797L122.387 477.22M86.2052 334.797L169.882 388.462M86.2052 334.797L169.8 294.869M13.2777 271.773L-36.8185 440.237M13.2777 271.773L20.5183 391.096M-36.8185 440.237L20.3349 486.901M-36.8185 440.237L52.7221 458.334M-36.8185 440.237L20.5183 391.096M266.856 554.308L311.847 512.062M266.856 554.308L179.5 507.778M266.856 554.308L195.143 440.1M266.856 554.308L306.594 621.659M311.847 512.062L371.505 540.893M311.847 512.062L306.594 621.659M311.847 512.062L195.143 440.1M311.847 512.062L314.303 436.363M439.544 477.082L475.843 507.821M475.843 507.821L549.211 571.398M475.843 507.821L539.781 458.14M475.843 507.821L457.678 557.606M549.211 571.398L502.56 668.803M549.211 571.398L662.515 570.526M549.211 571.398L606.171 489.739M549.211 571.398L539.781 458.14M549.211 571.398L513.508 602.611M502.56 668.803L448.942 671.341M502.56 668.803L513.508 602.611M502.56 668.803L481.225 636.976M448.942 671.341L457.678 557.606M448.942 671.341L481.225 636.976M448.942 671.341L371.505 540.893M448.942 671.341L361.129 604.634M662.515 570.526L729.524 488.989M662.515 570.526L657.649 467.34M662.515 570.526L606.171 489.739M729.524 488.989L803.77 558.199M729.524 488.989L763.208 435.41M729.524 488.989L657.649 467.34M803.77 558.199L867.323 507.468M803.77 558.199L799.185 509.383M867.323 507.468L920.339 550.649M920.339 550.649L965.257 576.317M965.257 576.317L1049.54 556.089M965.257 576.317L983.351 540.612M1049.54 556.089L1130.38 602.391M1049.54 556.089L1109.09 473.715M1049.54 556.089L1119.69 531.759M1049.54 556.089L1069.61 426.519M1049.54 556.089L983.351 540.612M1130.38 602.391L1171.42 541.587M1130.38 602.391L1119.69 531.759M1130.38 602.391L1141.08 506.99M1171.42 541.587L1303.44 584.577M1171.42 541.587L1203.01 425.889M1171.42 541.587L1170.69 444.904M1171.42 541.587L1251.13 503.74M1303.44 584.577L1360.42 543.171M1303.44 584.577L1328.47 455.563M1303.44 584.577L1251.13 503.74M1303.44 584.577L1285.48 498.034M1360.42 543.171L1430.56 474.061M1360.42 543.171L1390.14 421.728M1360.42 543.171L1328.47 455.563M1360.42 543.171L1413.35 560.179L1430.56 474.061M1430.56 474.061L1390.14 421.728M1390.14 421.728L1445.45 341.393L1386.95 306.655M1390.14 421.728L1386.95 306.655M1390.14 421.728L1328.47 455.563M1390.14 421.728L1345.86 365.943M1386.95 306.655L1418.47 270.191M1386.95 306.655L1345.86 365.943M1328.47 455.563L1345.86 365.943M1328.47 455.563L1285.48 498.034M1328.47 455.563L1267.97 353.681M1345.86 365.943L1251.67 256.76M1345.86 365.943L1267.97 353.681M1345.86 365.943L1329.07 270.979M1251.67 256.76L1329.07 270.979M1251.67 256.76L1321.15 189.085M1251.67 256.76L1202.81 302.095M1251.67 256.76L1203.01 425.889M1251.67 256.76L1267.97 353.681M1202.81 302.095L1203.01 425.889M1069.61 426.519L1109.09 473.715M1109.09 473.715L1152.51 405.129M1109.09 473.715L1141.08 506.99M1109.09 473.715L1119.69 531.759M1152.51 405.129L1141.08 506.99M1141.08 506.99L1119.69 531.759M1141.08 506.99L1170.69 444.904M1170.69 444.904L1203.01 425.889M1203.01 425.889L1251.13 503.74M1203.01 425.889L1267.97 353.681M1267.97 353.681L1251.13 503.74M1267.97 353.681L1285.48 498.034M1251.13 503.74L1285.48 498.034M983.351 540.612L993.94 446.233M799.185 509.383L763.208 435.41M657.649 467.34L606.171 489.739M606.171 489.739L539.781 458.14M457.678 557.606L513.508 602.611M457.678 557.606L481.225 636.976M457.678 557.606L371.505 540.893M513.508 602.611L481.225 636.976M371.505 540.893L361.129 604.634M371.505 540.893L306.594 621.659M361.129 604.634L306.594 621.659M179.5 507.778L195.143 440.1M179.5 507.778L111.326 569.814M195.143 440.1L284.027 401.269M195.143 440.1L314.303 436.363M195.143 440.1L215.055 356.801M195.143 440.1L169.882 388.462M195.143 440.1L122.387 477.22M284.027 401.269L314.303 436.363M284.027 401.269L306.155 338.579M284.027 401.269L215.055 356.801M306.155 338.579L215.055 356.801M122.387 477.22L111.326 569.814M122.387 477.22L90.4491 536.906M122.387 477.22L52.7221 458.334M122.387 477.22L169.882 388.462M111.326 569.814L90.4491 536.906M90.4491 536.906L52.7221 458.334M90.4491 536.906L20.3349 486.901M20.3349 486.901L52.7221 458.334M52.7221 458.334L20.5183 391.096M169.882 388.462L169.8 294.869" stroke="#6E99B0" stroke-width="2"/>
<circle cx="1198.24" cy="141.081" r="6" transform="rotate(6.40179 1198.24 141.081)" fill="#4A809C"/>
<circle cx="1386.28" cy="160.167" r="6" transform="rotate(6.40179 1386.28 160.167)" fill="#EE7380"/>
<circle cx="1386.02" cy="306.047" r="6" transform="rotate(6.40179 1386.02 306.047)" fill="#FFB5BD"/>
<circle cx="1390.2" cy="421.232" r="6" transform="rotate(6.40179 1390.2 421.232)" fill="#EE7380"/>
<circle cx="1345.31" cy="363.869" r="6" transform="rotate(6.40179 1345.31 363.869)" fill="#4A809C"/>
<circle cx="1328.63" cy="270.426" r="6" transform="rotate(6.40179 1328.63 270.426)" fill="#4A809C"/>
<circle cx="1251.79" cy="255.767" r="6" transform="rotate(6.40179 1251.79 255.767)" fill="#FFB5BD"/>
<circle cx="1202.26" cy="302.536" r="6" transform="rotate(6.40179 1202.26 302.536)" fill="#FFB5BD"/>
<circle cx="1163.16" cy="310.224" r="6" transform="rotate(6.40179 1163.16 310.224)" fill="#FFB5BD"/>
<circle cx="1088.6" cy="329.028" r="6" transform="rotate(6.40179 1088.6 329.028)" fill="#EE7380"/>
<circle cx="1152.46" cy="405.626" r="6" transform="rotate(6.40179 1152.46 405.626)" fill="#FFB5BD"/>
<circle cx="1169.97" cy="446.836" r="6" transform="rotate(6.40179 1169.97 446.836)" fill="#FFB5BD"/>
<circle cx="1203.34" cy="427.436" r="6" transform="rotate(6.40179 1203.34 427.436)" fill="#4A809C"/>
<circle cx="1268.91" cy="354.29" r="6" transform="rotate(6.40179 1268.91 354.29)" fill="#EE7380"/>
<circle cx="1327.88" cy="456.503" r="6" transform="rotate(6.40179 1327.88 456.503)" fill="#FFB5BD"/>
<circle cx="1285.98" cy="498.09" r="6" transform="rotate(6.40179 1285.98 498.09)" fill="#FFB5BD"/>
<circle cx="1430.34" cy="476.049" r="6" transform="rotate(6.40179 1430.34 476.049)" fill="#FFB5BD"/>
<circle cx="1359.48" cy="542.563" r="6" transform="rotate(6.40179 1359.48 542.563)" fill="#4A809C"/>
<circle cx="1303.56" cy="583.583" r="6" transform="rotate(6.40179 1303.56 583.583)" fill="#FFB5BD"/>
<circle cx="1171.64" cy="539.6" r="6" transform="rotate(6.40179 1171.64 539.6)" fill="#FFB5BD"/>
<circle cx="1250.19" cy="503.132" r="6" transform="rotate(6.40179 1250.19 503.132)" fill="#4A809C"/>
<circle cx="1130.49" cy="601.398" r="6" transform="rotate(6.40179 1130.49 601.398)" fill="#FFB5BD"/>
<circle cx="1141.19" cy="505.996" r="6" transform="rotate(6.40179 1141.19 505.996)" fill="#FFB5BD"/>
<circle cx="1119.3" cy="530.709" r="6" transform="rotate(6.40179 1119.3 530.709)" fill="#FFB5BD"/>
<circle cx="1109.65" cy="473.275" r="6" transform="rotate(6.40179 1109.65 473.275)" fill="#FFB5BD"/>
<circle cx="1069.61" cy="426.519" r="6" transform="rotate(6.40179 1069.61 426.519)" fill="#EE7380"/>
<circle cx="1037.92" cy="421.957" r="6" transform="rotate(6.40179 1037.92 421.957)" fill="#FFB5BD"/>
<circle cx="1049.15" cy="555.039" r="6" transform="rotate(6.40179 1049.15 555.039)" fill="#4A809C"/>
<circle cx="982.246" cy="541.495" r="6" transform="rotate(6.40179 982.246 541.495)" fill="#FFB5BD"/>
<circle cx="928.306" cy="484.123" r="6" transform="rotate(6.40179 928.306 484.123)" fill="#4A809C"/>
<circle cx="920.947" cy="549.711" r="6" transform="rotate(6.40179 920.947 549.711)" fill="#FFB5BD"/>
<circle cx="966.195" cy="576.926" r="6" transform="rotate(6.40179 966.195 576.926)" fill="#FFB5BD"/>
<circle cx="867.323" cy="507.469" r="6" transform="rotate(6.40179 867.323 507.469)" fill="#4A809C"/>
<circle cx="850.599" cy="450.247" r="6" transform="rotate(6.40179 850.599 450.247)" fill="#FFB5BD"/>
<circle cx="798.744" cy="508.83" r="6" transform="rotate(6.40179 798.744 508.83)" fill="#EE7380"/>
<circle cx="803.441" cy="556.653" r="6" transform="rotate(6.40179 803.441 556.653)" fill="#FFB5BD"/>
<circle cx="763.594" cy="436.46" r="6" transform="rotate(6.40179 763.594 436.46)" fill="#FFB5BD"/>
<circle cx="744.732" cy="416.231" r="6" transform="rotate(6.40179 744.732 416.231)" fill="#FFB5BD"/>
<circle cx="729.524" cy="488.989" r="6" transform="rotate(6.40179 729.524 488.989)" fill="#EE7380"/>
<circle cx="662.074" cy="569.973" r="6" transform="rotate(6.40179 662.074 569.973)" fill="#FFB5BD"/>
<circle cx="657.547" cy="466.825" r="6" transform="rotate(6.40179 657.547 466.825)" fill="#EE7380"/>
<circle cx="652.675" cy="375.714" r="6" transform="rotate(6.40179 652.675 375.714)" fill="#FFB5BD"/>
<circle cx="606.613" cy="490.292" r="6" transform="rotate(6.40179 606.613 490.292)" fill="#4A809C"/>
<circle cx="549.211" cy="571.398" r="6" transform="rotate(6.40179 549.211 571.398)" fill="#FFB5BD"/>
<circle cx="535.769" cy="440.08" r="6" transform="rotate(6.40179 535.769 440.08)" fill="#4A809C"/>
<circle cx="539.725" cy="458.637" r="6" transform="rotate(6.40179 539.725 458.637)" fill="#4A809C"/>
<circle cx="475.731" cy="508.815" r="6" transform="rotate(6.40179 475.731 508.815)" fill="#EE7380"/>
<circle cx="457.237" cy="557.053" r="6" transform="rotate(6.40179 457.237 557.053)" fill="#FFB5BD"/>
<circle cx="512.515" cy="602.5" r="6" transform="rotate(6.40179 512.515 602.5)" fill="#FFB5BD"/>
<circle cx="502.174" cy="667.754" r="6" transform="rotate(6.40179 502.174 667.754)" fill="#FFB5BD"/>
<circle cx="481.446" cy="637.253" r="6" transform="rotate(6.40179 481.446 637.253)" fill="#FFB5BD"/>
<circle cx="449.495" cy="670.9" r="6" transform="rotate(6.40179 449.495 670.9)" fill="#FFB5BD"/>
<circle cx="361.22" cy="605.65" r="6" transform="rotate(6.40179 361.22 605.65)" fill="#FFB5BD"/>
<circle cx="440.208" cy="475.647" r="6" transform="rotate(6.40179 440.208 475.647)" fill="#FFB5BD"/>
<circle cx="481.161" cy="388.671" r="6" transform="rotate(6.40179 481.161 388.671)" fill="#FFB5BD"/>
<circle cx="395.527" cy="434.408" r="6" transform="rotate(6.40179 395.527 434.408)" fill="#FFB5BD"/>
<circle cx="305.629" cy="338.788" r="6" transform="rotate(6.40179 305.629 338.788)" fill="#FFB5BD"/>
<circle cx="283.586" cy="400.717" r="6" transform="rotate(6.40179 283.586 400.717)" fill="#FFB5BD"/>
<circle cx="314.688" cy="437.413" r="6" transform="rotate(6.40179 314.688 437.413)" fill="#FFB5BD"/>
<circle cx="312.288" cy="512.615" r="6" transform="rotate(6.40179 312.288 512.615)" fill="#FFB5BD"/>
<circle cx="266.526" cy="552.762" r="6" transform="rotate(6.40179 266.526 552.762)" fill="#4A809C"/>
<circle cx="306.209" cy="620.61" r="6" transform="rotate(6.40179 306.209 620.61)" fill="#FFB5BD"/>
<circle cx="179.773" cy="509.822" r="6" transform="rotate(6.40179 179.773 509.822)" fill="#4A809C"/>
<circle cx="215.055" cy="356.802" r="6" transform="rotate(6.40179 215.055 356.802)" fill="#4A809C"/>
<circle cx="168.63" cy="295.241" r="6" transform="rotate(6.40179 168.63 295.241)" fill="#FFB5BD"/>
<circle cx="170.297" cy="388.005" r="6" transform="rotate(6.40179 170.297 388.005)" fill="#FFB5BD"/>
<circle cx="237.684" cy="262.738" r="6" transform="rotate(6.40179 237.684 262.738)" fill="#FFB5BD"/>
<circle cx="85.8756" cy="333.251" r="6" transform="rotate(6.40179 85.8756 333.251)" fill="#FFB5BD"/>
<circle cx="51.6168" cy="459.217" r="6" transform="rotate(6.40179 51.6168 459.217)" fill="#EE7380"/>
<circle cx="19.8844" cy="392.261" r="6" transform="rotate(6.40179 19.8844 392.261)" fill="#FFB5BD"/>
<circle cx="12.2838" cy="271.661" r="6" transform="rotate(6.40179 12.2838 271.661)" fill="#FFB5BD"/>
<circle cx="195.64" cy="440.156" r="6" transform="rotate(6.40179 195.64 440.156)" fill="#FFB5BD"/>
<circle cx="112.129" cy="565.627" r="6" transform="rotate(6.40179 112.129 565.627)" fill="#FFB5BD"/>
<circle cx="122.164" cy="476.188" r="6" transform="rotate(6.40179 122.164 476.188)" fill="#FFB5BD"/>
<circle cx="371.56" cy="540.396" r="6" transform="rotate(6.40179 371.56 540.396)" fill="#FFB5BD"/>
</g>
<path d="M1380.5 50H1192.5M1380.5 50L1452.5 116L1425.25 155.75M1380.5 50L1425.25 155.75M1380.5 50L1398 195.5M1380.5 50L1363.77 259M1380.5 50L1336.5 166.5M1380.5 50L1319.5 86M1192.5 50L1176 223.5M1192.5 50L1319.5 86M1192.5 50L1258 161M1192.5 50L1214.5 211.5M1176 223.5L1104 250M1176 223.5L1214.5 211.5M1176 223.5V319.5M1176 223.5L1198.5 357M1104 250L1065 348M1104 250L1096 350M1104 250L1176 319.5M1104 250L1140.5 392.5M1065 348L1096 350M1065 348L1090.5 481M1065 348L1023 473M1065 348L1023 378.029M961.5 422L880.5 398M961.5 422L1023 378.029M961.5 422L1023 473M961.5 422L1009 510.5M961.5 422V490M961.5 422L904 453M880.5 398L772.5 376M880.5 398L904 453M880.5 398L836.5 462.5M880.5 398L792.5 393M772.5 376L676.5 345M772.5 376L792.5 393M772.5 376L765 450M772.5 376L691.159 436.5M676.5 345L568.5 423M676.5 345L765 450M676.5 345L691.159 436.5M676.5 345L642.5 464.5M676.5 345L573 440.5M568.5 423L506.5 376M568.5 423L475.5 470.5M568.5 423L573 440.5M568.5 423L515 497M506.5 376L425 433.5M506.5 376L475.5 470.5M425 433.5L352.5 519.5M425 433.5L475.5 470.5M425 433.5L415 541.5M425 433.5L502.5 548.5M425 433.5L346.5 444M425 433.5L312.5 412.5M425 433.5L327.5 347.734M250.5 280L327.5 347.734M250.5 280L239 376M250.5 280L197.639 412.5M250.5 280L187.121 319.5M108.5 368.5L29 314M108.5 368.5L49.5 431.771M108.5 368.5L89 495M108.5 368.5L160.337 506M108.5 368.5L197.639 412.5M108.5 368.5L187.121 319.5M29 314L-2 487M29 314L49.5 431.771M-2 487L60 527M-2 487L89 495M-2 487L49.5 431.771M312.5 566.5L352.5 519.5M312.5 566.5L220.5 530M312.5 566.5L228.5 461M312.5 566.5L359.5 629M352.5 519.5L415 541.5M352.5 519.5L359.5 629M352.5 519.5L228.5 461M352.5 519.5L346.5 444M475.5 470.5L515 497M515 497L595 552M515 497L573 440.5M515 497L502.5 548.5M595 552L559.5 654M595 552L707.5 538.5M595 552L642.5 464.5M595 552L573 440.5M595 552L563 587M559.5 654L506.5 662.5M559.5 654L563 587M559.5 654L534.75 624.75M506.5 662.5L502.5 548.5M506.5 662.5L534.75 624.75M506.5 662.5L415 541.5M506.5 662.5L411.796 606M707.5 538.5L765 450M707.5 538.5L691.159 436.5M707.5 538.5L642.5 464.5M765 450L846.5 510.5M765 450L792.5 393M765 450L691.159 436.5M846.5 510.5L904 453M846.5 510.5L836.5 462.5M904 453L961.5 490M961.5 490L1009 510.5M1009 510.5L1090.5 481M1009 510.5L1023 473M1090.5 481L1176 518M1090.5 481L1140.5 392.5M1090.5 481L1157.5 449M1090.5 481L1096 350M1090.5 481L1023 473M1176 518L1210 453M1176 518L1157.5 449M1176 518V422M1210 453L1346 481M1210 453L1228.5 334.5M1210 453L1198.5 357M1210 453L1285 406.5M1346 481L1398 433.5M1346 481L1356.49 350M1346 481L1285 406.5M1346 481L1318.5 397M1398 433.5L1460 357M1398 433.5L1414 309.5M1398 433.5L1356.49 350M1398 433.5L1452.5 444.5L1460 357M1460 357L1414 309.5M1414 309.5L1460 223.5L1398 195.5M1414 309.5L1398 195.5M1414 309.5L1356.49 350M1414 309.5L1363.77 259M1398 195.5L1425.25 155.75M1398 195.5L1363.77 259M1356.49 350L1363.77 259M1356.49 350L1318.5 397M1356.49 350L1285 255.5M1363.77 259L1258 161M1363.77 259L1285 255.5M1363.77 259L1336.5 166.5M1258 161L1336.5 166.5M1258 161L1319.5 86M1258 161L1214.5 211.5M1258 161L1228.5 334.5M1258 161L1285 255.5M1214.5 211.5L1228.5 334.5M1096 350L1140.5 392.5M1140.5 392.5L1176 319.5M1140.5 392.5L1176 422M1140.5 392.5L1157.5 449M1176 319.5V422M1176 422L1157.5 449M1176 422L1198.5 357M1198.5 357L1228.5 334.5M1228.5 334.5L1285 406.5M1228.5 334.5L1285 255.5M1285 255.5V406.5M1285 255.5L1318.5 397M1285 406.5L1318.5 397M1023 473V378.029M836.5 462.5L792.5 393M691.159 436.5L642.5 464.5M642.5 464.5L573 440.5M502.5 548.5L563 587M502.5 548.5L534.75 624.75M502.5 548.5L415 541.5M563 587L534.75 624.75M415 541.5L411.796 606M415 541.5L359.5 629M411.796 606L359.5 629M220.5 530L228.5 461M220.5 530L159.668 599.25M228.5 461L312.5 412.5M228.5 461L346.5 444M228.5 461L239 376M228.5 461L197.639 412.5M228.5 461L160.337 506M312.5 412.5L346.5 444M312.5 412.5L327.5 347.734M312.5 412.5L239 376M327.5 347.734L239 376M160.337 506L159.668 599.25M160.337 506L135.252 568.875M160.337 506L89 495M160.337 506L197.639 412.5M159.668 599.25L135.252 568.875M135.252 568.875L89 495M135.252 568.875L60 527M60 527L89 495M89 495L49.5 431.771M197.639 412.5L187.121 319.5" stroke="#6E99B0" stroke-width="2"/>
<circle cx="1192" cy="52" r="6" fill="#4A809C"/>
<circle cx="1381" cy="50" r="6" fill="#EE7380"/>
<circle cx="1397" cy="195" r="6" fill="#FFB5BD"/>
<circle cx="1414" cy="309" r="6" fill="#EE7380"/>
<circle cx="1363" cy="257" r="6" fill="#4A809C"/>
<circle cx="1336" cy="166" r="6" fill="#4A809C"/>
<circle cx="1258" cy="160" r="6" fill="#FFB5BD"/>
<circle cx="1214" cy="212" r="6" fill="#FFB5BD"/>
<circle cx="1176" cy="224" r="6" fill="#FFB5BD"/>
<circle cx="1104" cy="251" r="6" fill="#EE7380"/>
<circle cx="1176" cy="320" r="6" fill="#FFB5BD"/>
<circle cx="1198" cy="359" r="6" fill="#FFB5BD"/>
<circle cx="1229" cy="336" r="6" fill="#4A809C"/>
<circle cx="1286" cy="256" r="6" fill="#EE7380"/>
<circle cx="1356" cy="351" r="6" fill="#FFB5BD"/>
<circle cx="1319" cy="397" r="6" fill="#FFB5BD"/>
<circle cx="1397" cy="433" r="6" fill="#4A809C"/>
<circle cx="1346" cy="480" r="6" fill="#FFB5BD"/>
<circle cx="1210" cy="451" r="6" fill="#FFB5BD"/>
<circle cx="1284" cy="406" r="6" fill="#4A809C"/>
<circle cx="1176" cy="517" r="6" fill="#FFB5BD"/>
<circle cx="1176" cy="421" r="6" fill="#FFB5BD"/>
<circle cx="1157" cy="448" r="6" fill="#FFB5BD"/>
<circle cx="1141" cy="392" r="6" fill="#FFB5BD"/>
<circle cx="1096" cy="350" r="6" fill="#EE7380"/>
<circle cx="1064" cy="349" r="6" fill="#FFB5BD"/>
<circle cx="1090" cy="480" r="6" fill="#4A809C"/>
<circle cx="1022" cy="474" r="6" fill="#FFB5BD"/>
<circle cx="962" cy="423" r="6" fill="#4A809C"/>
<circle cx="962" cy="489" r="6" fill="#FFB5BD"/>
<circle cx="1010" cy="511" r="6" fill="#FFB5BD"/>
<circle cx="904" cy="453" r="6" fill="#4A809C"/>
<circle cx="881" cy="398" r="6" fill="#FFB5BD"/>
<circle cx="836" cy="462" r="6" fill="#EE7380"/>
<circle cx="846" cy="509" r="6" fill="#FFB5BD"/>
<circle cx="793" cy="394" r="6" fill="#FFB5BD"/>
<circle cx="772" cy="376" r="6" fill="#FFB5BD"/>
<circle cx="765" cy="450" r="6" fill="#EE7380"/>
<circle cx="707" cy="538" r="6" fill="#FFB5BD"/>
<circle cx="691" cy="436" r="6" fill="#EE7380"/>
<circle cx="676" cy="346" r="6" fill="#FFB5BD"/>
<circle cx="643" cy="465" r="6" fill="#4A809C"/>
<circle cx="595" cy="552" r="6" fill="#FFB5BD"/>
<circle cx="567" cy="423" r="6" fill="#4A809C"/>
<circle cx="573" cy="441" r="6" fill="#4A809C"/>
<circle cx="515" cy="498" r="6" fill="#EE7380"/>
<circle cx="502" cy="548" r="6" fill="#FFB5BD"/>
<circle cx="562" cy="587" r="6" fill="#FFB5BD"/>
<circle cx="559" cy="653" r="6" fill="#FFB5BD"/>
<circle cx="535" cy="625" r="6" fill="#FFB5BD"/>
<circle cx="507" cy="662" r="6" fill="#FFB5BD"/>
<circle cx="412" cy="607" r="6" fill="#FFB5BD"/>
<circle cx="476" cy="469" r="6" fill="#FFB5BD"/>
<circle cx="507" cy="378" r="6" fill="#FFB5BD"/>
<circle cx="427" cy="433" r="6" fill="#FFB5BD"/>
<circle cx="327" cy="348" r="6" fill="#FFB5BD"/>
<circle cx="312" cy="412" r="6" fill="#FFB5BD"/>
<circle cx="347" cy="445" r="6" fill="#FFB5BD"/>
<circle cx="353" cy="520" r="6" fill="#FFB5BD"/>
<circle cx="312" cy="565" r="6" fill="#4A809C"/>
<circle cx="359" cy="628" r="6" fill="#FFB5BD"/>
<circle cx="221" cy="532" r="6" fill="#4A809C"/>
<circle cx="239" cy="376" r="6" fill="#4A809C"/>
<circle cx="186" cy="320" r="6" fill="#FFB5BD"/>
<circle cx="198" cy="412" r="6" fill="#FFB5BD"/>
<circle cx="251" cy="280" r="6" fill="#FFB5BD"/>
<circle cx="108" cy="367" r="6" fill="#FFB5BD"/>
<circle cx="88" cy="496" r="6" fill="#EE7380"/>
<circle cx="49" cy="433" r="6" fill="#FFB5BD"/>
<circle cx="28" cy="314" r="6" fill="#FFB5BD"/>
<circle cx="229" cy="461" r="6" fill="#FFB5BD"/>
<circle cx="160" cy="595" r="6" fill="#FFB5BD"/>
<circle cx="160" cy="505" r="6" fill="#FFB5BD"/>
<circle cx="415" cy="541" r="6" fill="#FFB5BD"/>
<rect y="245" width="1440" height="448" fill="url(#paint0_linear_2315_368)"/>
<defs>
<linearGradient id="paint0_linear_2315_368" x1="720" y1="430.633" x2="720" y2="693" gradientUnits="userSpaceOnUse">
<stop stop-color="white" stop-opacity="0.3"/>
<stop offset="1" stop-color="white"/>
</linearGradient>
</defs>
</svg>
