<svg width="148" height="90" viewBox="0 0 148 90" fill="none" xmlns="http://www.w3.org/2000/svg">
<path d="M0 90L36.5949 0H51.4489L87.7737 90H72.2445L50.6387 35.7429C50.3686 35.1429 49.8285 33.6857 49.0182 31.3714C48.2981 29.0571 47.4428 26.4857 46.4526 23.6571C45.4623 20.8286 44.562 18.2571 43.7518 15.9429C42.9416 13.5429 42.4015 12 42.1314 11.3143L45.2372 11.1857C44.6971 12.6429 44.0219 14.4857 43.2117 16.7143C42.4915 18.9429 41.6813 21.3 40.781 23.7857C39.9708 26.2714 39.1606 28.6286 38.3504 30.8571C37.5401 33 36.865 34.8 36.3248 36.2571L14.854 90H0ZM16.2044 67.6286L21.6058 54.2571H64.5475L70.7591 67.6286H16.2044Z" fill="#ED7380"/>
<path d="M100.899 90V77.1429H116.158V12.8571H100.899V0H146.001V12.8571H130.742V77.1429H148L135.982 90H100.899Z" fill="#ED7380"/>
</svg>
