<svg width="479" height="124" viewBox="0 0 479 124" fill="none" xmlns="http://www.w3.org/2000/svg">
<path d="M0 94.5979L34.7555 5.1134H48.8629L83.3619 94.5979H68.6132L48.0934 40.6515C47.8369 40.055 47.3239 38.6062 46.5544 36.3052C45.8704 34.0041 45.0582 31.4474 44.1177 28.635C43.1772 25.8227 42.3222 23.266 41.5527 20.9649C40.7832 18.5787 40.2702 17.0447 40.0137 16.3629L42.9634 16.235C42.4504 17.6838 41.8092 19.5161 41.0397 21.732C40.3557 23.9478 39.5862 26.2914 38.7312 28.7629C37.9617 31.2344 37.1922 33.578 36.4227 35.7938C35.6532 37.9244 35.012 39.7141 34.499 41.1629L14.1074 94.5979H0ZM15.3899 72.3546L20.5199 59.0598H61.3031L67.2025 72.3546H15.3899Z" fill="#ED7380"/>
<path d="M95.8271 94.5979V27.4845H109.037V41.2907L106.728 42.8247C107.583 39.8419 109.251 37.1148 111.73 34.6433C114.209 32.0866 117.159 30.0412 120.579 28.5072C123.999 26.888 127.505 26.0784 131.096 26.0784C136.226 26.0784 140.501 27.101 143.92 29.1464C147.34 31.1065 149.905 34.132 151.615 38.2227C153.325 42.3134 154.18 47.4694 154.18 53.6907V80.7918L140.971 94.5979V54.5856C140.971 50.7505 140.458 47.5973 139.432 45.1258C138.406 42.5691 136.824 40.7368 134.687 39.6289C132.549 38.4357 129.899 37.9244 126.735 38.0948C124.17 38.0948 121.819 38.521 119.681 39.3732C117.544 40.1402 115.663 41.2481 114.038 42.6969C112.499 44.1457 111.26 45.8502 110.319 47.8103C109.464 49.6852 109.037 51.7306 109.037 53.9464V94.5979H102.496C101.385 94.5979 100.273 94.5979 99.1616 94.5979C98.0501 94.5979 96.9386 94.5979 95.8271 94.5979Z" fill="#ED7380"/>
<path d="M198.007 95.8763C192.449 95.8763 187.362 94.3423 182.745 91.2742C178.213 88.2062 174.58 84.0302 171.844 78.7464C169.108 73.4625 167.74 67.4969 167.74 60.8495C167.74 54.1168 169.108 48.1512 171.844 42.9526C174.665 37.6687 178.427 33.5354 183.13 30.5526C187.918 27.5698 193.261 26.0784 199.161 26.0784C202.666 26.0784 205.872 26.5897 208.779 27.6124C211.686 28.635 214.209 30.0838 216.346 31.9588C218.569 33.7485 220.365 35.8364 221.733 38.2227C223.186 40.6089 224.084 43.1656 224.426 45.8928L221.476 44.8701V27.4845H234.814V94.5979H221.476V78.6186L224.554 77.7237C224.041 80.0247 222.972 82.2832 221.348 84.499C219.809 86.6296 217.8 88.5471 215.32 90.2515C212.926 91.956 210.233 93.3196 207.24 94.3423C204.333 95.3649 201.256 95.8763 198.007 95.8763ZM201.469 83.732C205.488 83.732 209.036 82.7519 212.114 80.7918C215.192 78.8316 217.586 76.1471 219.296 72.7381C221.091 69.244 221.989 65.2811 221.989 60.8495C221.989 56.5031 221.091 52.6254 219.296 49.2165C217.586 45.8076 215.192 43.123 212.114 41.1629C209.036 39.2027 205.488 38.2227 201.469 38.2227C197.536 38.2227 194.031 39.2027 190.953 41.1629C187.96 43.123 185.566 45.8076 183.771 49.2165C182.061 52.6254 181.206 56.5031 181.206 60.8495C181.206 65.2811 182.061 69.244 183.771 72.7381C185.566 76.1471 187.96 78.8316 190.953 80.7918C194.031 82.7519 197.536 83.732 201.469 83.732Z" fill="#ED7380"/>
<path d="M253.514 94.5979V0L266.724 13.0392V94.5979H253.514Z" fill="#ED7380"/>
<path d="M294.853 124L308.447 92.6804L308.575 103.163L274.974 27.4845H290.364L311.397 76.8289C311.824 77.6811 312.337 79.0021 312.936 80.7918C313.534 82.4962 314.047 84.2007 314.475 85.9052L311.14 86.6722C311.824 84.8825 312.465 83.0928 313.064 81.3031C313.748 79.5134 314.389 77.7237 314.988 75.934L332.558 27.4845H348.204L320.502 94.5979L309.088 124H294.853Z" fill="#ED7380"/>
<path d="M379.278 95.8763C373.635 95.8763 368.547 94.8962 364.016 92.9361C359.484 90.9759 355.722 88.0783 352.73 84.2433L361.707 76.5732C364.272 79.556 367.051 81.7292 370.044 83.0928C373.122 84.3711 376.584 85.0103 380.432 85.0103C381.971 85.0103 383.382 84.8399 384.664 84.499C386.032 84.0729 387.186 83.4763 388.127 82.7093C389.153 81.9423 389.922 81.0474 390.435 80.0247C390.948 78.9168 391.205 77.7237 391.205 76.4454C391.205 74.2296 390.392 72.4399 388.768 71.0763C387.913 70.4797 386.545 69.8405 384.664 69.1588C382.869 68.3918 380.517 67.6247 377.61 66.8577C372.651 65.5794 368.59 64.1306 365.427 62.5113C362.263 60.8921 359.826 59.0598 358.116 57.0144C356.834 55.3952 355.893 53.6481 355.295 51.7732C354.696 49.8131 354.397 47.6825 354.397 45.3814C354.397 42.5691 354.996 40.0124 356.193 37.7113C357.475 35.3251 359.185 33.2797 361.323 31.5753C363.546 29.7856 366.111 28.422 369.018 27.4845C372.01 26.5471 375.174 26.0784 378.508 26.0784C381.672 26.0784 384.792 26.5045 387.87 27.3567C391.034 28.2089 393.941 29.4447 396.591 31.0639C399.242 32.6832 401.465 34.6007 403.26 36.8165L395.693 45.1258C394.069 43.5065 392.273 42.1003 390.307 40.9072C388.426 39.6289 386.502 38.6488 384.536 37.967C382.569 37.2852 380.774 36.9443 379.149 36.9443C377.354 36.9443 375.729 37.1148 374.276 37.4557C372.822 37.7966 371.583 38.3079 370.557 38.9897C369.616 39.6715 368.889 40.5237 368.376 41.5464C367.863 42.5691 367.607 43.7196 367.607 44.9979C367.692 46.1058 367.949 47.1711 368.376 48.1938C368.889 49.1313 369.573 49.9409 370.428 50.6227C371.369 51.3045 372.78 52.0289 374.661 52.7959C376.542 53.5629 378.936 54.2873 381.843 54.9691C386.118 56.077 389.623 57.3127 392.359 58.6763C395.18 59.9546 397.403 61.446 399.028 63.1505C400.738 64.7698 401.935 66.6447 402.619 68.7753C403.303 70.9058 403.645 73.2921 403.645 75.934C403.645 79.7691 402.533 83.2206 400.31 86.2887C398.173 89.2715 395.266 91.6151 391.589 93.3196C387.913 95.0241 383.809 95.8763 379.278 95.8763Z" fill="#ED7380"/>
<path d="M449.624 95.8763C442.699 95.8763 436.543 94.4275 431.156 91.5299C425.855 88.5471 421.666 84.499 418.588 79.3856C415.595 74.2722 414.099 68.3918 414.099 61.7443C414.099 56.4605 414.954 51.6454 416.664 47.299C418.374 42.9526 420.725 39.2027 423.718 36.0495C426.796 32.811 430.43 30.3395 434.619 28.635C438.894 26.8454 443.511 25.9505 448.47 25.9505C452.83 25.9505 456.892 26.8027 460.654 28.5072C464.416 30.1265 467.665 32.3849 470.401 35.2825C473.222 38.1801 475.359 41.6316 476.813 45.6371C478.352 49.5574 479.079 53.8612 478.993 58.5485L478.865 64.1732H423.846L420.896 53.6907H467.451L465.527 55.8639V52.7959C465.271 49.9835 464.33 47.4694 462.706 45.2536C461.081 43.0378 459.029 41.2907 456.55 40.0124C454.07 38.734 451.377 38.0948 448.47 38.0948C443.853 38.0948 439.963 38.9897 436.799 40.7794C433.636 42.4838 431.242 45.0405 429.617 48.4495C427.993 51.7732 427.181 55.9065 427.181 60.8495C427.181 65.5368 428.164 69.6275 430.13 73.1216C432.097 76.5306 434.876 79.1725 438.467 81.0474C442.057 82.9223 446.204 83.8598 450.907 83.8598C454.241 83.8598 457.319 83.3058 460.141 82.1979C463.048 81.09 466.168 79.0873 469.503 76.1897L476.172 85.5216C474.12 87.567 471.598 89.3567 468.605 90.8907C465.698 92.4247 462.577 93.6605 459.243 94.5979C455.994 95.4502 452.788 95.8763 449.624 95.8763Z" fill="#ED7380"/>
</svg>
