<svg width="14" height="14" viewBox="0 0 14 14" fill="none" xmlns="http://www.w3.org/2000/svg">
<g clip-path="url(#clip0_265_1257)">
<path d="M3.05072 6.20666C3.09969 6.26573 3.15983 6.31456 3.2277 6.35035C3.29557 6.38613 3.36983 6.40818 3.44624 6.41523C3.52264 6.42227 3.59968 6.41417 3.67295 6.3914C3.74622 6.36862 3.81428 6.33161 3.87322 6.2825L6.41655 4.165V11.0833C6.41655 11.238 6.47801 11.3864 6.58741 11.4958C6.69681 11.6052 6.84518 11.6667 6.99989 11.6667C7.1546 11.6667 7.30297 11.6052 7.41237 11.4958C7.52176 11.3864 7.58322 11.238 7.58322 11.0833V4.165L10.1266 6.2825C10.1855 6.33152 10.2536 6.36845 10.3269 6.39117C10.4001 6.4139 10.4771 6.42197 10.5535 6.41493C10.6299 6.40788 10.7041 6.38587 10.772 6.35013C10.8399 6.3144 10.9 6.26565 10.9491 6.20666C10.9981 6.14768 11.035 6.07961 11.0577 6.00636C11.0805 5.9331 11.0885 5.85608 11.0815 5.77971C11.0744 5.70333 11.0524 5.62909 11.0167 5.56122C10.981 5.49336 10.9322 5.43319 10.8732 5.38416L7.37322 2.4675L7.28572 2.415L7.20989 2.37416C7.07474 2.32202 6.92503 2.32202 6.78989 2.37416L6.71405 2.415L6.62655 2.4675L3.12655 5.38416C3.06749 5.43313 3.01866 5.49328 2.98287 5.56114C2.94708 5.62901 2.92504 5.70328 2.91799 5.77968C2.91095 5.85608 2.91904 5.93313 2.94182 6.00639C2.9646 6.07966 3.0016 6.14772 3.05072 6.20666Z" fill="#04C551"/>
</g>
<defs>
<clipPath id="clip0_265_1257">
<rect width="14" height="14" fill="white"/>
</clipPath>
</defs>
</svg>
