<svg width="48" height="48" viewBox="0 0 48 48" fill="none" xmlns="http://www.w3.org/2000/svg">
<g id="bar-chart-10">
<path id="Icon" d="M18 14H9.2C8.07989 14 7.51984 14 7.09202 14.218C6.71569 14.4097 6.40973 14.7157 6.21799 15.092C6 15.5198 6 16.0799 6 17.2V38.8C6 39.9201 6 40.4802 6.21799 40.908C6.40973 41.2843 6.71569 41.5903 7.09202 41.782C7.51984 42 8.0799 42 9.2 42H18M18 42H30M18 42L18 9.2C18 8.0799 18 7.51984 18.218 7.09202C18.4097 6.7157 18.7157 6.40973 19.092 6.21799C19.5198 6 20.0799 6 21.2 6L26.8 6C27.9201 6 28.4802 6 28.908 6.21799C29.2843 6.40973 29.5903 6.71569 29.782 7.09202C30 7.51984 30 8.0799 30 9.2V42M30 22H38.8C39.9201 22 40.4802 22 40.908 22.218C41.2843 22.4097 41.5903 22.7157 41.782 23.092C42 23.5198 42 24.0799 42 25.2V38.8C42 39.9201 42 40.4802 41.782 40.908C41.5903 41.2843 41.2843 41.5903 40.908 41.782C40.4802 42 39.9201 42 38.8 42H30" stroke="#ED707E" stroke-width="2" stroke-linecap="round" stroke-linejoin="round"/>
</g>
</svg>
