<svg width="198" height="128" viewBox="0 0 198 128" fill="none" xmlns="http://www.w3.org/2000/svg">
<path opacity="0.1" d="M90 9C90 4.02944 94.0294 0 99 0C103.971 0 108 4.02944 108 9V119C108 123.971 103.971 128 99 128C94.0294 128 90 123.971 90 119V9Z" fill="url(#paint0_linear_265_1161)"/>
<rect x="10" y="53" width="4" height="58" rx="2" fill="url(#paint1_linear_265_1161)"/>
<rect opacity="0.4" x="4" y="63" width="4" height="48" rx="2" fill="url(#paint2_linear_265_1161)"/>
<path opacity="0.5" d="M7.46484 119H6.9668V116.24C6.9668 115.939 6.98047 115.596 7.00781 115.209H6.98438L5.5166 119H5.11816L3.66504 115.203H3.6416C3.66895 115.516 3.68262 115.873 3.68262 116.275V119H3.22266V114.717H3.97266L5.3291 118.25H5.35254L6.7207 114.717H7.46484V119ZM8.3877 117.392C8.3877 116.868 8.51758 116.461 8.77734 116.17C9.03906 115.877 9.39844 115.73 9.85547 115.73C10.3145 115.73 10.6748 115.88 10.9365 116.179C11.2041 116.476 11.3379 116.883 11.3379 117.4C11.3379 117.918 11.2061 118.324 10.9424 118.619C10.6787 118.912 10.3145 119.059 9.84961 119.059C9.8418 119.059 9.83398 119.059 9.82617 119.059C9.40234 119.059 9.05664 118.908 8.78906 118.607C8.52148 118.307 8.3877 117.915 8.3877 117.433C8.3877 117.419 8.3877 117.405 8.3877 117.392ZM9.85547 116.146C9.21289 116.146 8.8916 116.562 8.8916 117.392C8.8916 117.802 8.97363 118.114 9.1377 118.329C9.30371 118.544 9.54492 118.651 9.86133 118.651C10.1797 118.651 10.4209 118.545 10.585 118.332C10.751 118.117 10.834 117.805 10.834 117.395C10.834 116.984 10.751 116.674 10.585 116.463C10.4209 116.252 10.1777 116.146 9.85547 116.146ZM13.7139 115.73C14.1045 115.73 14.3965 115.825 14.5898 116.015C14.7832 116.204 14.8799 116.501 14.8799 116.905V119H14.3936V116.923C14.3936 116.659 14.333 116.464 14.2119 116.337C14.0928 116.21 13.9072 116.146 13.6553 116.146C13.3174 116.146 13.0703 116.237 12.9141 116.419C12.7598 116.601 12.6826 116.899 12.6826 117.315V119H12.1963V115.789H12.5918L12.6709 116.229H12.6943C12.7939 116.07 12.9326 115.948 13.1104 115.862C13.29 115.774 13.4912 115.73 13.7139 115.73Z" fill="#454459"/>
<rect x="40" y="44" width="4" height="67" rx="2" fill="url(#paint3_linear_265_1161)"/>
<rect opacity="0.4" x="34" y="82" width="4" height="29" rx="2" fill="url(#paint4_linear_265_1161)"/>
<path opacity="0.5" d="M37.0752 115.159H35.7188V119H35.2207V115.159H33.8643V114.717H37.0752V115.159ZM40.3008 119H39.8994L39.8291 118.569H39.8027C39.7031 118.728 39.5654 118.849 39.3896 118.933C39.2139 119.017 39.0117 119.059 38.7832 119.059C38.3867 119.059 38.0928 118.966 37.9014 118.78C37.71 118.593 37.6143 118.296 37.6143 117.89V115.789H38.1064V117.872C38.1064 118.136 38.166 118.332 38.2852 118.461C38.4062 118.588 38.5928 118.651 38.8447 118.651C39.1807 118.651 39.4258 118.56 39.5801 118.376C39.7363 118.19 39.8145 117.891 39.8145 117.477V115.789H40.3008V119ZM42.6914 119.059C42.2168 119.059 41.8418 118.914 41.5664 118.625C41.293 118.334 41.1562 117.931 41.1562 117.415C41.1562 116.899 41.2832 116.49 41.5371 116.188C41.793 115.883 42.1289 115.73 42.5449 115.73C42.9629 115.73 43.2881 115.864 43.5205 116.132C43.7549 116.392 43.8721 116.739 43.8721 117.175V117.482H41.6602C41.6699 117.857 41.7646 118.144 41.9443 118.341C42.124 118.536 42.3828 118.634 42.7207 118.634C43.0586 118.634 43.3955 118.562 43.7314 118.417V118.851C43.5615 118.925 43.3984 118.978 43.2422 119.009C43.0879 119.042 42.9043 119.059 42.6914 119.059ZM43.3506 117.087C43.3506 116.782 43.2822 116.549 43.1455 116.387C43.0088 116.223 42.8125 116.141 42.5566 116.141C42.3027 116.141 42.0986 116.224 41.9443 116.39C41.79 116.556 41.6992 116.788 41.6719 117.087H43.3506Z" fill="#454459"/>
<rect x="70" y="35" width="4" height="76" rx="2" fill="url(#paint5_linear_265_1161)"/>
<rect opacity="0.4" x="64" y="63" width="4" height="48" rx="2" fill="url(#paint6_linear_265_1161)"/>
<path opacity="0.5" d="M67.0254 119H66.5332L65.6689 116.135C65.6221 115.996 65.5752 115.833 65.5283 115.646C65.4814 115.456 65.4561 115.342 65.4521 115.303C65.4072 115.564 65.3389 115.848 65.2471 116.152L64.4092 119H63.917L62.7773 114.717H63.3047L63.9814 117.362C64.0732 117.728 64.1416 118.063 64.1865 118.37C64.2373 118.021 64.3154 117.671 64.4209 117.321L65.1885 114.717H65.7158L66.5215 117.345C66.6152 117.646 66.6943 117.987 66.7588 118.37C66.7959 118.095 66.8662 117.757 66.9697 117.356L67.6436 114.717H68.1709L67.0254 119ZM70.125 119.059C69.6504 119.059 69.2754 118.914 69 118.625C68.7266 118.334 68.5898 117.931 68.5898 117.415C68.5898 116.899 68.7168 116.49 68.9707 116.188C69.2266 115.883 69.5625 115.73 69.9785 115.73C70.3965 115.73 70.7217 115.864 70.9541 116.132C71.1885 116.392 71.3057 116.739 71.3057 117.175V117.482H69.0938C69.1035 117.857 69.1982 118.144 69.3779 118.341C69.5576 118.536 69.8164 118.634 70.1543 118.634C70.4922 118.634 70.8291 118.562 71.165 118.417V118.851C70.9951 118.925 70.832 118.978 70.6758 119.009C70.5215 119.042 70.3379 119.059 70.125 119.059ZM70.7842 117.087C70.7842 116.782 70.7158 116.549 70.5791 116.387C70.4424 116.223 70.2461 116.141 69.9902 116.141C69.7363 116.141 69.5322 116.224 69.3779 116.39C69.2236 116.556 69.1328 116.788 69.1055 117.087H70.7842ZM74.7832 119H74.3877L74.3232 118.569H74.2969C74.0703 118.896 73.7402 119.059 73.3066 119.059C72.875 119.059 72.542 118.915 72.3076 118.628C72.0752 118.339 71.959 117.931 71.959 117.403C71.959 116.874 72.0762 116.463 72.3105 116.17C72.5449 115.877 72.875 115.73 73.3008 115.73C73.7285 115.73 74.0586 115.889 74.291 116.205H74.3291L74.3086 115.974L74.2969 115.748V114.441H74.7832V119ZM74.2969 117.506V117.403C74.2969 116.948 74.2207 116.624 74.0684 116.431C73.9219 116.237 73.6807 116.141 73.3447 116.141C73.0596 116.141 72.8408 116.251 72.6885 116.472C72.5381 116.69 72.4629 117.004 72.4629 117.412C72.4629 117.82 72.5381 118.129 72.6885 118.338C72.8389 118.547 73.0596 118.651 73.3506 118.651C73.6826 118.651 73.9229 118.562 74.0713 118.382C74.2217 118.2 74.2969 117.908 74.2969 117.506Z" fill="#454459"/>
<rect x="100" y="17" width="4" height="94" rx="2" fill="url(#paint7_linear_265_1161)"/>
<rect opacity="0.4" x="94" y="35" width="4" height="76" rx="2" fill="url(#paint8_linear_265_1161)"/>
<path opacity="0.5" d="M96.917 115.159H95.5605V119H95.0625V115.159H93.7061V114.717H96.917V115.159ZM97.9775 114.441V115.821C97.9775 115.983 97.9697 116.121 97.9541 116.234H97.9834C98.0791 116.078 98.2158 115.956 98.3936 115.868C98.5713 115.78 98.7725 115.736 98.9971 115.736C99.3936 115.736 99.6885 115.831 99.8818 116.021C100.077 116.21 100.175 116.505 100.175 116.905V119H99.6885V116.923C99.6885 116.659 99.6279 116.464 99.5068 116.337C99.3877 116.21 99.2021 116.146 98.9502 116.146C98.6084 116.146 98.3604 116.238 98.2061 116.422C98.0537 116.604 97.9775 116.903 97.9775 117.321V119H97.4912V114.441H97.9775ZM103.828 119H103.427L103.356 118.569H103.33C103.23 118.728 103.093 118.849 102.917 118.933C102.741 119.017 102.539 119.059 102.311 119.059C101.914 119.059 101.62 118.966 101.429 118.78C101.237 118.593 101.142 118.296 101.142 117.89V115.789H101.634V117.872C101.634 118.136 101.693 118.332 101.812 118.461C101.934 118.588 102.12 118.651 102.372 118.651C102.708 118.651 102.953 118.56 103.107 118.376C103.264 118.19 103.342 117.891 103.342 117.477V115.789H103.828V119Z" fill="#454459"/>
<rect x="130" y="40" width="4" height="71" rx="2" fill="url(#paint9_linear_265_1161)"/>
<rect opacity="0.4" x="124" y="49" width="4" height="62" rx="2" fill="url(#paint10_linear_265_1161)"/>
<path opacity="0.5" d="M128.443 115.159H126.554V116.727H128.326V117.169H126.554V119H126.056V114.717H128.443V115.159ZM130.547 115.73C130.688 115.73 130.815 115.742 130.931 115.766L130.863 116.217C130.73 116.188 130.613 116.173 130.512 116.173C130.25 116.173 130.027 116.278 129.844 116.489C129.66 116.698 129.568 116.961 129.568 117.277V119H129.082V115.789H129.483L129.539 116.384H129.562C129.682 116.173 129.825 116.012 129.993 115.9C130.163 115.787 130.348 115.73 130.547 115.73ZM131.49 114.919C131.49 114.812 131.517 114.731 131.569 114.679C131.622 114.624 131.69 114.597 131.774 114.597C131.858 114.597 131.928 114.624 131.982 114.679C132.037 114.733 132.064 114.813 132.064 114.919C132.064 115.024 132.037 115.105 131.982 115.162C131.928 115.217 131.858 115.244 131.774 115.244C131.69 115.244 131.622 115.217 131.569 115.162C131.517 115.105 131.49 115.024 131.49 114.919ZM132.018 119H131.531V115.789H132.018V119Z" fill="#454459"/>
<rect x="160" y="66" width="4" height="44" rx="2" fill="url(#paint11_linear_265_1161)"/>
<rect opacity="0.4" x="154" y="82" width="4" height="28" rx="2" fill="url(#paint12_linear_265_1161)"/>
<path opacity="0.5" d="M156.123 118.622C156.451 118.622 156.7 118.56 156.87 118.435C157.04 118.31 157.125 118.134 157.125 117.907C157.125 117.761 157.095 117.64 157.034 117.544C156.976 117.448 156.877 117.361 156.738 117.283C156.602 117.203 156.389 117.111 156.1 117.008C155.699 116.863 155.414 116.693 155.244 116.498C155.074 116.303 154.989 116.045 154.989 115.725C154.989 115.402 155.113 115.144 155.361 114.948C155.609 114.753 155.941 114.655 156.357 114.655C156.773 114.655 157.16 114.733 157.518 114.89L157.365 115.323C157.014 115.175 156.67 115.101 156.334 115.101C156.07 115.101 155.864 115.157 155.716 115.271C155.567 115.384 155.493 115.541 155.493 115.742C155.493 115.889 155.521 116.01 155.575 116.105C155.63 116.201 155.72 116.288 155.845 116.366C155.972 116.442 156.173 116.53 156.448 116.63C156.901 116.794 157.211 116.968 157.377 117.151C157.545 117.335 157.629 117.571 157.629 117.86C157.629 118.233 157.492 118.527 157.219 118.742C156.945 118.953 156.563 119.059 156.073 119.059C155.583 119.059 155.203 118.993 154.934 118.862V118.382C155.311 118.542 155.707 118.622 156.123 118.622ZM158.552 116.012C158.888 115.828 159.249 115.736 159.636 115.736C160.022 115.736 160.307 115.822 160.488 115.994C160.672 116.164 160.764 116.436 160.764 116.809V119H160.406L160.31 118.543H160.286C160.126 118.744 159.966 118.881 159.806 118.953C159.647 119.023 159.449 119.059 159.211 119.059C158.893 119.059 158.643 118.977 158.461 118.812C158.279 118.646 158.188 118.413 158.188 118.112C158.188 117.466 158.708 117.126 159.747 117.093L160.292 117.075V116.876C160.292 116.622 160.237 116.437 160.128 116.319C160.021 116.2 159.839 116.141 159.583 116.141C159.327 116.141 159.033 116.222 158.701 116.384L158.552 116.012ZM158.701 118.118C158.701 118.292 158.754 118.426 158.859 118.52C158.965 118.611 159.114 118.657 159.308 118.657C159.61 118.657 159.848 118.574 160.02 118.408C160.193 118.24 160.28 118.008 160.28 117.711V117.421L159.794 117.441C159.407 117.455 159.128 117.516 158.956 117.623C158.786 117.729 158.701 117.894 158.701 118.118ZM162.293 115.789H163.225V116.167H162.293V118.057C162.293 118.248 162.338 118.396 162.428 118.502C162.52 118.605 162.645 118.657 162.803 118.657C162.961 118.657 163.109 118.638 163.248 118.599V118.974C163.201 118.997 163.125 119.017 163.02 119.032C162.914 119.05 162.82 119.059 162.738 119.059C162.117 119.059 161.807 118.731 161.807 118.077V116.167H161.347V115.933L161.807 115.73L162.012 115.045H162.293V115.789Z" fill="#454459"/>
<rect x="190" y="83" width="4" height="28" rx="2" fill="url(#paint13_linear_265_1161)"/>
<rect opacity="0.4" x="184" y="103" width="4" height="8" rx="2" fill="url(#paint14_linear_265_1161)"/>
<path opacity="0.5" d="M185.168 118.622C185.496 118.622 185.745 118.56 185.915 118.435C186.085 118.31 186.17 118.134 186.17 117.907C186.17 117.761 186.14 117.64 186.079 117.544C186.021 117.448 185.922 117.361 185.783 117.283C185.646 117.203 185.434 117.111 185.145 117.008C184.744 116.863 184.459 116.693 184.289 116.498C184.119 116.303 184.034 116.045 184.034 115.725C184.034 115.402 184.158 115.144 184.406 114.948C184.654 114.753 184.986 114.655 185.402 114.655C185.818 114.655 186.205 114.733 186.562 114.89L186.41 115.323C186.059 115.175 185.715 115.101 185.379 115.101C185.115 115.101 184.909 115.157 184.761 115.271C184.612 115.384 184.538 115.541 184.538 115.742C184.538 115.889 184.565 116.01 184.62 116.105C184.675 116.201 184.765 116.288 184.89 116.366C185.017 116.442 185.218 116.53 185.493 116.63C185.946 116.794 186.256 116.968 186.422 117.151C186.59 117.335 186.674 117.571 186.674 117.86C186.674 118.233 186.537 118.527 186.264 118.742C185.99 118.953 185.608 119.059 185.118 119.059C184.628 119.059 184.248 118.993 183.979 118.862V118.382C184.355 118.542 184.752 118.622 185.168 118.622ZM190.128 119H189.727L189.656 118.569H189.63C189.53 118.728 189.393 118.849 189.217 118.933C189.041 119.017 188.839 119.059 188.61 119.059C188.214 119.059 187.92 118.966 187.729 118.78C187.537 118.593 187.441 118.296 187.441 117.89V115.789H187.934V117.872C187.934 118.136 187.993 118.332 188.112 118.461C188.233 118.588 188.42 118.651 188.672 118.651C189.008 118.651 189.253 118.56 189.407 118.376C189.563 118.19 189.642 117.891 189.642 117.477V115.789H190.128V119ZM192.68 115.73C193.07 115.73 193.362 115.825 193.556 116.015C193.749 116.204 193.846 116.501 193.846 116.905V119H193.359V116.923C193.359 116.659 193.299 116.464 193.178 116.337C193.059 116.21 192.873 116.146 192.621 116.146C192.283 116.146 192.036 116.237 191.88 116.419C191.726 116.601 191.648 116.899 191.648 117.315V119H191.162V115.789H191.558L191.637 116.229H191.66C191.76 116.07 191.898 115.948 192.076 115.862C192.256 115.774 192.457 115.73 192.68 115.73Z" fill="#454459"/>
<defs>
<linearGradient id="paint0_linear_265_1161" x1="92.85" y1="-7.0567e-08" x2="118.749" y2="3.27823" gradientUnits="userSpaceOnUse">
<stop stop-color="#FF5F6D"/>
<stop offset="1" stop-color="#FFC371"/>
</linearGradient>
<linearGradient id="paint1_linear_265_1161" x1="10.6278" y1="53" x2="16.171" y2="53.2186" gradientUnits="userSpaceOnUse">
<stop stop-color="#F05053"/>
<stop offset="0.477114" stop-color="#EF83A1"/>
<stop offset="0.477379" stop-color="#EF83A1"/>
<stop offset="1" stop-color="#F05053"/>
</linearGradient>
<linearGradient id="paint2_linear_265_1161" x1="4.63333" y1="63" x2="10.4482" y2="63.4362" gradientUnits="userSpaceOnUse">
<stop stop-color="#FF5F6D"/>
<stop offset="1" stop-color="#FFC371"/>
</linearGradient>
<linearGradient id="paint3_linear_265_1161" x1="40.6278" y1="44" x2="46.1731" y2="44.1893" gradientUnits="userSpaceOnUse">
<stop stop-color="#F05053"/>
<stop offset="0.477114" stop-color="#EF83A1"/>
<stop offset="0.477379" stop-color="#EF83A1"/>
<stop offset="1" stop-color="#F05053"/>
</linearGradient>
<linearGradient id="paint4_linear_265_1161" x1="34.6333" y1="82" x2="40.3922" y2="82.715" gradientUnits="userSpaceOnUse">
<stop stop-color="#FF5F6D"/>
<stop offset="1" stop-color="#FFC371"/>
</linearGradient>
<linearGradient id="paint5_linear_265_1161" x1="70.6278" y1="35" x2="76.1746" y2="35.1669" gradientUnits="userSpaceOnUse">
<stop stop-color="#F05053"/>
<stop offset="0.477114" stop-color="#EF83A1"/>
<stop offset="0.477379" stop-color="#EF83A1"/>
<stop offset="1" stop-color="#F05053"/>
</linearGradient>
<linearGradient id="paint6_linear_265_1161" x1="64.6333" y1="63" x2="70.4482" y2="63.4362" gradientUnits="userSpaceOnUse">
<stop stop-color="#FF5F6D"/>
<stop offset="1" stop-color="#FFC371"/>
</linearGradient>
<linearGradient id="paint7_linear_265_1161" x1="100.628" y1="17" x2="106.176" y2="17.135" gradientUnits="userSpaceOnUse">
<stop stop-color="#F05053"/>
<stop offset="0.477114" stop-color="#EF83A1"/>
<stop offset="0.477379" stop-color="#EF83A1"/>
<stop offset="1" stop-color="#F05053"/>
</linearGradient>
<linearGradient id="paint8_linear_265_1161" x1="94.6333" y1="35" x2="100.468" y2="35.2764" gradientUnits="userSpaceOnUse">
<stop stop-color="#FF5F6D"/>
<stop offset="1" stop-color="#FFC371"/>
</linearGradient>
<linearGradient id="paint9_linear_265_1161" x1="130.628" y1="40" x2="136.174" y2="40.1786" gradientUnits="userSpaceOnUse">
<stop stop-color="#F05053"/>
<stop offset="0.477114" stop-color="#EF83A1"/>
<stop offset="0.477379" stop-color="#EF83A1"/>
<stop offset="1" stop-color="#F05053"/>
</linearGradient>
<linearGradient id="paint10_linear_265_1161" x1="124.633" y1="49" x2="130.461" y2="49.3384" gradientUnits="userSpaceOnUse">
<stop stop-color="#FF5F6D"/>
<stop offset="1" stop-color="#FFC371"/>
</linearGradient>
<linearGradient id="paint11_linear_265_1161" x1="160.628" y1="66" x2="166.165" y2="66.2878" gradientUnits="userSpaceOnUse">
<stop stop-color="#F05053"/>
<stop offset="0.477114" stop-color="#EF83A1"/>
<stop offset="0.477379" stop-color="#EF83A1"/>
<stop offset="1" stop-color="#F05053"/>
</linearGradient>
<linearGradient id="paint12_linear_265_1161" x1="154.633" y1="82" x2="160.386" y2="82.7397" gradientUnits="userSpaceOnUse">
<stop stop-color="#FF5F6D"/>
<stop offset="1" stop-color="#FFC371"/>
</linearGradient>
<linearGradient id="paint13_linear_265_1161" x1="190.628" y1="83" x2="196.143" y2="83.4504" gradientUnits="userSpaceOnUse">
<stop stop-color="#F05053"/>
<stop offset="0.477114" stop-color="#EF83A1"/>
<stop offset="0.477379" stop-color="#EF83A1"/>
<stop offset="1" stop-color="#F05053"/>
</linearGradient>
<linearGradient id="paint14_linear_265_1161" x1="184.633" y1="103" x2="189.496" y2="105.188" gradientUnits="userSpaceOnUse">
<stop stop-color="#FF5F6D"/>
<stop offset="1" stop-color="#FFC371"/>
</linearGradient>
</defs>
</svg>
