<svg width="206" height="157" viewBox="0 0 206 157" fill="none" xmlns="http://www.w3.org/2000/svg">
<g filter="url(#filter0_d_1784_2655)">
<rect x="24" y="27.7079" width="153" height="102" rx="12" transform="rotate(-2.88769 24 27.7079)" fill="white" shape-rendering="crispEdges"/>
<rect x="24.5246" y="28.1821" width="152" height="101" rx="11.5" transform="rotate(-2.88769 24.5246 28.1821)" stroke="#F8F7F4" shape-rendering="crispEdges"/>
<path d="M51.2132 62.381L50.7736 53.6648L55.9999 53.4011L56.0471 54.3374L51.8763 54.5478L52.0248 57.493L55.8041 57.3023L55.8513 58.2386L52.0721 58.4293L52.2687 62.3277L51.2132 62.381ZM60.3178 62.0582C59.7276 62.088 59.2027 61.9737 58.7431 61.7153C58.2863 61.4567 57.9203 61.0812 57.6452 60.5887C57.3728 60.0962 57.2196 59.5122 57.1856 58.8369C57.1512 58.156 57.2447 57.5553 57.4659 57.035C57.69 56.5145 58.0162 56.1027 58.4447 55.7995C58.876 55.4961 59.3867 55.3296 59.9768 55.2998C60.567 55.27 61.0905 55.3844 61.5473 55.643C62.0069 55.9014 62.3729 56.2783 62.6454 56.7738C62.9207 57.269 63.0755 57.8572 63.1099 58.5381C63.1439 59.2134 63.0489 59.8098 62.8247 60.3275C62.6033 60.845 62.277 61.2554 61.8457 61.5588C61.4172 61.862 60.9079 62.0285 60.3178 62.0582ZM60.2722 61.156C60.7205 61.1334 61.0836 60.9998 61.3614 60.7554C61.6392 60.511 61.8382 60.198 61.9583 59.8165C62.0785 59.435 62.1275 59.0257 62.1055 58.5888C62.0834 58.1518 61.9934 57.7482 61.8353 57.3778C61.6772 57.0075 61.4476 56.7133 61.1465 56.4952C60.8454 56.2772 60.4706 56.1794 60.0224 56.202C59.5741 56.2247 59.2111 56.3596 58.9334 56.6069C58.6557 56.8541 58.4569 57.1699 58.3369 57.5543C58.2169 57.9387 58.1679 58.3493 58.19 58.7863C58.212 59.2232 58.302 59.6254 58.4599 59.993C58.6178 60.3605 58.8473 60.6518 59.1483 60.8671C59.4493 61.0823 59.8239 61.1786 60.2722 61.156ZM65.3949 52.9272L65.8346 61.6434L64.8302 61.6941L64.3905 52.9779L65.3949 52.9272ZM68.263 52.7826L68.7026 61.4987L67.6982 61.5494L67.2585 52.8332L68.263 52.7826ZM73.2288 61.407C72.6386 61.4367 72.1138 61.3224 71.6541 61.064C71.1973 60.8054 70.8314 60.4299 70.5562 59.9375C70.2839 59.4449 70.1307 58.861 70.0966 58.1857C70.0623 57.5047 70.1557 56.9041 70.377 56.3838C70.601 55.8633 70.9273 55.4514 71.3557 55.1482C71.787 54.8449 72.2977 54.6783 72.8879 54.6485C73.4781 54.6187 74.0015 54.7331 74.4583 54.9917C74.9179 55.2501 75.284 55.6271 75.5564 56.1225C75.8317 56.6178 75.9866 57.2059 76.0209 57.8868C76.055 58.5621 75.9599 59.1586 75.7357 59.6762C75.5143 60.1937 75.188 60.6041 74.7567 60.9075C74.3283 61.2107 73.819 61.3772 73.2288 61.407ZM73.1833 60.5047C73.6316 60.4821 73.9946 60.3486 74.2725 60.1042C74.5503 59.8597 74.7492 59.5468 74.8694 59.1652C74.9895 58.7837 75.0386 58.3744 75.0165 57.9375C74.9945 57.5006 74.9044 57.0969 74.7464 56.7266C74.5883 56.3562 74.3587 56.062 74.0576 55.844C73.7564 55.6259 73.3817 55.5282 72.9334 55.5508C72.4851 55.5734 72.1221 55.7083 71.8445 55.9556C71.5668 56.2028 71.368 56.5187 71.248 56.903C71.128 57.2874 71.079 57.6981 71.101 58.135C71.1231 58.572 71.2131 58.9742 71.371 59.3417C71.5289 59.7092 71.7584 60.0006 72.0594 60.2158C72.3604 60.431 72.735 60.5273 73.1833 60.5047ZM79 60.9793L76.6784 54.5427L77.7339 54.4894L79.3993 59.4231L79.4674 59.4197L80.6109 54.3443L81.6834 54.2902L83.314 59.2086L83.382 59.2052L84.5434 54.1459L85.5989 54.0927L83.9369 60.7303L82.9495 60.7801L81.2662 55.8302L81.164 55.8354L79.9873 60.9295L79 60.9793ZM89.8058 60.5708C89.1759 60.6026 88.6256 60.4909 88.1547 60.2359C87.6866 59.9779 87.3164 59.6041 87.0443 59.1143C86.7748 58.6216 86.6231 58.0404 86.5894 57.3708C86.5556 56.7012 86.6478 56.1049 86.8661 55.5819C87.087 55.0559 87.4102 54.6385 87.8355 54.3297C88.2635 54.018 88.7726 53.8473 89.3627 53.8175C89.7032 53.8003 90.0423 53.8401 90.38 53.9368C90.7177 54.0336 91.0292 54.2028 91.3144 54.4444C91.5995 54.6832 91.8335 55.007 92.0162 55.416C92.199 55.8249 92.3058 56.3343 92.3366 56.9444L92.358 57.37L87.319 57.6241L87.2752 56.7559L91.2928 56.5533C91.2742 56.1844 91.1838 55.859 91.0217 55.5771C90.8624 55.2949 90.6437 55.077 90.3657 54.9232C90.0906 54.7692 89.7714 54.7014 89.4083 54.7197C89.0082 54.7399 88.6671 54.8567 88.3848 55.07C88.1053 55.2804 87.8955 55.547 87.7553 55.8698C87.6151 56.1926 87.5541 56.5342 87.5723 56.8945L87.6015 57.4734C87.6264 57.967 87.7326 58.3813 87.9202 58.716C88.1104 59.0477 88.3633 59.2952 88.6787 59.4585C88.994 59.619 89.3546 59.689 89.7603 59.6685C90.0242 59.6552 90.2606 59.6063 90.4697 59.5218C90.6815 59.4343 90.8616 59.3115 91.0101 59.1532C91.1584 58.9921 91.2694 58.7959 91.3431 58.5647L92.3271 58.7881C92.2416 59.1224 92.0846 59.4204 91.856 59.6823C91.6273 59.9413 91.3391 60.1493 90.9914 60.3062C90.6436 60.4603 90.2484 60.5485 89.8058 60.5708ZM94.0576 60.2198L93.7278 53.6826L94.6982 53.6337L94.748 54.6211L94.8161 54.6176C94.9189 54.2882 95.1213 54.0148 95.4233 53.7977C95.7252 53.5805 96.072 53.462 96.4635 53.4422C96.5373 53.4385 96.6296 53.4353 96.7404 53.4325C96.8512 53.4298 96.9351 53.4298 96.9921 53.4326L97.0436 54.4541C97.0091 54.4473 96.9305 54.4384 96.8076 54.4276C96.6874 54.4137 96.5607 54.4102 96.4273 54.4169C96.1096 54.4329 95.8292 54.5139 95.5862 54.6599C95.346 54.8028 95.1594 54.9943 95.0264 55.2342C94.8961 55.4712 94.8384 55.7373 94.8533 56.0323L95.062 60.1691L94.0576 60.2198ZM102.915 54.687L102.026 54.9878C101.962 54.8403 101.871 54.6984 101.753 54.5621C101.638 54.4229 101.484 54.3112 101.292 54.227C101.1 54.1428 100.858 54.1081 100.566 54.1228C100.166 54.143 99.8369 54.252 99.5795 54.4499C99.3248 54.6448 99.2045 54.8827 99.2187 55.1636C99.2313 55.4133 99.332 55.6059 99.5209 55.7414C99.7098 55.877 99.9996 55.9832 100.39 56.0602L101.373 56.2496C101.964 56.362 102.411 56.5571 102.712 56.8349C103.013 57.1098 103.175 57.4757 103.198 57.9325C103.217 58.307 103.126 58.6473 102.926 58.9532C102.728 59.259 102.442 59.5067 102.067 59.6963C101.693 59.8858 101.252 59.9934 100.744 60.0191C100.077 60.0527 99.5177 59.9358 99.0662 59.6685C98.6147 59.4011 98.3167 58.9923 98.1723 58.442L99.1136 58.1556C99.2222 58.5029 99.4071 58.7581 99.6685 58.9213C99.9328 59.0843 100.271 59.1554 100.682 59.1347C101.15 59.1111 101.517 58.993 101.782 58.7805C102.05 58.565 102.177 58.3169 102.163 58.036C102.151 57.809 102.062 57.6229 101.896 57.4777C101.729 57.3296 101.479 57.2256 101.146 57.1656L100.043 56.9652C99.4376 56.8536 98.9868 56.6559 98.6908 56.3721C98.3976 56.0854 98.2396 55.7164 98.2169 55.2653C98.1983 54.8965 98.2854 54.565 98.4782 54.2708C98.6738 53.9765 98.9477 53.7393 99.2999 53.5594C99.6549 53.3794 100.062 53.2778 100.522 53.2546C101.169 53.222 101.684 53.3382 102.067 53.6033C102.453 53.8683 102.736 54.2295 102.915 54.687ZM108.973 50.729L109.413 59.4452L108.357 59.4985L107.917 50.7823L108.973 50.729ZM112.223 55.361L112.421 59.2935L111.417 59.3441L111.087 52.807L112.057 52.7581L112.109 53.7795L112.194 53.7752C112.33 53.4355 112.55 53.1571 112.852 52.9399C113.153 52.7198 113.551 52.5974 114.045 52.5725C114.487 52.5501 114.879 52.6214 115.22 52.7862C115.561 52.9482 115.833 53.2076 116.036 53.5643C116.239 53.9182 116.354 54.3732 116.382 54.9293L116.592 59.0831L115.587 59.1338L115.381 55.048C115.355 54.5345 115.202 54.1412 114.921 53.868C114.639 53.5921 114.266 53.4659 113.801 53.4893C113.48 53.5055 113.197 53.5895 112.952 53.7412C112.709 53.8929 112.522 54.1057 112.391 54.3797C112.26 54.6537 112.204 54.9808 112.223 55.361ZM120.927 59.001C120.382 59.0285 119.894 58.9151 119.463 58.6609C119.032 58.4039 118.686 58.0288 118.425 57.5357C118.164 57.0397 118.016 56.4455 117.981 55.7532C117.946 55.0666 118.034 54.4648 118.244 53.9479C118.454 53.431 118.762 53.0243 119.168 52.7279C119.574 52.4315 120.052 52.2694 120.603 52.2417C121.028 52.2202 121.368 52.2742 121.622 52.4036C121.879 52.53 122.077 52.6793 122.216 52.8515C122.359 53.0207 122.47 53.1601 122.549 53.2699L122.634 53.2656L122.472 50.0481L123.476 49.9975L123.916 58.7137L122.946 58.7626L122.895 57.7582L122.776 57.7642C122.708 57.8871 122.611 58.0428 122.484 58.2312C122.356 58.4168 122.17 58.587 121.925 58.7416C121.679 58.8933 121.346 58.9798 120.927 59.001ZM121.017 58.0918C121.42 58.0715 121.755 57.9494 122.023 57.7254C122.29 57.4986 122.487 57.1942 122.612 56.8124C122.738 56.4278 122.789 55.9886 122.764 55.4949C122.739 55.0069 122.647 54.5834 122.486 54.2246C122.326 53.8629 122.101 53.5869 121.813 53.3967C121.524 53.2036 121.176 53.1173 120.767 53.1379C120.342 53.1594 119.993 53.2865 119.72 53.5193C119.45 53.7491 119.253 54.0534 119.13 54.4323C119.01 54.8081 118.961 55.2259 118.984 55.6855C119.008 56.1508 119.1 56.57 119.261 56.9431C119.425 57.3131 119.653 57.6031 119.945 57.8131C120.24 58.0201 120.597 58.113 121.017 58.0918ZM128.667 58.6106C128.037 58.6423 127.486 58.5307 127.016 58.2757C126.547 58.0177 126.177 57.6438 125.905 57.1541C125.636 56.6613 125.484 56.0802 125.45 55.4106C125.416 54.741 125.509 54.1447 125.727 53.6216C125.948 53.0956 126.271 52.6783 126.696 52.3695C127.124 52.0578 127.633 51.887 128.224 51.8573C128.564 51.8401 128.903 51.8799 129.241 51.9766C129.578 52.0734 129.89 52.2425 130.175 52.4842C130.46 52.7229 130.694 53.0468 130.877 53.4557C131.06 53.8646 131.167 54.3741 131.197 54.9841L131.219 55.4097L126.18 55.6639L126.136 54.7957L130.154 54.593C130.135 54.2242 130.045 53.8988 129.882 53.6168C129.723 53.3347 129.505 53.1168 129.227 52.963C128.951 52.809 128.632 52.7412 128.269 52.7595C127.869 52.7797 127.528 52.8965 127.246 53.1098C126.966 53.3202 126.756 53.5868 126.616 53.9096C126.476 54.2324 126.415 54.574 126.433 54.9343L126.462 55.5131C126.487 56.0068 126.593 56.421 126.781 56.7558C126.971 57.0875 127.224 57.335 127.54 57.4983C127.855 57.6588 128.215 57.7288 128.621 57.7083C128.885 57.695 129.121 57.6461 129.33 57.5616C129.542 57.4741 129.722 57.3512 129.871 57.193C130.019 57.0319 130.13 56.8357 130.204 56.6044L131.188 56.8279C131.102 57.1621 130.945 57.4602 130.717 57.7221C130.488 57.9811 130.2 58.189 129.852 58.3459C129.504 58.5 129.109 58.5882 128.667 58.6106ZM133.162 51.6935L134.863 54.2872L136.294 51.5355L137.452 51.4771L135.506 54.8521L137.782 58.0142L136.624 58.0726L134.93 55.6151L133.492 58.2306L132.334 58.289L134.246 54.9157L132.004 51.7519L133.162 51.6935Z" fill="#71717A"/>
<path d="M143.962 53.6974C143.992 54.2876 144.137 54.8662 144.391 55.4C144.644 55.9339 145 56.4127 145.438 56.809C145.877 57.2052 146.389 57.5113 146.946 57.7096C147.502 57.908 148.093 57.9948 148.683 57.965C149.273 57.9352 149.852 57.7895 150.385 57.5361C150.919 57.2828 151.398 56.9267 151.794 56.4883C152.191 56.05 152.497 55.5378 152.695 54.9812C152.893 54.4245 152.98 53.8342 152.95 53.244C152.89 52.052 152.359 50.9328 151.474 50.1325C150.588 49.3321 149.421 48.9163 148.229 48.9764C147.037 49.0365 145.918 49.5677 145.118 50.4531C144.318 51.3384 143.902 52.5055 143.962 53.6974Z" stroke="#71717A" stroke-linecap="round" stroke-linejoin="round"/>
<path d="M148.38 51.9726L148.385 51.9723" stroke="#71717A" stroke-linecap="round" stroke-linejoin="round"/>
<path d="M147.957 53.4958L148.456 53.4707L148.557 55.4681L149.056 55.4429" stroke="#71717A" stroke-linecap="round" stroke-linejoin="round"/>
<path d="M83.5087 81.9834C84.1064 81.9532 84.6865 82.0245 85.2489 82.1971C85.8152 82.3696 86.3269 82.6642 86.784 83.0811C87.245 83.4978 87.6206 84.063 87.9107 84.7765C88.2044 85.4861 88.3796 86.3667 88.4365 87.4182C88.4863 88.4055 88.4191 89.2926 88.235 90.0794C88.0546 90.8622 87.7718 91.5345 87.3867 92.0963C87.0016 92.6581 86.525 93.0955 85.9567 93.4087C85.3882 93.718 84.7446 93.8908 84.0258 93.927C83.2503 93.9662 82.558 93.8513 81.949 93.5824C81.3398 93.3097 80.8405 92.9234 80.4512 92.4234C80.0655 91.9195 79.8184 91.3441 79.7099 90.6972L82.1329 90.575C82.2489 90.9939 82.4641 91.313 82.7786 91.5323C83.0929 91.7478 83.4732 91.8443 83.9196 91.8218C84.6762 91.7836 85.2347 91.4255 85.5949 90.7474C85.9549 90.0655 86.1078 89.1494 86.0536 87.9992L85.9742 88.0032C85.8173 88.3524 85.5976 88.6575 85.3149 88.9182C85.032 89.1752 84.7029 89.3796 84.3275 89.5313C83.9558 89.6828 83.5563 89.7693 83.1288 89.7908C82.4441 89.8254 81.825 89.6954 81.2716 89.401C80.7182 89.1065 80.2721 88.6852 79.9335 88.1372C79.5948 87.5892 79.4073 86.9539 79.3708 86.2313C79.3277 85.4522 79.4724 84.7489 79.8049 84.1216C80.1373 83.4942 80.6202 82.9919 81.2535 82.6148C81.8904 82.2338 82.6422 82.0233 83.5087 81.9834ZM83.623 83.9119C83.2409 83.9312 82.905 84.0391 82.6153 84.2358C82.3294 84.4323 82.1072 84.6881 81.9486 85.0033C81.7938 85.3183 81.7279 85.6649 81.7507 86.043C81.77 86.4251 81.8706 86.7652 82.0525 87.0632C82.238 87.3572 82.481 87.5877 82.7815 87.7546C83.0855 87.9175 83.4267 87.9895 83.805 87.9704C84.0887 87.9561 84.349 87.8898 84.5857 87.7717C84.8225 87.6536 85.0251 87.4973 85.1936 87.303C85.3656 87.1047 85.4965 86.88 85.5863 86.6289C85.676 86.3779 85.7139 86.1143 85.7 85.8381C85.6777 85.4713 85.5737 85.139 85.388 84.8412C85.2023 84.5434 84.9553 84.3093 84.6471 84.139C84.3389 83.9687 83.9975 83.893 83.623 83.9119ZM92.5808 91.7433L92.5499 92.3706C92.5259 92.8725 92.4564 93.3747 92.3414 93.8774C92.2304 94.3836 92.1095 94.8429 91.9786 95.2554C91.8515 95.6676 91.7483 95.9914 91.6692 96.2267L90.103 96.3057C90.1485 96.0797 90.2103 95.7636 90.2884 95.3577C90.3667 94.9555 90.4369 94.5044 90.4989 94.0044C90.5609 93.5045 90.5903 92.9967 90.587 92.481L90.5834 91.844L92.5808 91.7433ZM94.8805 93.2202L94.7912 91.4497L98.7348 87.4107C99.0694 87.0525 99.349 86.7312 99.5736 86.4468C99.802 86.1622 99.972 85.8862 100.084 85.6189C100.195 85.3478 100.243 85.059 100.228 84.7526C100.211 84.4121 100.118 84.1228 99.9507 83.8847C99.783 83.6429 99.5615 83.4625 99.2862 83.3437C99.0108 83.221 98.7028 83.1683 98.3623 83.1855C98.0067 83.2034 97.7001 83.2909 97.4426 83.448C97.185 83.6052 96.9911 83.8216 96.8609 84.0975C96.7307 84.3733 96.6749 84.6966 96.6937 85.0674L94.3614 85.185C94.323 84.4246 94.4619 83.7558 94.7779 83.1785C95.0939 82.6013 95.5544 82.1438 96.1594 81.8061C96.7643 81.4683 97.4716 81.2791 98.2812 81.2382C99.1134 81.1962 99.8453 81.3072 100.477 81.5712C101.112 81.8312 101.615 82.2117 101.985 82.7126C102.356 83.2135 102.558 83.7988 102.591 84.4684C102.614 84.9072 102.548 85.3447 102.396 85.781C102.247 86.2171 101.967 86.7072 101.554 87.2514C101.141 87.7918 100.554 88.4454 99.7927 89.212L98.1799 90.9602L98.1839 91.0397L103.064 90.7935L103.165 92.8023L94.8805 93.2202ZM109.547 92.7364C108.571 92.7818 107.719 92.584 106.991 92.1428C106.268 91.7014 105.694 91.0382 105.27 90.1531C104.85 89.2679 104.609 88.1896 104.549 86.9183C104.485 85.651 104.618 84.5615 104.947 83.6498C105.281 82.7379 105.785 82.0316 106.462 81.531C107.142 81.0264 107.968 80.7496 108.94 80.7005C109.912 80.6515 110.76 80.8439 111.484 81.2777C112.211 81.7113 112.787 82.365 113.21 83.2387C113.633 84.1086 113.875 85.1773 113.935 86.4449C113.999 87.7198 113.865 88.8188 113.532 89.7421C113.203 90.6651 112.701 91.3826 112.025 91.8946C111.349 92.4065 110.523 92.6872 109.547 92.7364ZM109.445 90.6992C110.11 90.6656 110.625 90.304 110.988 89.6144C111.352 88.9247 111.498 87.9104 111.427 86.5714C111.382 85.6899 111.254 84.9606 111.043 84.3834C110.836 83.806 110.56 83.378 110.216 83.0995C109.876 82.8209 109.484 82.6927 109.042 82.715C108.38 82.7484 107.867 83.1062 107.503 83.7882C107.139 84.4703 106.989 85.4716 107.052 86.7921C107.097 87.6849 107.223 88.4257 107.431 89.0144C107.643 89.5992 107.92 90.0327 108.265 90.315C108.609 90.5935 109.002 90.7215 109.445 90.6992ZM122.263 89.6544L122.232 89.0415C122.208 88.5762 122.285 88.1438 122.462 87.7442C122.643 87.3406 122.916 87.012 123.283 86.7584C123.653 86.5008 124.112 86.3582 124.661 86.3305C125.217 86.3024 125.69 86.3962 126.08 86.6116C126.474 86.8269 126.777 87.1264 126.99 87.5101C127.207 87.8898 127.327 88.3142 127.35 88.7833L127.381 89.3962C127.405 89.8615 127.328 90.2959 127.151 90.6992C126.974 91.0988 126.7 91.4255 126.33 91.6793C125.96 91.9369 125.501 92.0796 124.952 92.1072C124.396 92.1353 123.923 92.0397 123.533 91.8204C123.142 91.605 122.839 91.3074 122.623 90.9276C122.406 90.5441 122.286 90.1197 122.263 89.6544ZM123.883 88.9582L123.914 89.5711C123.928 89.8397 124.005 90.0899 124.145 90.3218C124.29 90.5534 124.534 90.6606 124.878 90.6432C125.223 90.6258 125.451 90.4967 125.564 90.2559C125.681 90.0148 125.732 89.7562 125.719 89.4801L125.688 88.8672C125.674 88.5911 125.6 88.3369 125.467 88.1046C125.334 87.8724 125.09 87.7653 124.734 87.7832C124.394 87.8004 124.163 87.9315 124.043 88.1765C123.922 88.4215 123.869 88.6821 123.883 88.9582ZM115.963 83.3046L115.932 82.6917C115.909 82.2226 115.987 81.7882 116.168 81.3884C116.349 80.9849 116.622 80.6563 116.989 80.4027C117.359 80.1488 117.815 80.0083 118.356 79.981C118.916 79.9527 119.391 80.0464 119.781 80.2618C120.171 80.4773 120.474 80.7768 120.691 81.1603C120.907 81.54 121.027 81.9644 121.051 82.4336L121.082 83.0464C121.105 83.5155 121.027 83.9499 120.846 84.3497C120.669 84.7493 120.395 85.076 120.025 85.3298C119.658 85.5797 119.199 85.7185 118.646 85.7464C118.094 85.7742 117.621 85.6805 117.227 85.4653C116.837 85.246 116.533 84.9484 116.317 84.5725C116.105 84.1925 115.987 83.7699 115.963 83.3046ZM117.595 82.6079L117.626 83.2207C117.64 83.4969 117.717 83.749 117.857 83.9771C118.002 84.2049 118.24 84.3105 118.573 84.2937C118.921 84.2761 119.152 84.1469 119.265 83.9061C119.382 83.665 119.433 83.4064 119.419 83.1303L119.388 82.5174C119.374 82.2413 119.301 81.9871 119.168 81.7548C119.035 81.5226 118.788 81.4156 118.429 81.4337C118.092 81.4507 117.866 81.5835 117.749 81.8321C117.633 82.0807 117.581 82.3393 117.595 82.6079ZM117.158 92.0965L124.561 80.0719L126.048 79.9969L118.644 92.0215L117.158 92.0965Z" fill="#0D0C22"/>
</g>
<defs>
<filter id="filter0_d_1784_2655" x="0" y="0" width="205.944" height="157.578" filterUnits="userSpaceOnUse" color-interpolation-filters="sRGB">
<feFlood flood-opacity="0" result="BackgroundImageFix"/>
<feColorMatrix in="SourceAlpha" type="matrix" values="0 0 0 0 0 0 0 0 0 0 0 0 0 0 0 0 0 0 127 0" result="hardAlpha"/>
<feOffset dy="4"/>
<feGaussianBlur stdDeviation="12"/>
<feComposite in2="hardAlpha" operator="out"/>
<feColorMatrix type="matrix" values="0 0 0 0 0.796078 0 0 0 0 0.729412 0 0 0 0 0.690196 0 0 0 0.25 0"/>
<feBlend mode="normal" in2="BackgroundImageFix" result="effect1_dropShadow_1784_2655"/>
<feBlend mode="normal" in="SourceGraphic" in2="effect1_dropShadow_1784_2655" result="shape"/>
</filter>
</defs>
</svg>
