<svg width="456" height="136" viewBox="0 0 456 136" fill="none" xmlns="http://www.w3.org/2000/svg">
<path d="M0 94.5865V5.11278H57.5877V18.406H14.1031V81.2932H57.5877V94.5865H0ZM6.39863 55.3459V42.0526H36.9553L50.4055 55.3459H6.39863Z" fill="#ED7380"/>
<path d="M122.391 94.5865L100.192 66.3383L98.233 63.9098L69.3739 27.4812H86.3499L108.157 55.3459L110.377 58.1579L138.845 94.5865H122.391ZM69.5045 94.5865L96.5354 60.0752L104.501 69.406L85.4358 94.5865H69.5045ZM111.161 62.1203L103.718 52.9173L120.563 27.4812H136.494L111.161 62.1203Z" fill="#ED7380"/>
<path d="M150.143 136V27.4812H163.724V42.8195L161.635 41.6692C162.157 39.1128 163.637 36.6842 166.075 34.3835C168.512 31.9975 171.472 30.0802 174.954 28.6316C178.524 27.0977 182.18 26.3308 185.923 26.3308C192.104 26.3308 197.589 27.8221 202.377 30.8045C207.165 33.787 210.952 37.8772 213.738 43.0752C216.524 48.2732 217.917 54.2381 217.917 60.9699C217.917 67.6165 216.524 73.5815 213.738 78.8647C211.039 84.0627 207.296 88.1955 202.508 91.2632C197.72 94.2456 192.322 95.7368 186.315 95.7368C182.311 95.7368 178.437 94.9699 174.693 93.4361C170.95 91.817 167.772 89.7719 165.161 87.3008C162.549 84.8296 160.938 82.2732 160.329 79.6316L163.724 77.8421V122.451L150.143 136ZM184.095 83.594C188.1 83.594 191.669 82.614 194.803 80.6541C197.937 78.6942 200.418 76.01 202.246 72.6015C204.075 69.193 204.989 65.3158 204.989 60.9699C204.989 56.6241 204.075 52.7895 202.246 49.4662C200.505 46.0576 198.068 43.3734 194.934 41.4135C191.8 39.4536 188.187 38.4737 184.095 38.4737C180.004 38.4737 176.391 39.4536 173.257 41.4135C170.123 43.2882 167.642 45.9298 165.813 49.3383C163.985 52.7469 163.071 56.6241 163.071 60.9699C163.071 65.3158 163.985 69.193 165.813 72.6015C167.642 76.01 170.123 78.6942 173.257 80.6541C176.391 82.614 180.004 83.594 184.095 83.594Z" fill="#ED7380"/>
<path d="M232.785 94.5865V0L246.235 13.1654V94.5865H232.785Z" fill="#ED7380"/>
<path d="M294.84 95.8647C288.137 95.8647 282.13 94.3734 276.819 91.391C271.596 88.3233 267.461 84.1905 264.414 78.9925C261.367 73.7093 259.843 67.7018 259.843 60.9699C259.843 54.2381 261.367 48.2732 264.414 43.0752C267.461 37.792 271.596 33.6591 276.819 30.6767C282.13 27.609 288.137 26.0752 294.84 26.0752C301.456 26.0752 307.376 27.609 312.599 30.6767C317.91 33.6591 322.088 37.792 325.135 43.0752C328.182 48.2732 329.706 54.2381 329.706 60.9699C329.706 67.7018 328.182 73.7093 325.135 78.9925C322.088 84.1905 317.91 88.3233 312.599 91.391C307.376 94.3734 301.456 95.8647 294.84 95.8647ZM294.84 83.8496C298.932 83.8496 302.588 82.8697 305.809 80.9098C309.03 78.8647 311.555 76.1378 313.383 72.7293C315.211 69.2356 316.082 65.3158 315.995 60.9699C316.082 56.5388 315.211 52.619 313.383 49.2105C311.555 45.7168 309.03 42.99 305.809 41.0301C302.588 39.0702 298.932 38.0902 294.84 38.0902C290.748 38.0902 287.048 39.1128 283.74 41.1579C280.519 43.1178 277.995 45.8446 276.166 49.3383C274.338 52.7469 273.468 56.6241 273.555 60.9699C273.468 65.3158 274.338 69.2356 276.166 72.7293C277.995 76.1378 280.519 78.8647 283.74 80.9098C287.048 82.8697 290.748 83.8496 294.84 83.8496Z" fill="#ED7380"/>
<path d="M344.362 94.5865V27.4812H357.943V48.5714L356.637 43.4586C357.595 40.2206 359.205 37.2807 361.468 34.6391C363.819 31.9975 366.474 29.9098 369.434 28.3759C372.481 26.8421 375.615 26.0752 378.836 26.0752C380.316 26.0752 381.709 26.203 383.015 26.4586C384.408 26.7143 385.496 27.0125 386.28 27.3534L382.754 41.6692C381.709 41.2431 380.534 40.9023 379.228 40.6466C378.009 40.3058 376.79 40.1353 375.572 40.1353C373.221 40.1353 370.958 40.604 368.781 41.5414C366.692 42.3935 364.82 43.6291 363.166 45.2481C361.599 46.782 360.337 48.614 359.379 50.7444C358.422 52.7895 357.943 55.0476 357.943 57.5188V82.188L344.362 94.5865Z" fill="#ED7380"/>
<path d="M426.089 95.8647C419.038 95.8647 412.77 94.416 407.285 91.5188C401.888 88.5363 397.622 84.4887 394.488 79.3759C391.441 74.2632 389.918 68.3835 389.918 61.7368C389.918 56.4536 390.788 51.6391 392.529 47.2932C394.27 42.9474 396.664 39.198 399.711 36.0451C402.845 32.807 406.545 30.3358 410.811 28.6316C415.164 26.8421 419.865 25.9474 424.914 25.9474C429.354 25.9474 433.489 26.7995 437.32 28.5038C441.15 30.1228 444.458 32.381 447.244 35.2782C450.117 38.1754 452.293 41.6266 453.773 45.6316C455.34 49.5514 456.08 53.8546 455.993 58.5414L455.863 64.1654H399.842L396.838 53.6842H444.241L442.282 55.8571V52.7895C442.021 49.9774 441.063 47.4637 439.409 45.2481C437.755 43.0326 435.666 41.2857 433.141 40.0075C430.616 38.7293 427.874 38.0902 424.914 38.0902C420.213 38.0902 416.252 38.985 413.031 40.7744C409.81 42.4787 407.372 45.0351 405.718 48.4436C404.064 51.7669 403.237 55.8998 403.237 60.8421C403.237 65.5288 404.238 69.6191 406.241 73.1128C408.243 76.5213 411.072 79.1629 414.729 81.0376C418.385 82.9123 422.607 83.8496 427.395 83.8496C430.79 83.8496 433.924 83.2957 436.797 82.188C439.757 81.0802 442.935 79.0777 446.33 76.1805L453.12 85.5113C451.031 87.5564 448.463 89.3459 445.416 90.8797C442.456 92.4135 439.278 93.6491 435.883 94.5865C432.575 95.4386 429.31 95.8647 426.089 95.8647Z" fill="#ED7380"/>
</svg>
