<svg width="240" height="228" viewBox="0 0 240 228" fill="none" xmlns="http://www.w3.org/2000/svg">
<path d="M15.8993 25.5543L15.314 14.3696L22.2565 14.0064L22.3435 15.6681L17.0627 15.9444L17.204 18.6447L21.4542 18.4223L21.5411 20.0841L17.2909 20.3064L17.474 23.8057L22.7548 23.5293L22.8418 25.1911L15.8993 25.5543ZM31.6939 19.705L31.956 24.7142L30.2943 24.8011L30.0535 20.1994C30.0349 19.8426 29.93 19.5223 29.7389 19.2385C29.5531 18.9545 29.3093 18.735 29.0075 18.5798C28.7107 18.4191 28.3812 18.3483 28.019 18.3672C27.6675 18.3856 27.3499 18.4903 27.0661 18.6814C26.7821 18.8672 26.5599 19.1111 26.3995 19.4133C26.239 19.7154 26.1681 20.0449 26.1868 20.4017L26.4276 25.0034L24.7659 25.0904L24.3478 17.1013L26.0096 17.0144L26.0539 17.8612C26.3136 17.5165 26.6408 17.2377 27.0355 17.0248C27.4303 16.8118 27.862 16.6931 28.3307 16.6686C28.9219 16.6377 29.4673 16.7533 29.967 17.0156C30.4668 17.2778 30.8704 17.6439 31.1781 18.1138C31.4911 18.5834 31.663 19.1138 31.6939 19.705ZM39.2161 16.3233L40.8779 16.2364L41.3068 24.4332C41.3355 24.9817 41.2448 25.4938 41.0347 25.9695C40.8299 26.4448 40.5392 26.8606 40.1627 27.2167C39.7864 27.5782 39.3474 27.8656 38.8459 28.0787C38.3497 28.2916 37.8246 28.4126 37.2707 28.4415C36.7115 28.4708 36.1673 28.3791 35.6381 28.1665C35.1092 27.9592 34.6371 27.6634 34.2218 27.2793C33.8118 26.8948 33.4976 26.452 33.2791 25.9507L34.7691 25.1838C34.8929 25.5084 35.0786 25.7925 35.3263 26.0358C35.5794 26.279 35.8669 26.4669 36.189 26.5995C36.5163 26.732 36.8478 26.7894 37.1833 26.7718C37.5135 26.7545 37.8277 26.6847 38.1257 26.5623C38.4293 26.4449 38.6961 26.2868 38.926 26.0878C39.1612 25.8886 39.3439 25.6547 39.4741 25.3862C39.6042 25.1177 39.6612 24.829 39.645 24.5201L39.5744 23.17C39.3346 23.5884 39.0162 23.9335 38.6192 24.2053C38.2219 24.4717 37.7516 24.6192 37.2084 24.6476C36.6438 24.6771 36.1055 24.5958 35.5934 24.4037C35.0813 24.2115 34.6262 23.9336 34.228 23.5699C33.8295 23.2009 33.5105 22.7689 33.271 22.2741C33.0314 21.7793 32.8965 21.2416 32.8661 20.6611C32.8357 20.0805 32.9138 19.5317 33.1004 19.0146C33.2867 18.4921 33.5589 18.0293 33.917 17.626C34.2748 17.2174 34.6983 16.8908 35.1875 16.6463C35.6767 16.4017 36.2036 16.2647 36.7682 16.2351C37.3114 16.2067 37.7947 16.3069 38.2179 16.5358C38.6408 16.7593 38.9935 17.0693 39.2759 17.4658L39.2161 16.3233ZM37.1403 23.041C37.6037 23.0167 38.0023 22.8784 38.3363 22.6259C38.6699 22.3681 38.9223 22.0371 39.0934 21.633C39.2645 21.2288 39.3378 20.7924 39.3133 20.3237C39.2882 19.8444 39.167 19.4154 38.9496 19.037C38.7372 18.6529 38.4518 18.3527 38.0933 18.1365C37.7346 17.9149 37.3262 17.8161 36.8682 17.8401C36.4208 17.8635 36.0168 18.0021 35.6563 18.256C35.301 18.5096 35.0245 18.8391 34.8268 19.2447C34.629 19.6502 34.5427 20.0927 34.5678 20.572C34.5929 21.0514 34.7249 21.4824 34.9639 21.8651C35.2082 22.2475 35.5203 22.5463 35.9 22.7614C36.2848 22.9709 36.6983 23.0641 37.1403 23.041ZM49.03 15.8098L50.6917 15.7229L51.1097 23.7119L49.44 23.7993L49.3155 22.6442C49.1026 23.0666 48.803 23.4134 48.4166 23.6846C48.0303 23.9558 47.5654 24.1057 47.0222 24.1341C46.4363 24.1647 45.8794 24.0844 45.3513 23.8931C44.823 23.6964 44.3514 23.4113 43.9367 23.0378C43.5273 22.664 43.2 22.2272 42.9549 21.7273C42.7095 21.2221 42.5713 20.6739 42.5404 20.0828C42.5106 19.5129 42.5891 18.972 42.7759 18.4602C42.9625 17.9431 43.2349 17.4856 43.5933 17.0876C43.9517 16.6897 44.3729 16.3713 44.8571 16.1323C45.3463 15.8877 45.8759 15.7505 46.4458 15.7207C47.0263 15.6903 47.5446 15.7967 48.0006 16.0399C48.4616 16.2775 48.8493 16.5936 49.1637 16.9884L49.03 15.8098ZM46.8982 22.5304C47.3669 22.5059 47.771 22.3699 48.1106 22.1225C48.4498 21.8697 48.705 21.5413 48.8761 21.1371C49.0526 20.7327 49.1282 20.2908 49.1032 19.8114C49.0778 19.3268 48.9563 18.8925 48.7386 18.5087C48.5209 18.1249 48.2303 17.8277 47.8668 17.6171C47.5083 17.4008 47.0948 17.305 46.6261 17.3295C46.1627 17.3537 45.7454 17.4931 45.3742 17.7475C45.003 18.0019 44.7159 18.332 44.5128 18.7378C44.3097 19.1437 44.2207 19.5863 44.2458 20.0656C44.2712 20.5503 44.4087 20.9837 44.6583 21.3658C44.913 21.7424 45.2356 22.0379 45.626 22.2525C46.0214 22.4614 46.4455 22.5541 46.8982 22.5304ZM58.3693 15.3211L60.031 15.2342L60.4599 23.431C60.4886 23.9795 60.3979 24.4916 60.1878 24.9673C59.9831 25.4426 59.6924 25.8584 59.3158 26.2145C58.9395 26.576 58.5006 26.8634 57.9991 27.0765C57.5028 27.2894 56.9778 27.4103 56.4239 27.4393C55.8646 27.4686 55.3204 27.3769 54.7913 27.1643C54.2624 26.957 53.7903 26.6612 53.375 26.2771C52.965 25.8926 52.6508 25.4498 52.4323 24.9485L53.9222 24.1816C54.046 24.5062 54.2318 24.7903 54.4795 25.0336C54.7326 25.2768 55.0201 25.4647 55.3421 25.5973C55.6695 25.7297 56.001 25.7872 56.3365 25.7696C56.6667 25.7523 56.9808 25.6825 57.2788 25.5601C57.5825 25.4427 57.8492 25.2846 58.0791 25.0856C58.3144 24.8864 58.4971 24.6525 58.6272 24.384C58.7574 24.1155 58.8144 23.8268 58.7982 23.5179L58.7276 22.1678C58.4878 22.5862 58.1694 22.9313 57.7724 23.2031C57.3751 23.4695 56.9048 23.617 56.3615 23.6454C55.797 23.6749 55.2587 23.5936 54.7466 23.4015C54.2345 23.2093 53.7794 22.9314 53.3812 22.5677C52.9827 22.1987 52.6637 21.7667 52.4241 21.2719C52.1846 20.7771 52.0497 20.2394 52.0193 19.6589C51.9889 19.0783 52.067 18.5295 52.2536 18.0124C52.4399 17.4899 52.7121 17.0271 53.0701 16.6238C53.4279 16.2152 53.8515 15.8886 54.3407 15.6441C54.8299 15.3995 55.3568 15.2625 55.9214 15.2329C56.4646 15.2045 56.9478 15.3047 57.371 15.5336C57.794 15.7571 58.1466 16.0671 58.4291 16.4636L58.3693 15.3211ZM56.2935 22.0388C56.7569 22.0145 57.1555 21.8762 57.4894 21.6237C57.8231 21.3659 58.0755 21.0349 58.2466 20.6308C58.4177 20.2266 58.491 19.7902 58.4665 19.3215C58.4414 18.8422 58.3201 18.4132 58.1027 18.0348C57.8904 17.6507 57.605 17.3505 57.2465 17.1343C56.8878 16.9127 56.4794 16.8139 56.0214 16.8379C55.574 16.8613 55.17 16.9999 54.8094 17.2538C54.4542 17.5074 54.1777 17.8369 53.98 18.2425C53.7822 18.648 53.6959 19.0905 53.721 19.5698C53.746 20.0492 53.8781 20.4802 54.1171 20.8629C54.3614 21.2453 54.6734 21.5441 55.0532 21.7592C55.438 21.9687 55.8514 22.0619 56.2935 22.0388ZM65.9117 23.1457C65.1767 23.1841 64.4958 23.0302 63.8688 22.6838C63.2472 22.3372 62.7387 21.8564 62.3434 21.2415C61.9531 20.6211 61.7377 19.9247 61.6973 19.1525C61.6666 18.5666 61.7419 18.0152 61.9232 17.4984C62.1041 16.9762 62.3657 16.5139 62.7078 16.1115C63.0549 15.7035 63.4651 15.3776 63.9384 15.1339C64.4116 14.8901 64.9225 14.7539 65.4711 14.7252C66.0836 14.6932 66.6522 14.7916 67.1769 15.0205C67.7013 15.244 68.1563 15.5701 68.5418 15.9985C68.9271 16.4216 69.2202 16.919 69.421 17.4906C69.6215 18.0569 69.7042 18.6667 69.669 19.3201L63.5094 19.6424C63.5979 20.0063 63.7484 20.3322 63.9611 20.6202C64.1788 20.9025 64.4466 21.1208 64.7644 21.2751C65.0876 21.4291 65.441 21.4987 65.8248 21.484C66.2296 21.4628 66.5918 21.3424 66.9114 21.1227C67.2363 20.9027 67.496 20.6088 67.6904 20.2408L69.3965 20.544C69.114 21.2691 68.6624 21.8749 68.0416 22.3613C67.4206 22.8424 66.7106 23.1039 65.9117 23.1457ZM63.387 18.3751L67.9248 18.1377C67.8515 17.757 67.6975 17.4179 67.463 17.1204C67.2335 16.8173 66.9516 16.5837 66.6172 16.4196C66.2879 16.2499 65.9315 16.1751 65.548 16.1952C65.1699 16.215 64.8231 16.3239 64.5077 16.522C64.1976 16.7198 63.9443 16.9814 63.7477 17.3068C63.5561 17.6266 63.4359 17.9827 63.387 18.3751ZM71.3303 22.6539L70.9123 14.6648L72.574 14.5779L72.6183 15.4247C72.878 15.08 73.2025 14.8013 73.592 14.5887C73.9867 14.3758 74.4184 14.257 74.8871 14.2325C75.457 14.2027 75.9889 14.3137 76.4827 14.5656C76.9763 14.8121 77.376 15.1544 77.682 15.5923C77.9406 15.1248 78.2971 14.743 78.7516 14.4469C79.2111 14.1451 79.7258 13.9793 80.2957 13.9495C80.8869 13.9186 81.4324 14.0342 81.9321 14.2965C82.4318 14.5587 82.8381 14.9246 83.1511 15.3943C83.4641 15.8639 83.636 16.3943 83.667 16.9855L83.9291 21.9946L82.2673 22.0816L82.0274 17.4959C82.009 17.1443 81.9069 16.8266 81.7212 16.5426C81.5354 16.2585 81.294 16.0335 80.9969 15.8675C80.6998 15.7014 80.3755 15.6276 80.024 15.646C79.6725 15.6644 79.3574 15.7664 79.0787 15.9518C78.8 16.1373 78.5831 16.381 78.428 16.6828C78.2729 16.9847 78.2051 17.322 78.2246 17.6948L78.4645 22.2806L76.8028 22.3675L76.5629 17.7818C76.5434 17.409 76.4407 17.0806 76.255 16.7965C76.0692 16.5125 75.8254 16.293 75.5235 16.1379C75.227 15.9825 74.903 15.914 74.5515 15.9324C74.2053 15.9505 73.8905 16.0578 73.607 16.2542C73.3289 16.4503 73.1123 16.6993 72.9571 17.0011C72.802 17.303 72.7337 17.6297 72.7521 17.9812L72.992 22.5669L71.3303 22.6539ZM89.0594 21.9345C88.3244 21.9729 87.6435 21.819 87.0165 21.4726C86.3949 21.1259 85.8864 20.6452 85.4911 20.0303C85.1008 19.4099 84.8854 18.7135 84.845 17.9412C84.8144 17.3554 84.8897 16.804 85.0709 16.2872C85.2519 15.765 85.5134 15.3027 85.8555 14.9003C86.2026 14.4923 86.6128 14.1664 87.0861 13.9226C87.5593 13.6789 88.0702 13.5427 88.6188 13.514C89.2313 13.4819 89.7999 13.5804 90.3246 13.8093C90.849 14.0328 91.304 14.3588 91.6896 14.7873C92.0749 15.2104 92.3679 15.7078 92.5687 16.2794C92.7693 16.8457 92.8519 17.4555 92.8167 18.1089L86.6571 18.4312C86.7456 18.7951 86.8961 19.121 87.1088 19.409C87.3265 19.6913 87.5943 19.9096 87.9121 20.0639C88.2353 20.2179 88.5887 20.2875 88.9725 20.2727C89.3773 20.2516 89.7395 20.1311 90.0591 19.9115C90.384 19.6915 90.6437 19.3976 90.8381 19.0296L92.5442 19.3328C92.2618 20.0579 91.8101 20.6637 91.1894 21.1501C90.5683 21.6312 89.8583 21.8927 89.0594 21.9345ZM86.5347 17.1639L91.0725 16.9264C90.9992 16.5458 90.8452 16.2067 90.6107 15.9092C90.3812 15.6061 90.0993 15.3725 89.7649 15.2084C89.4356 15.0387 89.0792 14.9639 88.6957 14.984C88.3176 15.0038 87.9708 15.1127 87.6554 15.3108C87.3453 15.5086 87.092 15.7702 86.8954 16.0956C86.7038 16.4154 86.5836 16.7715 86.5347 17.1639ZM101.406 16.0573L101.668 21.0664L100.006 21.1534L99.7657 16.5517C99.747 16.1948 99.6421 15.8745 99.451 15.5908C99.2653 15.3068 99.0215 15.0872 98.7196 14.9321C98.4228 14.7714 98.0933 14.7005 97.7311 14.7195C97.3796 14.7379 97.062 14.8426 96.7783 15.0337C96.4942 15.2195 96.272 15.4634 96.1116 15.7655C95.9512 16.0677 95.8803 16.3972 95.8989 16.754L96.1397 21.3557L94.478 21.4427L94.06 13.4536L95.7217 13.3666L95.766 14.2135C96.0257 13.8688 96.3529 13.59 96.7476 13.377C97.1424 13.1641 97.5741 13.0454 98.0428 13.0209C98.634 12.9899 99.1795 13.1056 99.6792 13.3678C100.179 13.6301 100.583 13.9962 100.89 14.4661C101.203 14.9357 101.375 15.4661 101.406 16.0573ZM107.31 14.4266L105.632 14.5143L105.955 20.8421L104.293 20.9291L103.97 14.6013L102.7 14.6678L102.613 13.006L103.883 12.9396L103.744 10.4314L105.406 10.3445L105.545 12.8526L107.223 12.7648L107.31 14.4266ZM113.229 20.4615L112.644 9.27679L116.758 9.0615C117.366 9.02973 117.919 9.1503 118.42 9.42319C118.92 9.69609 119.324 10.0781 119.633 10.5693C119.947 11.0549 120.12 11.6067 120.152 12.2245C120.18 12.7464 120.106 13.2283 119.932 13.67C119.762 14.1114 119.51 14.4931 119.174 14.8151C118.844 15.1368 118.459 15.376 118.018 15.5325L120.963 20.0568L119.037 20.1576L116.181 15.7809L114.655 15.8607L114.891 20.3745L113.229 20.4615ZM114.568 14.199L116.845 14.0798C117.164 14.0631 117.45 13.968 117.703 13.7946C117.961 13.6209 118.16 13.3968 118.301 13.1225C118.441 12.8481 118.503 12.5431 118.485 12.2076C118.468 11.872 118.375 11.5752 118.206 11.3169C118.038 11.0534 117.816 10.8513 117.542 10.7108C117.272 10.5647 116.978 10.5 116.658 10.5167L114.381 10.6359L114.568 14.199ZM128.065 11.6743L129.727 11.5873L130.145 19.5764L128.475 19.6637L128.35 18.5087C128.138 18.931 127.838 19.2778 127.452 19.5491C127.065 19.8203 126.6 19.9701 126.057 19.9985C125.471 20.0292 124.914 19.9489 124.386 19.7575C123.858 19.5609 123.386 19.2758 122.972 18.9023C122.562 18.5285 122.235 18.0917 121.99 17.5918C121.744 17.0866 121.606 16.5384 121.575 15.9472C121.546 15.3773 121.624 14.8365 121.811 14.3247C121.997 13.8076 122.27 13.35 122.628 12.9521C122.987 12.5542 123.408 12.2357 123.892 11.9967C124.381 11.7522 124.911 11.615 125.481 11.5852C126.061 11.5548 126.58 11.6612 127.036 11.9044C127.497 12.1419 127.884 12.4581 128.199 12.8529L128.065 11.6743ZM125.933 18.3948C126.402 18.3703 126.806 18.2343 127.146 17.9869C127.485 17.7342 127.74 17.4057 127.911 17.0016C128.088 16.5971 128.163 16.1552 128.138 15.6759C128.113 15.1912 127.991 14.757 127.774 14.3732C127.556 13.9894 127.265 13.6921 126.902 13.4815C126.543 13.2653 126.13 13.1694 125.661 13.1939C125.198 13.2182 124.78 13.3575 124.409 13.6119C124.038 13.8663 123.751 14.1965 123.548 14.6023C123.345 15.0081 123.256 15.4507 123.281 15.9301C123.306 16.4147 123.444 16.8481 123.693 17.2303C123.948 17.6068 124.271 17.9024 124.661 18.1169C125.056 18.3259 125.481 18.4185 125.933 18.3948ZM135.786 12.9365L134.108 13.0243L134.431 19.3521L132.77 19.439L132.446 13.1113L131.176 13.1777L131.089 11.516L132.359 11.4495L132.22 8.9414L133.882 8.85444L134.021 11.3626L135.699 11.2748L135.786 12.9365ZM141.046 19.2143C140.311 19.2527 139.63 19.0988 139.003 18.7524C138.381 18.4057 137.873 17.925 137.477 17.3101C137.087 16.6897 136.872 15.9933 136.831 15.221C136.801 14.6352 136.876 14.0838 137.057 13.567C137.238 13.0448 137.5 12.5825 137.842 12.1801C138.189 11.772 138.599 11.4462 139.072 11.2024C139.546 10.9587 140.057 10.8225 140.605 10.7938C141.218 10.7617 141.786 10.8602 142.311 11.089C142.835 11.3126 143.29 11.6386 143.676 12.0671C144.061 12.4902 144.354 12.9875 144.555 13.5592C144.756 14.1255 144.838 14.7353 144.803 15.3887L138.643 15.711C138.732 16.0749 138.883 16.4008 139.095 16.6887C139.313 16.9711 139.581 17.1894 139.898 17.3437C140.222 17.4976 140.575 17.5673 140.959 17.5525C141.364 17.5313 141.726 17.4109 142.045 17.1913C142.37 16.9713 142.63 16.6773 142.824 16.3093L144.531 16.6126C144.248 17.3377 143.796 17.9435 143.176 18.4299C142.555 18.911 141.845 19.1725 141.046 19.2143ZM138.521 14.4437L143.059 14.2062C142.986 13.8255 142.832 13.4864 142.597 13.189C142.368 12.8859 142.086 12.6523 141.751 12.4882C141.422 12.3185 141.066 12.2437 140.682 12.2638C140.304 12.2836 139.957 12.3925 139.642 12.5906C139.332 12.7884 139.078 13.05 138.882 13.3754C138.69 13.6951 138.57 14.0512 138.521 14.4437Z" fill="#0D0C22"/>
<g filter="url(#filter0_d_1779_2176)">
<rect x="16.1946" y="49.5717" width="146" height="48" rx="12" transform="rotate(-2.9953 16.1946 49.5717)" fill="white"/>
<rect x="16.72" y="50.0449" width="145" height="47" rx="11.5" transform="rotate(-2.9953 16.72 50.0449)" stroke="#F8F7F4"/>
<path d="M37.2934 67.694L38.5097 67.6304L42.5869 77.2304L41.5454 77.2849L40.6737 75.2277L35.9411 75.4753L35.2889 77.6123L34.2473 77.6668L37.2934 67.694ZM36.2464 74.478L40.259 74.268L37.9645 68.8645L36.2464 74.478ZM49.7213 72.5182L49.9478 76.8453L48.9691 76.8965L48.7529 72.7651C48.7329 72.383 48.6215 72.0407 48.4188 71.7382C48.216 71.4357 47.9537 71.1994 47.6317 71.0293C47.3097 70.8593 46.9576 70.7842 46.5755 70.8042C46.198 70.824 45.8557 70.9354 45.5485 71.1383C45.246 71.3411 45.0098 71.6035 44.8397 71.9255C44.6696 72.2475 44.5946 72.5995 44.6146 72.9817L44.8308 77.113L43.8521 77.1642L43.4863 70.1738L44.465 70.1226L44.5155 71.0873C44.7439 70.7202 45.0507 70.4214 45.4359 70.1909C45.821 69.9605 46.2466 69.8331 46.7126 69.8087C47.2393 69.7811 47.726 69.8842 48.1728 70.1178C48.6196 70.3515 48.9825 70.6783 49.2615 71.0983C49.5405 71.5183 49.6938 71.9916 49.7213 72.5182ZM55.6065 69.5396L56.6411 69.4855L53.366 80.1712L52.3244 80.2257L53.4138 76.6639L50.5385 69.8048L51.608 69.7488L53.8325 75.2891L55.6065 69.5396Z" fill="#A6A6A6"/>
<path fill-rule="evenodd" clip-rule="evenodd" d="M133.115 64.7025C133.392 64.3947 133.866 64.3699 134.174 64.6471L138.74 68.7588L142.851 64.193C143.129 63.8852 143.603 63.8604 143.911 64.1376C144.218 64.4148 144.243 64.889 143.966 65.1968L139.352 70.3199C139.219 70.4677 139.033 70.5566 138.834 70.567C138.636 70.5774 138.441 70.5084 138.293 70.3753L133.17 65.7617C132.862 65.4845 132.837 65.0103 133.115 64.7025Z" fill="#0D0C22"/>
</g>
<path d="M84.348 132.122C83.5909 132.101 82.8833 131.932 82.225 131.616C81.5668 131.294 80.9917 130.862 80.4996 130.32C80.013 129.773 79.6353 129.144 79.3666 128.433C79.1032 127.721 78.9824 126.966 79.0042 126.166C79.026 125.366 79.1877 124.618 79.4895 123.922C79.7965 123.226 80.2078 122.621 80.7234 122.107C81.2444 121.588 81.8422 121.188 82.5167 120.908C83.1914 120.622 83.9073 120.489 84.6643 120.51C85.5707 120.535 86.3993 120.768 87.1502 121.21C87.9011 121.652 88.5176 122.229 88.9997 122.941L87.4987 123.692C87.1641 123.246 86.7444 122.885 86.2397 122.61C85.735 122.334 85.1948 122.189 84.619 122.173C84.0859 122.159 83.5844 122.255 83.1146 122.46C82.6449 122.666 82.2289 122.954 81.8667 123.323C81.5045 123.692 81.218 124.124 81.007 124.62C80.7961 125.116 80.683 125.646 80.6676 126.211C80.652 126.782 80.7361 127.32 80.9197 127.827C81.1034 128.328 81.366 128.775 81.7074 129.169C82.0543 129.557 82.4567 129.867 82.9146 130.098C83.3726 130.324 83.8655 130.444 84.3933 130.458C84.9797 130.474 85.5298 130.358 86.0434 130.111C86.5624 129.858 86.9985 129.518 87.3516 129.09L88.8091 129.938C88.2889 130.623 87.6419 131.166 86.868 131.566C86.0943 131.961 85.2543 132.146 84.348 132.122ZM90.4211 132.079L90.639 124.082L92.3024 124.127L92.2793 124.975C92.5655 124.652 92.9139 124.4 93.3243 124.219C93.7347 124.038 94.1745 123.954 94.6436 123.967C94.9422 123.975 95.237 124.023 95.528 124.111L94.8185 125.772C94.6128 125.687 94.406 125.641 94.198 125.635C93.8462 125.626 93.5212 125.705 93.2232 125.873C92.9253 126.036 92.6844 126.261 92.5005 126.55C92.3166 126.838 92.2198 127.161 92.21 127.518L92.0845 132.124L90.4211 132.079ZM99.5296 132.535C98.7939 132.515 98.1273 132.308 97.5298 131.913C96.9377 131.518 96.469 130.998 96.1237 130.354C95.784 129.704 95.6246 128.993 95.6457 128.22C95.6617 127.633 95.7805 127.09 96.0022 126.589C96.2241 126.083 96.5215 125.643 96.8945 125.269C97.273 124.89 97.7078 124.597 98.1989 124.392C98.69 124.187 99.2101 124.091 99.7592 124.106C100.372 124.123 100.931 124.266 101.436 124.536C101.941 124.801 102.369 125.162 102.719 125.62C103.07 126.072 103.322 126.591 103.477 127.177C103.632 127.757 103.666 128.372 103.579 129.02L97.4131 128.852C97.4724 129.222 97.5966 129.559 97.7857 129.863C97.9803 130.162 98.2299 130.4 98.5345 130.579C98.8444 130.759 99.1912 130.856 99.5749 130.872C99.9801 130.883 100.351 130.792 100.687 130.598C101.028 130.405 101.31 130.132 101.533 129.781L103.21 130.219C102.871 130.919 102.373 131.487 101.715 131.923C101.058 132.353 100.329 132.557 99.5296 132.535ZM97.3918 127.579L101.934 127.703C101.891 127.318 101.765 126.967 101.555 126.652C101.35 126.332 101.087 126.077 100.767 125.886C100.452 125.691 100.103 125.588 99.7191 125.578C99.3406 125.568 98.9863 125.649 98.6561 125.821C98.3313 125.994 98.058 126.234 97.8362 126.543C97.6198 126.846 97.4717 127.192 97.3918 127.579ZM111.394 124.647L113.057 124.693L112.84 132.69L111.168 132.644L111.136 131.483C110.89 131.887 110.564 132.209 110.157 132.449C109.75 132.688 109.275 132.801 108.731 132.786C108.145 132.77 107.596 132.646 107.085 132.413C106.574 132.175 106.127 131.853 105.743 131.448C105.364 131.043 105.073 130.581 104.868 130.064C104.664 129.541 104.569 128.983 104.586 128.391C104.601 127.821 104.722 127.288 104.949 126.793C105.176 126.292 105.484 125.858 105.873 125.489C106.262 125.121 106.707 124.837 107.209 124.637C107.716 124.433 108.255 124.338 108.825 124.353C109.406 124.369 109.914 124.516 110.35 124.795C110.79 125.069 111.152 125.414 111.434 125.833L111.394 124.647ZM108.735 131.177C109.204 131.19 109.618 131.087 109.976 130.867C110.334 130.642 110.615 130.335 110.818 129.946C111.026 129.557 111.136 129.122 111.149 128.642C111.162 128.157 111.076 127.715 110.889 127.315C110.703 126.915 110.437 126.595 110.091 126.357C109.751 126.113 109.346 125.984 108.877 125.971C108.413 125.959 107.986 126.065 107.596 126.289C107.206 126.513 106.893 126.819 106.659 127.207C106.424 127.596 106.3 128.03 106.287 128.51C106.274 128.995 106.376 129.438 106.595 129.839C106.819 130.234 107.117 130.554 107.489 130.799C107.867 131.039 108.282 131.165 108.735 131.177ZM118.99 126.519L117.311 126.473L117.13 132.807L115.467 132.761L115.648 126.428L114.376 126.393L114.421 124.73L115.693 124.765L115.753 122.253L117.417 122.299L117.356 124.81L119.036 124.856L118.99 126.519ZM123.735 133.195C122.999 133.175 122.333 132.967 121.735 132.572C121.143 132.177 120.674 131.657 120.329 131.013C119.989 130.364 119.83 129.652 119.851 128.879C119.867 128.293 119.986 127.749 120.208 127.248C120.429 126.742 120.727 126.302 121.1 125.928C121.478 125.549 121.913 125.257 122.404 125.051C122.895 124.846 123.416 124.751 123.965 124.766C124.7 124.786 125.364 124.993 125.956 125.388C126.554 125.783 127.022 126.306 127.362 126.955C127.707 127.605 127.869 128.319 127.848 129.097C127.832 129.678 127.713 130.219 127.492 130.72C127.27 131.221 126.97 131.661 126.591 132.04C126.219 132.414 125.786 132.704 125.295 132.909C124.81 133.115 124.289 133.21 123.735 133.195ZM123.78 131.531C124.223 131.543 124.623 131.437 124.981 131.212C125.34 130.987 125.625 130.685 125.838 130.307C126.057 129.923 126.172 129.505 126.185 129.052C126.197 128.588 126.102 128.159 125.9 127.764C125.702 127.369 125.431 127.052 125.085 126.813C124.74 126.569 124.351 126.441 123.919 126.429C123.482 126.417 123.082 126.524 122.718 126.749C122.36 126.974 122.072 127.278 121.853 127.661C121.64 128.045 121.527 128.466 121.514 128.925C121.502 129.399 121.596 129.831 121.799 130.221C122.002 130.611 122.276 130.925 122.622 131.164C122.973 131.397 123.359 131.52 123.78 131.531ZM129.191 133.135L129.409 125.138L131.072 125.184L131.049 126.031C131.336 125.708 131.684 125.456 132.094 125.275C132.505 125.095 132.944 125.011 133.414 125.023C133.712 125.031 134.007 125.079 134.298 125.167L133.589 126.829C133.383 126.743 133.176 126.697 132.968 126.692C132.616 126.682 132.291 126.761 131.993 126.929C131.695 127.092 131.454 127.317 131.27 127.606C131.087 127.894 130.99 128.217 130.98 128.574L130.855 133.181L129.191 133.135ZM134.916 126.265L135.526 122.104L137.189 122.149L136.02 126.295L134.916 126.265ZM140.871 133.606C140.451 133.567 140.043 133.471 139.647 133.316C139.251 133.161 138.904 132.957 138.607 132.704C138.315 132.445 138.099 132.146 137.959 131.806L139.391 131.236C139.457 131.382 139.573 131.527 139.74 131.67C139.912 131.813 140.114 131.934 140.346 132.031C140.578 132.122 140.822 132.172 141.078 132.179C141.329 132.186 141.562 132.157 141.777 132.094C141.998 132.025 142.179 131.918 142.322 131.772C142.465 131.627 142.539 131.45 142.544 131.242C142.551 131.008 142.476 130.824 142.319 130.692C142.168 130.554 141.976 130.448 141.744 130.372C141.511 130.296 141.278 130.223 141.045 130.153C140.526 130.022 140.051 129.849 139.619 129.634C139.193 129.414 138.856 129.141 138.609 128.814C138.362 128.482 138.245 128.081 138.258 127.612C138.272 127.1 138.422 126.662 138.71 126.296C138.997 125.925 139.368 125.644 139.821 125.454C140.28 125.264 140.765 125.176 141.277 125.19C141.917 125.207 142.499 125.359 143.025 125.645C143.551 125.932 143.948 126.316 144.218 126.798L142.877 127.546C142.802 127.384 142.686 127.237 142.529 127.104C142.373 126.972 142.194 126.866 141.994 126.786C141.793 126.7 141.584 126.649 141.365 126.632C141.094 126.614 140.84 126.639 140.603 126.708C140.372 126.771 140.185 126.878 140.042 127.029C139.899 127.179 139.825 127.375 139.818 127.615C139.812 127.849 139.89 128.027 140.052 128.149C140.214 128.266 140.419 128.362 140.668 128.438C140.922 128.514 141.181 128.599 141.445 128.691C141.916 128.854 142.356 129.05 142.766 129.28C143.176 129.504 143.505 129.777 143.752 130.099C143.999 130.42 144.111 130.807 144.088 131.26C144.075 131.761 143.911 132.197 143.597 132.567C143.288 132.938 142.891 133.215 142.406 133.399C141.92 133.583 141.409 133.652 140.871 133.606ZM154.742 134.04C153.964 134.018 153.243 133.849 152.579 133.532C151.921 133.21 151.349 132.776 150.862 132.229C150.381 131.677 150.009 131.045 149.745 130.334C149.487 129.623 149.369 128.87 149.391 128.076C149.414 127.239 149.584 126.472 149.902 125.777C150.219 125.081 150.644 124.482 151.175 123.979C151.706 123.47 152.307 123.081 152.976 122.811C153.65 122.542 154.352 122.417 155.082 122.436C155.909 122.459 156.698 122.673 157.45 123.077C158.202 123.482 158.85 124.076 159.394 124.859L157.885 125.626C157.514 125.136 157.076 124.761 156.571 124.502C156.071 124.243 155.555 124.106 155.021 124.091C154.504 124.077 154.011 124.171 153.541 124.371C153.072 124.567 152.653 124.849 152.286 125.217C151.918 125.581 151.624 126.013 151.402 126.514C151.186 127.009 151.07 127.553 151.054 128.145C151.038 128.715 151.122 129.254 151.306 129.76C151.495 130.267 151.76 130.714 152.101 131.103C152.448 131.485 152.851 131.79 153.309 132.016C153.772 132.242 154.271 132.362 154.804 132.377C155.198 132.387 155.578 132.334 155.944 132.216C156.31 132.098 156.651 131.925 156.967 131.699C157.288 131.468 157.57 131.19 157.814 130.866C158.058 130.542 158.254 130.179 158.404 129.778L156.029 129.713L156.069 128.242L160.395 128.359C160.384 129.159 160.225 129.907 159.918 130.603C159.616 131.299 159.205 131.91 158.684 132.434C158.168 132.954 157.573 133.356 156.898 133.642C156.223 133.928 155.505 134.06 154.742 134.04ZM165.305 134.327C164.569 134.307 163.902 134.1 163.305 133.705C162.713 133.31 162.244 132.79 161.899 132.146C161.559 131.496 161.4 130.785 161.421 130.012C161.437 129.425 161.555 128.882 161.777 128.381C161.999 127.875 162.296 127.435 162.669 127.061C163.048 126.682 163.483 126.389 163.974 126.184C164.465 125.979 164.985 125.883 165.534 125.898C166.147 125.915 166.706 126.058 167.211 126.328C167.716 126.593 168.144 126.954 168.494 127.412C168.845 127.864 169.097 128.383 169.252 128.969C169.407 129.549 169.441 130.164 169.354 130.812L163.188 130.644C163.247 131.014 163.372 131.351 163.561 131.655C163.755 131.954 164.005 132.192 164.309 132.371C164.619 132.551 164.966 132.648 165.35 132.664C165.755 132.675 166.126 132.584 166.462 132.39C166.803 132.197 167.085 131.924 167.308 131.573L168.985 132.011C168.646 132.711 168.148 133.279 167.49 133.715C166.833 134.145 166.104 134.349 165.305 134.327ZM163.167 129.371L167.709 129.495C167.666 129.11 167.54 128.759 167.33 128.444C167.125 128.124 166.862 127.869 166.542 127.679C166.227 127.483 165.878 127.38 165.494 127.37C165.116 127.36 164.761 127.441 164.431 127.613C164.106 127.786 163.833 128.026 163.611 128.335C163.395 128.639 163.247 128.984 163.167 129.371ZM178.079 129.449L177.942 134.464L176.279 134.418L176.405 129.812C176.414 129.455 176.335 129.127 176.167 128.829C176.005 128.531 175.779 128.293 175.49 128.114C175.207 127.931 174.885 127.834 174.522 127.824C174.17 127.814 173.845 127.894 173.547 128.061C173.249 128.224 173.008 128.45 172.824 128.738C172.641 129.026 172.544 129.349 172.534 129.706L172.408 134.313L170.745 134.267L170.963 126.27L172.626 126.316L172.603 127.163C172.889 126.84 173.238 126.588 173.648 126.408C174.059 126.227 174.498 126.143 174.968 126.155C175.559 126.172 176.094 126.33 176.571 126.631C177.049 126.932 177.422 127.329 177.691 127.822C177.966 128.315 178.095 128.858 178.079 129.449ZM186.099 122.681L187.762 122.727L187.436 134.722L185.772 134.677L185.804 133.501C185.532 133.91 185.181 134.237 184.753 134.481C184.325 134.72 183.829 134.832 183.263 134.817C182.682 134.801 182.141 134.677 181.641 134.444C181.14 134.212 180.701 133.898 180.322 133.504C179.949 133.104 179.66 132.648 179.455 132.136C179.25 131.623 179.156 131.077 179.172 130.496C179.187 129.914 179.312 129.374 179.544 128.873C179.776 128.367 180.09 127.928 180.484 127.554C180.884 127.176 181.34 126.884 181.852 126.679C182.365 126.474 182.912 126.38 183.493 126.396C184.058 126.411 184.548 126.552 184.962 126.82C185.376 127.082 185.708 127.422 185.958 127.839L186.099 122.681ZM183.323 133.21C183.792 133.222 184.206 133.119 184.564 132.899C184.922 132.674 185.203 132.367 185.406 131.978C185.614 131.589 185.724 131.154 185.737 130.674C185.75 130.189 185.664 129.747 185.477 129.347C185.291 128.947 185.025 128.628 184.679 128.389C184.339 128.145 183.934 128.016 183.465 128.004C183.001 127.991 182.574 128.097 182.184 128.321C181.799 128.545 181.487 128.851 181.247 129.24C181.012 129.628 180.888 130.062 180.875 130.542C180.862 131.027 180.964 131.47 181.183 131.871C181.407 132.266 181.705 132.587 182.077 132.832C182.455 133.071 182.87 133.197 183.323 133.21ZM192.915 135.08C192.179 135.059 191.513 134.852 190.915 134.457C190.323 134.062 189.854 133.542 189.509 132.898C189.169 132.248 189.01 131.537 189.031 130.764C189.047 130.178 189.166 129.634 189.388 129.133C189.609 128.627 189.907 128.187 190.28 127.813C190.658 127.434 191.093 127.142 191.584 126.936C192.075 126.731 192.595 126.636 193.145 126.651C193.758 126.667 194.317 126.811 194.821 127.08C195.326 127.345 195.754 127.706 196.104 128.164C196.455 128.616 196.708 129.135 196.862 129.721C197.017 130.301 197.051 130.916 196.964 131.565L190.798 131.397C190.858 131.766 190.982 132.103 191.171 132.407C191.366 132.706 191.615 132.945 191.92 133.124C192.23 133.303 192.577 133.4 192.96 133.416C193.365 133.427 193.736 133.336 194.072 133.142C194.414 132.949 194.696 132.676 194.919 132.325L196.595 132.763C196.256 133.463 195.758 134.031 195.1 134.467C194.443 134.897 193.715 135.101 192.915 135.08ZM190.777 130.123L195.319 130.247C195.277 129.862 195.15 129.512 194.94 129.197C194.735 128.876 194.473 128.621 194.152 128.431C193.838 128.235 193.488 128.133 193.104 128.122C192.726 128.112 192.372 128.193 192.041 128.365C191.717 128.538 191.443 128.778 191.222 129.087C191.005 129.391 190.857 129.736 190.777 130.123ZM198.355 135.02L198.573 127.023L200.237 127.068L200.214 127.916C200.5 127.593 200.848 127.341 201.259 127.16C201.669 126.979 202.109 126.895 202.578 126.908C202.877 126.916 203.171 126.964 203.462 127.052L202.753 128.713C202.547 128.627 202.34 128.582 202.132 128.576C201.78 128.567 201.456 128.646 201.158 128.814C200.86 128.976 200.619 129.202 200.435 129.49C200.251 129.779 200.154 130.102 200.144 130.459L200.019 135.065L198.355 135.02Z" fill="#0D0C22"/>
<g filter="url(#filter1_d_1779_2176)">
<rect x="77.5583" y="155.737" width="146" height="48" rx="12" transform="rotate(1.56064 77.5583 155.737)" fill="white"/>
<rect x="78.0445" y="156.251" width="145" height="47" rx="11.5" transform="rotate(1.56064 78.0445 156.251)" stroke="#F8F7F4"/>
<path d="M97.151 175.478L98.3685 175.512L101.67 185.405L100.628 185.377L99.9222 183.257L95.1849 183.128L94.365 185.206L93.3224 185.178L97.151 175.478ZM95.5685 182.158L99.585 182.267L97.727 176.699L95.5685 182.158ZM109.156 181.275L109.038 185.606L108.059 185.579L108.172 181.444C108.182 181.061 108.098 180.711 107.92 180.394C107.742 180.076 107.499 179.819 107.192 179.624C106.884 179.429 106.539 179.327 106.157 179.316C105.779 179.306 105.429 179.39 105.106 179.568C104.789 179.746 104.532 179.988 104.337 180.296C104.142 180.603 104.039 180.948 104.029 181.331L103.916 185.466L102.937 185.44L103.127 178.442L104.107 178.469L104.081 179.435C104.338 179.087 104.667 178.813 105.069 178.614C105.472 178.415 105.906 178.322 106.373 178.335C106.9 178.349 107.377 178.49 107.803 178.759C108.23 179.027 108.566 179.382 108.811 179.823C109.056 180.263 109.171 180.747 109.156 181.275ZM115.26 178.773L116.295 178.801L112.182 189.193L111.139 189.164L112.508 185.7L110.187 178.635L111.257 178.664L113.035 184.363L115.26 178.773Z" fill="#9E9EA7"/>
<path fill-rule="evenodd" clip-rule="evenodd" d="M192.907 180.108C193.208 179.823 193.683 179.836 193.967 180.137L198.192 184.598L202.654 180.373C202.954 180.088 203.429 180.101 203.714 180.402C203.999 180.703 203.986 181.178 203.685 181.462L198.679 186.203C198.535 186.34 198.342 186.413 198.143 186.408C197.944 186.403 197.756 186.318 197.619 186.174L192.878 181.168C192.594 180.867 192.606 180.393 192.907 180.108Z" fill="#0D0C22"/>
</g>
<defs>
<filter id="filter0_d_1779_2176" x="0.19458" y="29.9426" width="180.309" height="87.5635" filterUnits="userSpaceOnUse" color-interpolation-filters="sRGB">
<feFlood flood-opacity="0" result="BackgroundImageFix"/>
<feColorMatrix in="SourceAlpha" type="matrix" values="0 0 0 0 0 0 0 0 0 0 0 0 0 0 0 0 0 0 127 0" result="hardAlpha"/>
<feOffset dy="4"/>
<feGaussianBlur stdDeviation="8"/>
<feComposite in2="hardAlpha" operator="out"/>
<feColorMatrix type="matrix" values="0 0 0 0 0.796419 0 0 0 0 0.728756 0 0 0 0 0.689582 0 0 0 0.25 0"/>
<feBlend mode="normal" in2="BackgroundImageFix" result="effect1_dropShadow_1779_2176"/>
<feBlend mode="normal" in="SourceGraphic" in2="effect1_dropShadow_1779_2176" result="shape"/>
</filter>
<filter id="filter1_d_1779_2176" x="60.251" y="143.737" width="179.253" height="83.9585" filterUnits="userSpaceOnUse" color-interpolation-filters="sRGB">
<feFlood flood-opacity="0" result="BackgroundImageFix"/>
<feColorMatrix in="SourceAlpha" type="matrix" values="0 0 0 0 0 0 0 0 0 0 0 0 0 0 0 0 0 0 127 0" result="hardAlpha"/>
<feOffset dy="4"/>
<feGaussianBlur stdDeviation="8"/>
<feComposite in2="hardAlpha" operator="out"/>
<feColorMatrix type="matrix" values="0 0 0 0 0.796419 0 0 0 0 0.728756 0 0 0 0 0.689582 0 0 0 0.25 0"/>
<feBlend mode="normal" in2="BackgroundImageFix" result="effect1_dropShadow_1779_2176"/>
<feBlend mode="normal" in="SourceGraphic" in2="effect1_dropShadow_1779_2176" result="shape"/>
</filter>
</defs>
</svg>
