<svg width="48" height="48" viewBox="0 0 48 48" fill="none" xmlns="http://www.w3.org/2000/svg">
<g id="globe-01">
<path id="Icon" d="M4 24H44M4 24C4 35.0457 12.9543 44 24 44M4 24C4 12.9543 12.9543 4 24 4M44 24C44 35.0457 35.0457 44 24 44M44 24C44 12.9543 35.0457 4 24 4M24 4C29.0026 9.47671 31.8455 16.5841 32 24C31.8455 31.4159 29.0026 38.5233 24 44M24 4C18.9974 9.47671 16.1545 16.5841 16 24C16.1545 31.4159 18.9974 38.5233 24 44" stroke="#ED707E" stroke-width="2" stroke-linecap="round" stroke-linejoin="round"/>
</g>
</svg>
