<svg id="fi_7192499" fill="#EE7380" height="512" viewBox="0 0 512 512" width="512" xmlns="http://www.w3.org/2000/svg" data-name="Layer 1"><path d="m269.858 510.34c278.493-15.983 330.268-408.194 66.017-496.268-73.122-24.472-156.963-13.341-220.934 29.812h.018a254.731 254.731 0 0 0 -110.89 174.438l-.016-.011c-25.063 157.176 106.821 302.423 265.805 292.029zm206.117-161.425a237.421 237.421 0 0 1 -36.261 59.542c-1.055-6.293 1.857-13.582-2.482-19.455-4.708-9.179-9.069-18.543-13.975-27.613-1.824-3.373-1.321-5.311 1.367-7.739 28.792-25.263 3.125-11.831 5.953-47.938a4.9 4.9 0 0 0 -2.6-4.85c-13.648-8.714-31.465-11.707-45.569-2.023-17.578 8.308-42.651 1.953-48.337-18.223-5.029-13.411-4.412-26.954-4.544-40.65.811-7.386 10.943-8.626 9.3-17.163.39-10.84-3.143-22.283 7.108-29.358a6.737 6.737 0 0 1 5.833-1.545 40.084 40.084 0 0 0 26.732-6.234c8.377-5.311 18.72-1.873 28-3.082 4.423-.315 7.7.984 10.423 4.427 5.354 6.76 13.729 8.745 20.765 12.851 2.367 1.381 3.638-.36 4.748-1.792 5.911-7.626 14.97-10.188 22.913-14.573 4.326-2.479 13 6.985 20.384 7.321 14.715 51.506 11.3 108.843-9.758 158.097zm-3.459-193.579c-8.818 1.16-2.888-7.217-7.439-11.6a170.463 170.463 0 0 1 -13.022-12.946c-2.125-2.27-3.5-2.635-5.957-.21-6.6 6.53-6.229 5.837 1.467 13.64 8.986 9.878 15.759 9.713-.5 16.577-3.7 1.666-7.194 5.462-11.232-.023-2.444-3.319-5.771-5.549-5.376-10.662.607-7.884-5.408-13.6-8.191-20.407-.831-2.031-2.3-.6-3.083.4-5.855 7.528-14.7 10.438-22.712 14.62-13.839 12.1-10.68 10.782-29.044 10.256-1.7.073-2.2-1.977-2.938-3.175-9.247-15.138-7.454-18.828 2.126-33.119 3.524-2.114 19.094.326 22.037 3.4 1.323 1.38 2.409 2.988 4.318 5.394 1.467-5.86.724-10.35.876-14.773 2.482-18.149 17.732-9.97 28.558-13.912 5.117-3.911 7.217-5.858 6.132-7.777a237.687 237.687 0 0 1 43.98 64.317zm-45.461-65.836c-7.389-4.811-23.805-9.883-24.242-21.771a236.705 236.705 0 0 1 24.242 21.771zm-339.846-2.3a238.841 238.841 0 0 1 45.891-35.9c5.681 2.9 9.734 13.569 16.86 9.778 7.6-3.988 15.7-7.151 21.156-14.282 3.091-3.755 8.5-.881 12.537-2.02 15.872-2.149 20.163 15.923 26.1 26.674-.524.441-.8.864-1.028.838-13.772-1.554-26.4 2.868-38.881 7.674-4.1 1.579-7.26 1.713-9.825-2.235-3.17-4.882-7.243-5.023-12.3-2.917-4.684 3.311-21.513 3.883-20.35 10.528 1.142 6.243-3.787 16.884 7.419 14.757 5.251-1.827 9.765 13.69 12.974 4.769 6.886-27.9 35.916-3.553 58.3-21.38 8.235-4.886 15.008 11.208 18.208 16.877 2.432 5.319 4.191 11.581 12.742 9.726-5.362 5.364-10.761 10.692-16.063 16.114-1.538 1.573-2.936 1.069-4.663.469-6.666-2.314-13.423-4.371-20.066-6.75-3.169-1.135-4.689-1.246-4.617 3 5.424 29.2-19.451 1.038-36.726 22.936-21.556 21.664-4.874 39.844-34.5 62.619-1.771 1.626-3.242 1.822-4.993.536-12.87-9.136-41.786-14.1-51.4.834a3.1 3.1 0 0 0 .422 2.683c5.149 8.253 5.553 22.138 15.329 8.294 2.91-2.48 6.328-1.645 9.308-1.15 3.135.521 1.578 3.841 1.5 5.772.443 7.7 11.519 9.072 9.34 17.74-1.243 6.271 6.656 2.805 10.127 3.857 5.611.809 9.868-1.068 13.465-5.45 2.728-3.323 18.387-5.581 21.993-3.443 2.859 2.881 4.06 7.382 6.111 10.9 3.409 6.84 3.556 6.978 8.574 1.572 11.53-9.051 27.737-1.89 38.708 4.395 8.619 4.828 5.772 22.064 18.611 19.587 2.466-.582 3.8 1.519 5.152 3.042 9.326 11.409 24.384 10.044 29.9 25.689 3.554 6.525 3.174 12.244.154 18.7-2.146 12.126-8.109 21.061-20.7 24.457-9.984 3.586 6.86 19.876-15.993 26.372-5.861 1.276-6.62 5.765-5.861 11.029 2.424 13.558-.868 23.79-15.78 27.362-4.41 1.457-3.624 7.321-5.717 10.663-10.288 18.75-.936 32.429 12.166 45.56-11.5.679-23.963 1.849-27.938-10.532-4.966-14.423-9.46-28.971-16.824-42.455-2.473-4.528-.881-9.789-.945-14.7-1.795-20.093-22.313-35.132-18.459-56.541 1.494-10.723-13.8 4.59-29.635-14.925-5.278-6.261-17.559-21.393-15.438-29.236 4.335-10.806 4.792-23.841 14.8-31.341 4.263-3.314 4.651-13.648-3.3-11.644-20.424 3.417-16.06-11.93-28.022-9.016-8.1.862-13.947-1.793-20.242-7.46-18.886-17.37-24.3-4.5-35.121-17.378a238.052 238.052 0 0 1 67.54-135.048z"></path></svg>