<svg width="42" height="18" viewBox="0 0 42 18" fill="none" xmlns="http://www.w3.org/2000/svg">
<path d="M27.8662 1.2002C28.7848 1.2002 29.7034 1.2002 30.6499 1.2002C31.5417 2.44113 31.5417 2.44113 31.8616 2.89906C31.9312 2.99842 32.0009 3.09776 32.0705 3.1971C32.1032 3.2437 32.1358 3.2903 32.1695 3.33832C32.3778 3.63501 32.5883 3.9303 32.7987 4.22565C33.1609 4.73453 33.5213 5.24461 33.8807 5.75537C33.9975 5.92142 34.1145 6.08738 34.2317 6.25321C35.0677 7.43686 35.8956 8.6259 36.7178 9.8186C36.7387 9.84899 36.7597 9.87937 36.7813 9.91067C37.1481 10.4424 37.5106 10.9768 37.8732 11.5112C37.9259 11.5888 37.9785 11.6664 38.0312 11.744C38.1591 11.9324 38.287 12.1208 38.4148 12.3093C38.4146 12.2629 38.4144 12.2165 38.4142 12.1687C38.4095 11.0395 38.4076 9.91032 38.4086 8.7811C38.4091 8.23501 38.4086 7.68894 38.406 7.14286C38.4037 6.66683 38.4031 6.19083 38.4046 5.71479C38.4053 5.46278 38.4052 5.21082 38.403 4.95881C38.401 4.72143 38.4012 4.48416 38.4032 4.24678C38.4036 4.15983 38.4031 4.07287 38.4017 3.98593C38.3918 3.33068 38.3918 3.33068 38.5685 3.09036C38.691 2.98194 38.8129 2.89462 38.952 2.80747C39.0279 2.74905 39.1033 2.69005 39.1779 2.6302C39.2179 2.59967 39.2578 2.56914 39.299 2.53768C39.4766 2.40154 39.6523 2.26333 39.828 2.12497C39.8616 2.09854 39.8952 2.07211 39.9298 2.04488C40.1686 1.85682 40.4071 1.66826 40.6451 1.47922C40.6827 1.44954 40.7203 1.41986 40.759 1.38929C40.8237 1.33673 40.8237 1.33673 40.8896 1.28311C41.0032 1.2002 41.0032 1.2002 41.1008 1.2002C41.1008 6.3482 41.1008 11.4962 41.1008 16.8002C40.1822 16.8002 39.2636 16.8002 38.3172 16.8002C38.0675 16.4679 37.822 16.1358 37.5846 15.7956C37.2307 15.2909 36.8716 14.7899 36.511 14.2896C36.3477 14.063 36.1848 13.8361 36.0219 13.6093C35.9567 13.5187 35.8916 13.4281 35.8265 13.3375C35.6963 13.1563 35.5661 12.975 35.4358 12.7938C35.4036 12.749 35.3713 12.7041 35.3381 12.6578C35.2732 12.5675 35.2083 12.4772 35.1433 12.3868C34.9776 12.1562 34.8118 11.9255 34.6459 11.6949C34.3415 11.2718 34.0374 10.8485 33.7363 10.4232C33.6119 10.2477 33.4866 10.0727 33.3607 9.89819C32.4036 8.57245 31.4791 7.22604 30.5522 5.8802C30.5361 9.4838 30.52 13.0874 30.5034 16.8002C29.6331 16.8002 28.7628 16.8002 27.8662 16.8002C27.8662 11.6522 27.8662 6.5042 27.8662 1.2002Z" fill="#EE7380"/>
<path d="M22.5352 2.83518C22.7505 3.02901 22.9487 3.22763 23.1331 3.44919C23.1716 3.4953 23.2101 3.5414 23.2498 3.58891C24.0474 4.55934 24.5972 5.66738 24.8988 6.87095C24.9084 6.9092 24.918 6.94745 24.9279 6.98685C25.0799 7.63164 25.1255 8.26901 25.1237 8.92758C25.1237 8.98516 25.1237 8.98516 25.1236 9.0439C25.1163 11.329 24.2334 13.3417 22.6092 14.9902C22.0501 15.5164 21.4113 15.9376 20.7171 16.2778C20.686 16.2932 20.6549 16.3085 20.6228 16.3243C18.6653 17.2776 16.3378 17.4077 14.2582 16.7547C13.1041 16.3732 12.1345 15.8 11.2507 14.9902C11.1808 14.9272 11.1808 14.9272 11.1095 14.8629C9.93459 13.7824 9.24227 12.3541 8.88406 10.8411C8.87522 10.8051 8.86637 10.769 8.85726 10.7318C8.59274 9.59959 8.61437 8.2023 8.88406 7.07363C8.89226 7.03714 8.90046 7.00066 8.9089 6.96307C9.37469 4.92565 10.6236 3.11498 12.434 1.9708C13.4784 1.33472 14.6569 0.913709 15.8853 0.778549C15.9313 0.773262 15.9773 0.767975 16.0247 0.762528C18.4346 0.526889 20.734 1.28331 22.5352 2.83518ZM13.4201 4.49837C13.3797 4.53255 13.3394 4.56673 13.2978 4.60195C12.7409 5.10914 12.3473 5.73465 12.0395 6.40597C12.0158 6.45736 11.992 6.50876 11.9675 6.56171C11.644 7.31652 11.5349 8.11625 11.5342 8.92758C11.5341 8.96069 11.5341 8.99381 11.5341 9.02793C11.5349 9.53526 11.5609 10.0141 11.6944 10.5073C11.7024 10.5377 11.7103 10.5682 11.7185 10.5995C11.9382 11.4231 12.3297 12.1806 12.8777 12.8441C12.9126 12.8865 12.9474 12.929 12.9833 12.9727C13.8615 13.9763 15.1842 14.5791 16.5263 14.704C17.8881 14.7726 19.2425 14.3983 20.2734 13.5118C20.3094 13.4837 20.3455 13.4556 20.3826 13.4266C21.4711 12.5551 22.1232 11.1187 22.2829 9.78488C22.4269 8.15093 22.1253 6.43762 21.0394 5.12658C20.8753 4.94013 20.7003 4.76535 20.5199 4.59375C20.4794 4.55459 20.4388 4.51543 20.397 4.47508C19.4581 3.613 18.2249 3.20114 16.9442 3.15895C15.6025 3.20398 14.429 3.64338 13.4201 4.49837Z" fill="#EE7380"/>
<path d="M-0.152832 1.08008C2.56205 1.08008 5.27694 1.08008 8.07409 1.08008C8.07409 1.93593 8.07409 2.79178 8.07409 3.67357C6.88734 3.67357 5.7006 3.67357 4.47789 3.67357C4.47789 7.15922 4.47789 10.6449 4.47789 14.2361C5.66464 14.2361 6.85138 14.2361 8.07409 14.2361C7.97604 14.4708 7.90565 14.5531 7.72001 14.7224C7.56471 14.8665 7.41101 15.0098 7.27049 15.1674C7.07608 15.3852 6.87072 15.5929 6.66613 15.8018C6.43079 16.0423 6.19783 16.2847 5.96598 16.5283C5.9301 16.5655 5.89422 16.6027 5.85726 16.641C5.83558 16.6663 5.81391 16.6916 5.79159 16.7177C5.68049 16.8053 5.61202 16.7999 5.46914 16.7995C5.41961 16.7997 5.37008 16.7999 5.31905 16.8001C5.26476 16.7996 5.21048 16.7991 5.15455 16.7985C5.06875 16.7986 5.06875 16.7986 4.98122 16.7986C4.79169 16.7985 4.60218 16.7974 4.41266 16.7963C4.28143 16.796 4.15021 16.7958 4.01899 16.7957C3.70861 16.7952 3.39823 16.7941 3.08786 16.7927C2.69984 16.7909 2.31183 16.7902 1.92382 16.7894C1.23159 16.788 0.539389 16.7852 -0.152832 16.7825C-0.152832 15.9422 -0.152832 15.1019 -0.152832 14.2361C0.49744 14.2361 1.14771 14.2361 1.81769 14.2361C1.81769 10.7505 1.81769 7.26484 1.81769 3.67357C1.16742 3.67357 0.517145 3.67357 -0.152832 3.67357C-0.152832 2.81772 -0.152832 1.96186 -0.152832 1.08008Z" fill="#EE7380"/>
</svg>
