<svg width="192" height="44" viewBox="0 0 192 44" fill="none" xmlns="http://www.w3.org/2000/svg">
<path d="M92 10C93.3882 10 94.7764 10 96.2066 10C97.5543 11.9091 97.5543 11.9091 98.0378 12.6136C98.143 12.7665 98.2482 12.9193 98.3535 13.0722C98.4029 13.1439 98.4522 13.2155 98.5031 13.2894C98.8179 13.7459 99.136 14.2002 99.4539 14.6545C100.001 15.4374 100.546 16.2222 101.089 17.008C101.266 17.2634 101.442 17.5187 101.619 17.7739C102.883 19.5949 104.134 21.4242 105.376 23.2591C105.408 23.3058 105.44 23.3526 105.472 23.4007C106.027 24.2188 106.574 25.041 107.122 25.8631C107.202 25.9825 107.282 26.1018 107.361 26.2212C107.554 26.5111 107.748 26.801 107.941 27.0909C107.941 27.0195 107.94 26.9482 107.94 26.8747C107.933 25.1374 107.93 23.4002 107.932 21.6629C107.932 20.8228 107.932 19.9827 107.928 19.1426C107.924 18.4102 107.923 17.6779 107.925 16.9455C107.927 16.5578 107.926 16.1702 107.923 15.7825C107.92 15.4173 107.92 15.0523 107.923 14.6871C107.924 14.5533 107.923 14.4195 107.921 14.2857C107.906 13.2777 107.906 13.2777 108.173 12.908C108.358 12.7411 108.542 12.6068 108.753 12.4727C108.867 12.3829 108.981 12.2921 109.094 12.2C109.155 12.153 109.215 12.1061 109.277 12.0577C109.545 11.8482 109.811 11.6356 110.077 11.4227C110.127 11.3821 110.178 11.3414 110.23 11.2995C110.591 11.0102 110.952 10.7201 111.311 10.4293C111.368 10.3836 111.425 10.3379 111.483 10.2909C111.581 10.21 111.581 10.21 111.681 10.1276C111.852 10 111.852 10 112 10C112 17.92 112 25.84 112 34C110.612 34 109.224 34 107.793 34C107.416 33.4887 107.045 32.9779 106.686 32.4545C106.151 31.6781 105.609 30.9072 105.064 30.1375C104.817 29.7889 104.571 29.4399 104.325 29.0909C104.226 28.9515 104.128 28.8121 104.03 28.6727C103.833 28.3939 103.636 28.1152 103.439 27.8364C103.39 27.7673 103.342 27.6983 103.291 27.6271C103.193 27.4882 103.095 27.3492 102.997 27.2102C102.747 26.8553 102.496 26.5005 102.245 26.1457C101.785 25.4948 101.326 24.8436 100.871 24.1892C100.683 23.9192 100.494 23.65 100.303 23.3815C98.8568 21.3419 97.4598 19.2705 96.059 17.2C96.0347 22.744 96.0103 28.288 95.9852 34C94.6701 34 93.355 34 92 34C92 26.08 92 18.16 92 10Z" fill="#EE7380"/>
<path d="M160.767 12.1119C160.831 12.1667 160.896 12.2216 160.963 12.2781C163.29 14.2839 164.713 17.4488 164.976 20.4877C165.002 20.9809 165.001 21.4747 164.999 21.9685C164.999 22.0355 164.999 22.1024 164.998 22.1713C164.995 23.1335 164.98 24.076 164.75 25.0152C164.734 25.0797 164.719 25.1442 164.702 25.2106C164.105 27.5836 163.029 29.5621 161.368 31.3536C161.318 31.4086 161.268 31.4635 161.217 31.5201C159.143 33.7175 156.015 34.8974 153.04 34.9971C149.694 35.0614 146.444 34.0595 143.992 31.7091C143.923 31.6416 143.853 31.5741 143.782 31.5045C143.717 31.4432 143.652 31.382 143.585 31.3188C141.932 29.7212 140.874 27.5566 140.338 25.3358C140.316 25.2451 140.316 25.2451 140.294 25.1525C140.06 24.1227 139.995 23.1095 140 22.0581C140 21.9968 140.001 21.9355 140.001 21.8723C140.004 20.9418 140.041 20.0398 140.249 19.1294C140.262 19.0711 140.275 19.0127 140.288 18.9526C141.053 15.5755 142.972 12.7282 145.892 10.8556C147.415 9.90903 149.139 9.30141 150.921 9.09355C150.989 9.08528 151.058 9.07702 151.128 9.0685C154.622 8.71143 158.144 9.75397 160.767 12.1119ZM146.637 15.5075C144.732 17.6479 144.174 20.3353 144.308 23.1287C144.479 25.5292 145.68 27.7434 147.464 29.3162C149.097 30.6699 151.237 31.2991 153.338 31.1129C155.443 30.8821 157.252 29.8422 158.637 28.2551C160.399 26.0335 160.945 23.2386 160.657 20.457C160.389 18.4638 159.438 16.6407 158.061 15.2056C157.988 15.1241 157.988 15.1241 157.914 15.0409C156.591 13.6029 154.614 12.9961 152.725 12.8664C150.421 12.7869 148.205 13.8491 146.637 15.5075Z" fill="#EE7380"/>
<path d="M84.067 12.3448C84.3941 12.6514 84.6952 12.9655 84.9753 13.3159C85.0338 13.3888 85.0923 13.4617 85.1526 13.5369C86.3646 15.0716 87.2 16.824 87.6581 18.7274C87.6727 18.7879 87.6873 18.8484 87.7024 18.9107C87.9334 19.9305 88.0026 20.9385 87.9999 21.98C87.9999 22.0711 87.9999 22.0711 87.9998 22.164C87.9887 25.7779 86.6472 28.9609 84.1793 31.5681C83.3298 32.4003 82.3592 33.0665 81.3046 33.6045C81.2572 33.6287 81.2099 33.653 81.1612 33.678C78.187 35.1857 74.6505 35.3914 71.4909 34.3587C69.7373 33.7553 68.2641 32.8488 66.9212 31.5681C66.815 31.4684 66.815 31.4684 66.7067 31.3668C64.9215 29.6579 63.8696 27.399 63.3254 25.0063C63.3119 24.9493 63.2985 24.8922 63.2846 24.8334C62.8827 23.0428 62.9156 20.833 63.3254 19.048C63.3378 18.9903 63.3503 18.9326 63.3631 18.8731C64.0708 15.6509 65.9685 12.7873 68.7191 10.9778C70.306 9.97184 72.0967 9.30601 73.963 9.09226C74.033 9.08389 74.1029 9.07553 74.1749 9.06692C77.8364 8.69425 81.3301 9.89053 84.067 12.3448ZM70.2174 14.9752C70.1561 15.0292 70.0947 15.0833 70.0316 15.139C69.1854 15.9411 68.5875 16.9304 68.1198 17.9921C68.0837 18.0733 68.0476 18.1546 68.0104 18.2384C67.5188 19.4321 67.3531 20.6969 67.352 21.98C67.3519 22.0324 67.3518 22.0848 67.3518 22.1387C67.353 22.9411 67.3925 23.6984 67.5954 24.4784C67.6075 24.5265 67.6195 24.5746 67.632 24.6242C67.9659 25.9267 68.5606 27.1247 69.3933 28.1741C69.4463 28.2411 69.4992 28.3082 69.5537 28.3773C70.8881 29.9646 72.8978 30.9179 74.9369 31.1155C77.0062 31.224 79.064 30.6321 80.6303 29.23C80.6851 29.1855 80.7398 29.1411 80.7963 29.0953C82.4501 27.717 83.4409 25.4453 83.6836 23.3358C83.9024 20.7517 83.4442 18.0421 81.7942 15.9687C81.5449 15.6738 81.279 15.3974 81.0049 15.126C80.9433 15.0641 80.8817 15.0022 80.8182 14.9384C79.3915 13.575 77.5178 12.9236 75.5719 12.8569C73.5334 12.9281 71.7503 13.623 70.2174 14.9752Z" fill="#EE7380"/>
<path d="M120 9.05103C121.35 9.05103 122.7 9.05103 124.091 9.05103C124.091 12.9919 124.091 16.9327 124.091 20.993C124.216 20.8642 124.341 20.7354 124.47 20.6027C124.52 20.5523 124.569 20.5019 124.621 20.45C124.912 20.1539 125.189 19.8505 125.456 19.5307C125.641 19.3123 125.832 19.0989 126.023 18.8856C126.253 18.628 126.482 18.3697 126.705 18.1051C126.959 17.8024 127.222 17.5075 127.485 17.2127C127.821 16.8363 128.153 16.4563 128.485 16.0757C128.655 15.8803 128.826 15.685 128.997 15.4897C129.109 15.3617 129.22 15.2337 129.332 15.1055C129.644 14.7472 129.958 14.391 130.275 14.0366C130.5 13.7839 130.724 13.5303 130.942 13.2707C131.217 12.9442 131.503 12.6286 131.788 12.3119C131.99 12.0862 132.191 11.8594 132.386 11.6267C132.618 11.3514 132.856 11.084 133.097 10.817C133.797 10.0938 133.797 10.0938 134.373 9.27674C134.525 9.09095 134.607 9.05362 134.843 9.00987C135.135 8.99669 135.426 8.99836 135.719 9.00529C135.827 9.00617 135.935 9.00684 136.043 9.0073C136.327 9.00909 136.611 9.01368 136.895 9.01887C137.185 9.02367 137.475 9.0258 137.765 9.02816C138.333 9.03318 138.901 9.04116 139.47 9.05103C139.36 9.28589 139.249 9.45632 139.073 9.64495C139.025 9.69748 138.977 9.75 138.927 9.80411C138.851 9.8853 138.851 9.8853 138.774 9.96814C138.433 10.3358 138.098 10.7066 137.775 11.0908C137.599 11.2991 137.417 11.5018 137.235 11.7048C137.006 11.9606 136.779 12.2173 136.558 12.4804C136.283 12.807 135.997 13.1226 135.712 13.4393C135.51 13.665 135.309 13.8917 135.114 14.1244C134.841 14.4495 134.557 14.7633 134.273 15.0784C134.07 15.3041 133.869 15.5308 133.674 15.7635C133.405 16.0846 133.124 16.395 132.844 16.7064C132.557 17.0259 132.273 17.3486 131.991 17.673C131.793 17.8997 131.593 18.1244 131.392 18.349C131.12 18.6537 130.852 18.9612 130.589 19.274C130.32 19.5901 130.046 19.9009 129.773 20.2125C129.898 20.4981 130.068 20.745 130.246 20.9979C130.279 21.045 130.312 21.0922 130.346 21.1408C130.761 21.7335 131.183 22.321 131.605 22.9087C131.828 23.2195 132.05 23.5307 132.273 23.8419C132.361 23.9655 132.449 24.089 132.538 24.2126C133.422 25.4484 134.306 26.6843 135.189 27.9201C135.233 27.9813 135.277 28.0424 135.322 28.1055C135.41 28.229 135.499 28.3525 135.587 28.476C135.809 28.7861 136.031 29.0961 136.253 29.4058C136.684 30.0076 137.114 30.6107 137.538 31.2178C137.878 31.7042 138.22 32.1888 138.565 32.6715C138.609 32.7326 138.653 32.7937 138.698 32.8567C138.916 33.1623 139.137 33.4665 139.36 33.7688C139.402 33.8264 139.445 33.8841 139.488 33.9435C139.569 34.0525 139.65 34.1613 139.731 34.2698C140 34.6348 140 34.6348 140 34.8082C139.369 34.8465 138.739 34.8754 138.107 34.8931C137.814 34.9016 137.521 34.9131 137.228 34.9318C135.346 35.0492 135.346 35.0492 134.778 34.6533C134.404 34.2784 134.143 33.8497 133.9 33.3777C133.726 33.0531 133.511 32.7627 133.295 32.4666C133.216 32.3525 133.136 32.2383 133.057 32.1239C132.773 31.7185 132.478 31.3219 132.183 30.9251C131.82 30.4379 131.463 29.9483 131.12 29.4464C130.849 29.0507 130.567 28.6633 130.284 28.2762C129.775 27.5792 129.271 26.8782 128.77 26.1752C128.632 25.9819 128.494 25.7889 128.356 25.5959C127.891 24.9478 127.428 24.2993 126.97 23.6467C126.675 23.7683 126.51 23.9601 126.302 24.2029C126.269 24.2416 126.235 24.2804 126.201 24.3203C125.975 24.582 125.752 24.8466 125.529 25.1108C125.326 25.3475 125.118 25.5802 124.91 25.8127C124.871 25.856 124.833 25.8994 124.793 25.9441C124.755 25.9856 124.718 26.0272 124.68 26.07C124.646 26.1069 124.613 26.1438 124.579 26.1818C124.47 26.3005 124.47 26.3005 124.313 26.4385C124.133 26.6525 124.132 26.7426 124.14 27.0214C124.141 27.103 124.143 27.1846 124.144 27.2687C124.147 27.3566 124.15 27.4445 124.152 27.535C124.154 27.7222 124.156 27.9093 124.157 28.0965C124.161 28.3908 124.167 28.6849 124.175 28.9791C124.219 30.6029 124.219 30.6029 123.938 31.096C123.745 31.2748 123.553 31.4188 123.337 31.5665C123.004 31.823 122.725 32.1462 122.435 32.4529C122.301 32.5925 122.167 32.732 122.032 32.8714C121.824 33.0879 121.616 33.3046 121.408 33.5214C121.205 33.7331 121.001 33.9443 120.797 34.1554C120.735 34.221 120.672 34.2866 120.607 34.3542C120.55 34.4139 120.492 34.4737 120.432 34.5352C120.382 34.5881 120.331 34.641 120.279 34.6954C120.152 34.8082 120.152 34.8082 120 34.8082C120 26.3083 120 17.8085 120 9.05103Z" fill="#EE7380"/>
<path d="M49 9C53.29 9 57.58 9 62 9C62 10.4155 62 11.8311 62 13.2895C60.1247 13.2895 58.2495 13.2895 56.3174 13.2895C56.3174 19.0546 56.3174 24.8196 56.3174 30.7594C58.1926 30.7594 60.0679 30.7594 62 30.7594C61.8451 31.1475 61.7338 31.2836 61.4405 31.5637C61.1951 31.802 60.9522 32.039 60.7302 32.2997C60.423 32.6599 60.0985 33.0033 59.7752 33.3489C59.4033 33.7467 59.0352 34.1476 58.6688 34.5505C58.6121 34.612 58.5554 34.6735 58.497 34.7369C58.4628 34.7788 58.4285 34.8207 58.3932 34.8638C58.2177 35.0087 58.1095 34.9997 57.8837 34.999C57.8054 34.9993 57.7272 34.9997 57.6465 35C57.5608 34.9992 57.475 34.9983 57.3866 34.9975C57.251 34.9975 57.251 34.9975 57.1127 34.9976C56.8132 34.9974 56.5138 34.9956 56.2143 34.9937C56.0069 34.9933 55.7996 34.993 55.5922 34.9927C55.1018 34.992 54.6113 34.9901 54.1209 34.9877C53.5077 34.9849 52.8946 34.9836 52.2815 34.9823C51.1876 34.98 50.0938 34.9753 49 34.9709C49 33.5811 49 32.1913 49 30.7594C50.0275 30.7594 51.0551 30.7594 52.1138 30.7594C52.1138 24.9943 52.1138 19.2293 52.1138 13.2895C51.0862 13.2895 50.0587 13.2895 49 13.2895C49 11.874 49 10.4584 49 9Z" fill="#EE7380"/>
<path d="M170 10C171.298 10 172.595 10 173.932 10C173.932 16.72 173.932 23.44 173.932 30.3636C176.623 30.3636 179.315 30.3636 182.087 30.3636C182.521 30.8754 182.952 31.3851 183.375 31.9045C183.563 32.1322 183.753 32.3572 183.944 32.5818C184.078 32.7393 184.211 32.8969 184.345 33.0545C184.377 33.0933 184.41 33.1321 184.444 33.172C184.537 33.2825 184.63 33.3935 184.722 33.5045C184.776 33.5686 184.83 33.6326 184.885 33.6986C185 33.8545 185 33.8545 185 34C180.05 34 175.1 34 170 34C170 26.08 170 18.16 170 10Z" fill="#EE7380"/>
<path d="M24.7159 6C24.7159 10.9372 24.7159 15.8744 24.7159 20.9612C24.9204 20.8416 24.9204 20.8416 25.0792 20.6908C25.1018 20.6661 25.1244 20.6414 25.1477 20.6159C25.1709 20.5898 25.1941 20.5638 25.2181 20.537C25.2426 20.5099 25.2671 20.4829 25.2924 20.4551C25.4433 20.2883 25.5921 20.1196 25.7392 19.9495C25.8503 19.8233 25.9642 19.6996 26.0781 19.5759C26.2185 19.4235 26.358 19.2707 26.4937 19.1142C26.649 18.9351 26.8093 18.7607 26.9697 18.5862C27.1745 18.3635 27.3769 18.1387 27.5789 17.9136C27.6481 17.8366 27.7174 17.7596 27.7867 17.6827C27.8209 17.6446 27.8552 17.6065 27.8906 17.5672C29.0334 16.2974 29.0334 16.2974 29.1377 16.1816C29.2058 16.1059 29.2739 16.0301 29.3419 15.9543C29.5322 15.7423 29.7237 15.5316 29.9166 15.3219C30.0549 15.1714 30.1924 15.0204 30.3264 14.8659C30.4817 14.6868 30.6419 14.5124 30.8024 14.338C31.0071 14.1153 31.2095 13.8905 31.4115 13.6653C31.5155 13.5497 31.6195 13.4342 31.7236 13.3186C31.7917 13.2429 31.8598 13.1672 31.9278 13.0914C32.1181 12.8794 32.3096 12.6686 32.5024 12.459C32.6408 12.3085 32.7783 12.1574 32.9123 12.003C33.0676 11.8239 33.2278 11.6495 33.3883 11.475C33.593 11.2523 33.7954 11.0276 33.9974 10.8024C34.2407 10.531 34.4855 10.2611 34.732 9.9927C34.9351 9.77144 35.136 9.5483 35.3365 9.32472C35.5799 9.05331 35.8247 8.78329 36.0714 8.51484C36.2384 8.33294 36.4036 8.14956 36.5685 7.96575C36.69 7.83117 36.8126 7.69766 36.9354 7.56423C37.0984 7.38697 37.2587 7.20777 37.4163 7.02563C37.5652 6.85767 37.7188 6.69386 37.8723 6.53005C37.976 6.41865 38.0686 6.31169 38.1533 6.18471C38.2599 6.16766 38.2599 6.16766 38.3958 6.16805C38.4472 6.16786 38.4986 6.16767 38.5516 6.16747C38.6366 6.16822 38.6366 6.16822 38.7233 6.16898C38.8125 6.16895 38.8125 6.16895 38.9035 6.16892C39.0668 6.16888 39.2302 6.1697 39.3935 6.17066C39.5641 6.17153 39.7347 6.17161 39.9053 6.17177C40.2284 6.1722 40.5516 6.17334 40.8747 6.17473C41.2425 6.17628 41.6104 6.17704 41.9782 6.17774C42.735 6.17919 43.4918 6.18162 44.2486 6.18471C44.1863 6.3136 44.1262 6.41195 44.0273 6.51588C44.0022 6.54255 43.977 6.56922 43.9512 6.5967C43.9113 6.63848 43.9113 6.63848 43.8705 6.68111C43.8155 6.73945 43.7606 6.79783 43.7057 6.85625C43.6664 6.89798 43.6664 6.89798 43.6263 6.94056C43.546 7.02655 43.4682 7.11433 43.3915 7.20348C43.2499 7.36764 43.1031 7.52654 42.9557 7.68545C42.7807 7.87411 42.6083 8.06428 42.44 8.25887C42.3093 8.40741 42.1749 8.55263 42.041 8.69825C41.8362 8.92095 41.6339 9.14571 41.4318 9.37089C41.3278 9.48648 41.2238 9.60203 41.1198 9.71758C41.0517 9.79329 40.9836 9.86904 40.9156 9.94485C40.7253 10.1568 40.5338 10.3676 40.3409 10.5773C40.2025 10.7277 40.0651 10.8788 39.9311 11.0332C39.7758 11.2123 39.6156 11.3867 39.4551 11.5612C39.2504 11.7839 39.0479 12.0086 38.846 12.2338C38.6222 12.4833 38.3975 12.7318 38.1706 12.9784C38.0331 13.1279 37.8966 13.278 37.7637 13.4315C37.5963 13.6247 37.4222 13.8114 37.2484 13.9988C37.1248 14.1323 37.0024 14.2665 36.8834 14.4041C36.7192 14.594 36.5484 14.7776 36.3778 14.9617C36.167 15.1894 35.9591 15.4197 35.7521 15.6509C35.5088 15.9223 35.2639 16.1923 35.0173 16.4608C34.8843 16.6057 34.7522 16.7513 34.6208 16.8977C34.4465 17.0919 34.2703 17.2845 34.0937 17.4767C33.9607 17.6216 33.8286 17.7672 33.6973 17.9136C33.5229 18.1078 33.3468 18.3004 33.1702 18.4926C33.0033 18.6744 32.8381 18.8576 32.6734 19.0415C32.5947 19.1286 32.5154 19.2149 32.4353 19.3008C32.4129 19.325 32.3905 19.3491 32.3674 19.374C32.3041 19.4421 32.2406 19.51 32.177 19.5779C32.0485 19.7253 31.9384 19.877 31.8271 20.0377C32.1327 20.4627 32.4395 20.8866 32.7506 21.3075C32.9602 21.5911 33.1681 21.8757 33.374 22.1618C33.6594 22.5582 33.9488 22.9515 34.2391 23.3443C34.3742 23.5272 34.509 23.7103 34.6439 23.8934C34.6978 23.9665 34.7516 24.0397 34.8055 24.1128C36.4217 26.3062 38.0379 28.4995 39.654 30.6929C39.6807 30.7291 39.7074 30.7653 39.7349 30.8026C39.7887 30.8757 39.8425 30.9488 39.8964 31.0218C40.0315 31.2053 40.1667 31.3887 40.3021 31.5719C40.5671 31.9307 40.8308 32.2904 41.0913 32.6525C41.279 32.9135 41.4691 33.1723 41.6627 33.4289C41.8823 33.7198 42.0967 34.0141 42.3095 34.31C42.5985 34.7114 42.8926 35.1091 43.1866 35.5068C43.5818 36.0416 43.975 36.5777 44.3629 37.1177C44.4328 37.2147 44.5031 37.3113 44.5735 37.4078C44.6162 37.4668 44.659 37.5258 44.7017 37.5848C44.7214 37.6116 44.7412 37.6385 44.7615 37.6662C44.8951 37.8514 44.8951 37.8514 44.8951 37.9542C44.0875 37.9748 43.28 37.9902 42.4721 37.9997C42.097 38.0042 41.722 38.0103 41.347 38.0204C41.0198 38.0292 40.6927 38.0348 40.3654 38.0367C40.1923 38.0379 40.0195 38.0405 39.8465 38.047C38.8005 38.0844 38.8005 38.0844 38.4963 37.8709C38.2959 37.6705 38.1598 37.4441 38.0319 37.193C37.9246 36.9961 37.7873 36.8216 37.6511 36.6439C37.6216 36.6037 37.592 36.5635 37.5616 36.522C37.3577 36.2458 37.1499 35.9728 36.9412 35.7002C36.7212 35.4129 36.5048 35.1241 36.2964 34.8282C36.1309 34.5942 35.9592 34.365 35.7868 34.136C35.5573 33.8311 35.3289 33.5256 35.1028 33.2182C35.0763 33.1822 35.0497 33.1462 35.0224 33.109C34.9158 32.964 34.8092 32.8188 34.7026 32.6737C34.4001 32.2621 34.0965 31.8516 33.7896 31.4433C33.4557 30.9991 33.1258 30.552 32.7968 30.1042C32.4905 29.6874 32.1842 29.2707 31.8733 28.8574C31.5902 28.4811 31.311 28.102 31.0321 27.7225C30.897 27.5389 30.7618 27.3554 30.6265 27.172C30.5726 27.0989 30.5188 27.0257 30.4649 26.9526C30.4249 26.8983 30.4249 26.8983 30.3841 26.843C30.1417 26.5139 30.1417 26.5139 30.0608 26.4042C30.007 26.3312 29.9532 26.2582 29.8994 26.1852C29.7635 26.0008 29.6277 25.8163 29.4919 25.6317C29.2307 25.2765 28.9688 24.9217 28.7044 24.5688C28.6708 24.5239 28.6708 24.5239 28.6366 24.4781C28.5175 24.3195 28.3964 24.163 28.2715 24.0089C27.8173 24.4902 27.8173 24.4902 27.377 24.9842C27.2163 25.1696 27.0506 25.3506 26.8862 25.5327C26.8169 25.6096 26.7477 25.6866 26.6784 25.7636C26.644 25.8019 26.6095 25.8401 26.574 25.8796C26.5064 25.9546 26.439 26.0298 26.3716 26.105C26.1085 26.3984 25.8417 26.6883 25.574 26.9774C25.4989 27.0588 25.4238 27.1402 25.3489 27.2217C25.3241 27.2487 25.2993 27.2756 25.2737 27.3034C25.2264 27.3548 25.1791 27.4062 25.1319 27.4576C24.9516 27.6534 24.9516 27.6534 24.8469 27.7283C24.7118 27.9086 24.7489 28.0851 24.7625 28.3031C24.7669 28.4006 24.7713 28.498 24.7756 28.5954C24.7782 28.6472 24.7808 28.699 24.7834 28.7523C24.7961 29.0296 24.8017 29.307 24.8084 29.5844C24.8169 29.9363 24.8273 30.2876 24.8474 30.639C24.9626 32.72 24.9626 32.72 24.3613 33.4345C24.0111 33.8225 23.6115 34.152 23.1939 34.4644C22.9538 34.6499 22.7299 34.8547 22.5162 35.07C22.4786 35.1077 22.441 35.1455 22.4023 35.1844C22.3629 35.2241 22.3235 35.2639 22.283 35.3048C22.2413 35.3466 22.1997 35.3885 22.1568 35.4316C22.0246 35.5643 21.8926 35.6972 21.7606 35.8301C21.5866 36.0053 21.4125 36.1804 21.2382 36.3553C21.1989 36.3951 21.1595 36.4348 21.119 36.4758C20.9192 36.6763 20.7161 36.8689 20.5014 37.0534C20.3984 37.1432 20.3023 37.2385 20.2068 37.3364C20.171 37.3729 20.1351 37.4093 20.0981 37.4469C20.0239 37.5227 19.9499 37.5986 19.8759 37.6745C19.8403 37.7106 19.8048 37.7466 19.7682 37.7837C19.7362 37.8165 19.7042 37.8493 19.6712 37.883C19.5903 37.9542 19.5903 37.9542 19.498 37.9542C19.4827 37.9999 19.4675 38.0456 19.4518 38.0927C15.6727 38.0927 11.8936 38.0927 8 38.0927C8 36.386 8 34.6794 8 32.9209C9.29525 32.9209 10.5905 32.9209 11.925 32.9209C11.925 25.759 11.925 18.597 11.925 11.218C10.6298 11.218 9.3345 11.218 8 11.218C8 9.51127 8 7.80458 8 6.04618C9.57601 6.04022 11.152 6.03432 12.728 6.02853C12.9166 6.02784 13.1052 6.02714 13.2938 6.02645C13.3501 6.02624 13.3501 6.02624 13.4075 6.02603C14.0049 6.02383 14.6024 6.02158 15.1999 6.01931C15.8188 6.01696 16.4377 6.01467 17.0566 6.01242C17.4593 6.01096 17.862 6.00946 18.2647 6.00788C20.4152 5.99973 22.5654 6 24.7159 6ZM17.0968 11.218C17.0968 18.3799 17.0968 25.5419 17.0968 32.9209C17.9044 32.9209 18.712 32.9209 19.5441 32.9209C19.5441 25.759 19.5441 18.597 19.5441 11.218C18.7365 11.218 17.9289 11.218 17.0968 11.218Z" fill="#EE7380"/>
</svg>
