<svg width="125" height="41" viewBox="0 0 125 41" fill="none" xmlns="http://www.w3.org/2000/svg">
<path d="M19.902 3.97119C19.902 8.90839 19.902 13.8456 19.902 18.9324C20.1064 18.8128 20.1064 18.8128 20.2652 18.662C20.2878 18.6373 20.3104 18.6125 20.3337 18.5871C20.3569 18.561 20.3802 18.535 20.4041 18.5082C20.4286 18.4811 20.4532 18.4541 20.4784 18.4263C20.6294 18.2595 20.7781 18.0908 20.9252 17.9207C21.0364 17.7944 21.1502 17.6708 21.2642 17.5471C21.4045 17.3947 21.5441 17.2419 21.6798 17.0853C21.8351 16.9063 21.9953 16.7318 22.1557 16.5574C22.3605 16.3347 22.5629 16.1099 22.7649 15.8848C22.8342 15.8078 22.9034 15.7308 22.9727 15.6539C23.007 15.6158 23.0413 15.5777 23.0766 15.5384C24.2195 14.2686 24.2195 14.2686 24.3237 14.1528C24.3918 14.0771 24.4599 14.0013 24.5279 13.9255C24.7182 13.7135 24.9097 13.5028 25.1026 13.2931C25.241 13.1426 25.3785 12.9916 25.5124 12.8371C25.6677 12.658 25.8279 12.4836 25.9884 12.3092C26.1932 12.0865 26.3955 11.8617 26.5976 11.6365C26.7015 11.5209 26.8056 11.4054 26.9096 11.2898C26.9777 11.2141 27.0458 11.1384 27.1138 11.0625C27.3041 10.8506 27.4956 10.6398 27.6885 10.4301C27.8269 10.2797 27.9643 10.1286 28.0983 9.97415C28.2536 9.79507 28.4138 9.62065 28.5743 9.44621C28.779 9.22351 28.9815 8.99878 29.1834 8.77356C29.4268 8.50222 29.6715 8.2323 29.9181 7.96389C30.1211 7.74263 30.3221 7.51949 30.5226 7.29591C30.766 7.0245 31.0108 6.75449 31.2574 6.48603C31.4244 6.30413 31.5897 6.12075 31.7545 5.93694C31.876 5.80236 31.9987 5.66886 32.1214 5.53542C32.2845 5.35816 32.4448 5.17896 32.6023 4.99682C32.7513 4.82886 32.9048 4.66505 33.0583 4.50124C33.1621 4.38984 33.2547 4.28288 33.3393 4.1559C33.4459 4.13885 33.4459 4.13885 33.5818 4.13924C33.6333 4.13905 33.6847 4.13886 33.7376 4.13866C33.8226 4.13941 33.8226 4.13941 33.9094 4.14017C33.9986 4.14014 33.9986 4.14014 34.0896 4.14011C34.2529 4.14007 34.4162 4.14089 34.5795 4.14185C34.7501 4.14272 34.9207 4.1428 35.0913 4.14296C35.4144 4.1434 35.7376 4.14453 36.0607 4.14592C36.4286 4.14747 36.7964 4.14823 37.1643 4.14893C37.9211 4.15038 38.6779 4.15281 39.4346 4.1559C39.3723 4.2848 39.3122 4.38314 39.2133 4.48707C39.1882 4.51374 39.1631 4.54041 39.1372 4.56789C39.0973 4.60967 39.0973 4.60967 39.0566 4.6523C39.0016 4.71064 38.9466 4.76902 38.8917 4.82744C38.8524 4.86917 38.8524 4.86917 38.8123 4.91175C38.732 4.99774 38.6542 5.08553 38.5775 5.17467C38.4359 5.33883 38.2891 5.49773 38.1417 5.65664C37.9667 5.8453 37.7944 6.03547 37.626 6.23006C37.4953 6.3786 37.361 6.52382 37.227 6.66944C37.0223 6.89214 36.8199 7.1169 36.6179 7.34208C36.5139 7.45767 36.4099 7.57322 36.3058 7.68877C36.2377 7.76448 36.1696 7.84024 36.1016 7.91604C35.9113 8.12802 35.7198 8.33878 35.527 8.54845C35.3886 8.69893 35.2511 8.84998 35.1171 9.00444C34.9618 9.18352 34.8016 9.35793 34.6411 9.53238C34.4364 9.75508 34.234 9.97981 34.032 10.205C33.8083 10.4545 33.5835 10.703 33.3567 10.9496C33.2192 11.0991 33.0826 11.2491 32.9497 11.4027C32.7824 11.5959 32.6082 11.7826 32.4344 11.97C32.3108 12.1035 32.1885 12.2377 32.0695 12.3753C31.9052 12.5652 31.7344 12.7488 31.5638 12.9329C31.353 13.1606 31.1451 13.3909 30.9382 13.6221C30.6948 13.8935 30.45 14.1635 30.2033 14.432C30.0703 14.5769 29.9382 14.7225 29.8068 14.8689C29.6325 15.0631 29.4564 15.2557 29.2798 15.4479C29.1468 15.5928 29.0147 15.7384 28.8833 15.8848C28.709 16.079 28.5328 16.2716 28.3562 16.4638C28.1893 16.6456 28.0241 16.8288 27.8595 17.0127C27.7807 17.0997 27.7014 17.1861 27.6214 17.272C27.599 17.2962 27.5766 17.3203 27.5535 17.3452C27.4901 17.4133 27.4266 17.4812 27.3631 17.5491C27.2346 17.6965 27.1244 17.8482 27.0131 18.0089C27.3187 18.4339 27.6256 18.8578 27.9367 19.2787C28.1462 19.5623 28.3541 19.8469 28.5601 20.133C28.8455 20.5294 29.1349 20.9227 29.4251 21.3155C29.5602 21.4984 29.6951 21.6815 29.8299 21.8646C29.8838 21.9377 29.9377 22.0108 29.9915 22.084C31.6077 24.2773 33.2239 26.4707 34.8401 28.6641C34.8667 28.7003 34.8934 28.7365 34.9209 28.7738C34.9747 28.8469 35.0286 28.9199 35.0824 28.993C35.2175 29.1765 35.3528 29.3598 35.4882 29.5431C35.7532 29.9019 36.0169 30.2616 36.2773 30.6237C36.465 30.8847 36.6551 31.1435 36.8488 31.4001C37.0683 31.691 37.2827 31.9853 37.4955 32.2811C37.7845 32.6826 38.0786 33.0802 38.3726 33.478C38.7678 34.0128 39.161 34.5489 39.549 35.0889C39.6188 35.1858 39.6891 35.2825 39.7595 35.379C39.8023 35.438 39.845 35.497 39.8878 35.556C39.9075 35.5828 39.9272 35.6097 39.9475 35.6374C40.0811 35.8226 40.0811 35.8226 40.0811 35.9254C39.2735 35.9459 38.466 35.9614 37.6582 35.9708C37.283 35.9754 36.908 35.9815 36.533 35.9916C36.2058 36.0004 35.8788 36.006 35.5515 36.0079C35.3783 36.0091 35.2055 36.0117 35.0325 36.0181C33.9866 36.0555 33.9866 36.0555 33.6824 35.8421C33.4819 35.6417 33.3458 35.4153 33.2179 35.1642C33.1106 34.9672 32.9733 34.7928 32.8372 34.6151C32.8076 34.5749 32.778 34.5346 32.7476 34.4932C32.5437 34.217 32.3359 33.9439 32.1272 33.6714C31.9072 33.3841 31.6908 33.0953 31.4824 32.7994C31.317 32.5653 31.1452 32.3362 30.9728 32.1072C30.7433 31.8023 30.5149 31.4968 30.2888 31.1894C30.2623 31.1534 30.2358 31.1173 30.2085 31.0802C30.1018 30.9352 29.9952 30.79 29.8886 30.6449C29.5862 30.2333 29.2825 29.8227 28.9757 29.4145C28.6417 28.9703 28.3119 28.5232 27.9829 28.0754C27.6766 27.6586 27.3702 27.2419 27.0593 26.8286C26.7762 26.4523 26.497 26.0731 26.2181 25.6937C26.083 25.5101 25.9478 25.3266 25.8126 25.1432C25.7587 25.07 25.7048 24.9969 25.6509 24.9238C25.6109 24.8695 25.6109 24.8695 25.5701 24.8141C25.3277 24.4851 25.3277 24.4851 25.2469 24.3754C25.1931 24.3024 25.1393 24.2294 25.0855 24.1564C24.9496 23.972 24.8137 23.7875 24.678 23.6029C24.4167 23.2477 24.1548 22.8929 23.8905 22.54C23.8569 22.4951 23.8569 22.4951 23.8226 22.4493C23.7035 22.2907 23.5824 22.1342 23.4576 21.9801C23.0033 22.4614 23.0033 22.4614 22.5631 22.9554C22.4023 23.1407 22.2367 23.3218 22.0723 23.5039C22.003 23.5808 21.9337 23.6578 21.8645 23.7348C21.83 23.773 21.7955 23.8113 21.76 23.8508C21.6925 23.9258 21.625 24.001 21.5576 24.0762C21.2946 24.3696 21.0278 24.6595 20.7601 24.9486C20.6849 25.0299 20.6099 25.1114 20.5349 25.1929C20.5101 25.2199 20.4853 25.2468 20.4597 25.2746C20.4124 25.326 20.3652 25.3774 20.3179 25.4288C20.1376 25.6246 20.1376 25.6246 20.033 25.6995C19.8978 25.8798 19.9349 26.0563 19.9486 26.2743C19.953 26.3717 19.9573 26.4692 19.9616 26.5666C19.9642 26.6184 19.9668 26.6702 19.9694 26.7235C19.9821 27.0008 19.9878 27.2782 19.9944 27.5556C20.0029 27.9075 20.0134 28.2588 20.0335 28.6102C20.1486 30.6912 20.1486 30.6912 19.5474 31.4057C19.1972 31.7937 18.7975 32.1232 18.3799 32.4356C18.1399 32.6211 17.9159 32.8259 17.7023 33.0412C17.6646 33.0789 17.627 33.1167 17.5883 33.1556C17.5489 33.1953 17.5096 33.2351 17.469 33.276C17.4274 33.3178 17.3857 33.3597 17.3428 33.4027C17.2107 33.5355 17.0786 33.6683 16.9467 33.8013C16.7727 33.9765 16.5985 34.1516 16.4243 34.3265C16.3849 34.3663 16.3456 34.406 16.305 34.4469C16.1053 34.6475 15.9022 34.8401 15.6875 35.0246C15.5844 35.1144 15.4883 35.2097 15.3929 35.3076C15.357 35.3441 15.3211 35.3805 15.2841 35.4181C15.21 35.4939 15.1359 35.5698 15.0619 35.6457C15.0264 35.6818 14.9908 35.7178 14.9542 35.7549C14.9222 35.7877 14.8902 35.8205 14.8573 35.8542C14.7764 35.9254 14.7764 35.9254 14.684 35.9254C14.6688 35.9711 14.6535 36.0168 14.6378 36.0639C10.8587 36.0639 7.07964 36.0639 3.18604 36.0639C3.18604 34.3572 3.18604 32.6505 3.18604 30.8921C4.48129 30.8921 5.77654 30.8921 7.11104 30.8921C7.11104 23.7302 7.11104 16.5682 7.11104 9.18915C5.81579 9.18915 4.52054 9.18915 3.18604 9.18915C3.18604 7.48246 3.18604 5.77577 3.18604 4.01737C4.76205 4.01141 6.33806 4.00551 7.91407 3.99972C8.10266 3.99903 8.29124 3.99833 8.47983 3.99764C8.53611 3.99743 8.53611 3.99743 8.59353 3.99722C9.19098 3.99502 9.78844 3.99277 10.3859 3.9905C11.0048 3.98815 11.6237 3.98586 12.2427 3.98362C12.6454 3.98215 13.0481 3.98065 13.4508 3.97907C15.6012 3.97092 17.7515 3.97119 19.902 3.97119ZM12.2828 9.18915C12.2828 16.3511 12.2828 23.5131 12.2828 30.8921C13.0904 30.8921 13.8981 30.8921 14.7302 30.8921C14.7302 23.7302 14.7302 16.5682 14.7302 9.18915C13.9226 9.18915 13.1149 9.18915 12.2828 9.18915Z" fill="#EE7380"/>
<path d="M65.063 12.0981C65.9316 12.0981 66.8002 12.0981 67.6951 12.0981C68.5383 13.3103 68.5383 13.3103 68.8408 13.7576C68.9066 13.8547 68.9725 13.9517 69.0383 14.0487C69.0692 14.0943 69.1001 14.1398 69.1319 14.1867C69.3289 14.4765 69.5279 14.7649 69.7268 15.0534C70.0693 15.5505 70.4101 16.0488 70.7499 16.5477C70.8604 16.7099 70.971 16.872 71.0818 17.034C71.8723 18.1902 72.6551 19.3517 73.4325 20.5167C73.4523 20.5464 73.4721 20.5761 73.4926 20.6066C73.8394 21.126 74.1821 21.6481 74.525 22.1701C74.5748 22.2459 74.6246 22.3217 74.6744 22.3974C74.7953 22.5815 74.9162 22.7656 75.0371 22.9496C75.0369 22.9043 75.0368 22.859 75.0366 22.8123C75.0321 21.7093 75.0303 20.6063 75.0313 19.5033C75.0317 18.9698 75.0312 18.4364 75.0287 17.903C75.0266 17.438 75.026 16.9731 75.0274 16.5081C75.0281 16.2619 75.028 16.0158 75.0259 15.7696C75.024 15.5377 75.0243 15.306 75.0262 15.0741C75.0265 14.9892 75.026 14.9042 75.0247 14.8193C75.0154 14.1792 75.0154 14.1792 75.1824 13.9445C75.2982 13.8386 75.4135 13.7533 75.5451 13.6681C75.6168 13.6111 75.6881 13.5535 75.7586 13.495C75.7964 13.4652 75.8342 13.4353 75.8732 13.4046C76.0411 13.2716 76.2072 13.1366 76.3734 13.0015C76.4051 12.9757 76.4369 12.9498 76.4696 12.9232C76.6954 12.7395 76.9209 12.5554 77.1459 12.3707C77.1815 12.3417 77.217 12.3127 77.2536 12.2829C77.3148 12.2315 77.3148 12.2315 77.3772 12.1791C77.4845 12.0981 77.4845 12.0981 77.5768 12.0981C77.5768 17.1268 77.5768 22.1554 77.5768 27.3364C76.7083 27.3364 75.8397 27.3364 74.9448 27.3364C74.7087 27.0118 74.4766 26.6875 74.2521 26.3552C73.9175 25.8622 73.5779 25.3727 73.237 24.884C73.0826 24.6627 72.9286 24.4411 72.7745 24.2195C72.7129 24.131 72.6513 24.0425 72.5898 23.954C72.4666 23.777 72.3435 23.6 72.2204 23.423C72.1899 23.3791 72.1594 23.3353 72.1279 23.2901C72.0666 23.2019 72.0052 23.1136 71.9438 23.0254C71.7871 22.8001 71.6303 22.5748 71.4734 22.3495C71.1856 21.9362 70.8981 21.5228 70.6134 21.1073C70.4957 20.9358 70.3773 20.7649 70.2582 20.5945C69.3533 19.2994 68.4791 17.9843 67.6027 16.6696C67.5875 20.1897 67.5722 23.7097 67.5565 27.3364C66.7337 27.3364 65.9108 27.3364 65.063 27.3364C65.063 22.3078 65.063 17.2792 65.063 12.0981Z" fill="#EE7380"/>
<path d="M107.129 13.6685C107.169 13.702 107.209 13.7356 107.25 13.7702C108.679 14.9976 109.554 16.9344 109.715 18.7941C109.732 19.0959 109.731 19.3981 109.73 19.7003C109.73 19.7412 109.73 19.7822 109.729 19.8244C109.727 20.4132 109.718 20.99 109.577 21.5647C109.567 21.6041 109.557 21.6436 109.548 21.6843C109.18 23.1364 108.519 24.3472 107.499 25.4435C107.468 25.4771 107.438 25.5108 107.406 25.5454C106.132 26.8901 104.21 27.6121 102.382 27.6731C100.326 27.7125 98.3296 27.0994 96.823 25.661C96.7803 25.6197 96.7376 25.5784 96.6935 25.5359C96.6537 25.4984 96.6138 25.4609 96.5727 25.4222C95.557 24.4445 94.9074 23.1199 94.5781 21.7609C94.5646 21.7054 94.5646 21.7054 94.5508 21.6487C94.4071 21.0185 94.3673 20.3985 94.3703 19.7551C94.3704 19.7176 94.3704 19.6801 94.3705 19.6414C94.3727 19.0719 94.3955 18.52 94.5232 17.9629C94.5312 17.9272 94.5391 17.8915 94.5472 17.8547C95.0172 15.788 96.196 14.0456 97.9903 12.8997C98.9259 12.3204 99.9851 11.9486 101.08 11.8214C101.122 11.8163 101.164 11.8113 101.207 11.8061C103.354 11.5876 105.518 12.2256 107.129 13.6685ZM98.4482 15.7464C97.2774 17.0562 96.9345 18.7008 97.0168 20.4103C97.1219 21.8793 97.8598 23.2342 98.9562 24.1967C99.9592 25.0251 101.274 25.4101 102.565 25.2962C103.858 25.155 104.97 24.5186 105.821 23.5474C106.904 22.1879 107.239 20.4775 107.062 18.7753C106.897 17.5556 106.313 16.4399 105.467 15.5617C105.422 15.5118 105.422 15.5118 105.377 15.4609C104.564 14.5809 103.349 14.2096 102.189 14.1302C100.773 14.0816 99.4112 14.7316 98.4482 15.7464Z" fill="#EE7380"/>
<path d="M60.1161 13.8125C60.3177 14.0002 60.5033 14.1925 60.676 14.407C60.712 14.4517 60.7481 14.4963 60.7853 14.5423C61.5323 15.4819 62.0472 16.5548 62.3297 17.7202C62.3387 17.7572 62.3477 17.7943 62.3569 17.8324C62.4993 18.4567 62.542 19.0739 62.5403 19.7116C62.5403 19.7673 62.5403 19.7673 62.5403 19.8242C62.5334 22.0368 61.7065 23.9856 60.1853 25.5818C59.6617 26.0913 59.0634 26.4991 58.4133 26.8285C58.3841 26.8434 58.355 26.8583 58.3249 26.8736C56.4916 27.7966 54.3118 27.9225 52.3642 27.2903C51.2833 26.9209 50.3752 26.3659 49.5474 25.5818C49.482 25.5208 49.482 25.5208 49.4152 25.4586C48.3148 24.4123 47.6664 23.0293 47.3309 21.5644C47.3226 21.5294 47.3144 21.4945 47.3058 21.4585C47.0581 20.3622 47.0783 19.0093 47.3309 17.9164C47.3386 17.8811 47.3463 17.8458 47.3542 17.8094C47.7904 15.8366 48.9601 14.0834 50.6556 12.9755C51.6338 12.3596 52.7376 11.952 53.888 11.8211C53.9311 11.816 53.9742 11.8109 54.0186 11.8056C56.2755 11.5775 58.4291 12.3099 60.1161 13.8125ZM51.5792 15.4229C51.5414 15.456 51.5036 15.4891 51.4646 15.5232C50.9431 16.0143 50.5745 16.62 50.2862 17.27C50.264 17.3197 50.2417 17.3695 50.2188 17.4208C49.9158 18.1516 49.8136 18.926 49.8129 19.7116C49.8129 19.7436 49.8129 19.7757 49.8128 19.8087C49.8136 20.2999 49.8379 20.7636 49.963 21.2412C49.9704 21.2706 49.9779 21.3001 49.9855 21.3304C50.1914 22.1279 50.5579 22.8614 51.0712 23.5038C51.1038 23.5449 51.1365 23.5859 51.1701 23.6283C51.9926 24.6001 53.2314 25.1837 54.4883 25.3047C55.7638 25.3711 57.0322 25.0087 57.9977 24.1503C58.0315 24.1231 58.0652 24.0959 58.1 24.0678C59.1194 23.224 59.7301 21.8331 59.8797 20.5417C60.0146 18.9596 59.7322 17.3006 58.7151 16.0312C58.5614 15.8506 58.3976 15.6814 58.2286 15.5153C58.1906 15.4773 58.1526 15.4394 58.1135 15.4004C57.2341 14.5656 56.0792 14.1668 54.8797 14.126C53.6232 14.1696 52.5241 14.595 51.5792 15.4229Z" fill="#EE7380"/>
<path d="M82.4712 12.0981C83.2941 12.0981 84.1169 12.0981 84.9647 12.0981C84.9647 14.4295 84.9647 16.761 84.9647 19.1631C85.0409 19.0869 85.1171 19.0107 85.1956 18.9322C85.226 18.9024 85.2563 18.8726 85.2876 18.8418C85.4654 18.6666 85.6341 18.4872 85.7968 18.298C85.9098 18.1687 86.0259 18.0425 86.1422 17.9163C86.2826 17.7639 86.4221 17.6111 86.5578 17.4545C86.7131 17.2755 86.8734 17.101 87.0338 16.9266C87.2386 16.7039 87.441 16.4791 87.643 16.254C87.747 16.1384 87.851 16.0228 87.955 15.9073C88.0231 15.8316 88.0912 15.7558 88.1592 15.68C88.3495 15.468 88.541 15.2573 88.7339 15.0476C88.8714 14.8981 89.0079 14.7481 89.1408 14.5945C89.3082 14.4013 89.4824 14.2146 89.6561 14.0272C89.7797 13.8937 89.9021 13.7595 90.0211 13.6219C90.162 13.459 90.3076 13.3008 90.454 13.1428C90.8811 12.715 90.8811 12.715 91.2319 12.2316C91.3244 12.1217 91.3748 12.0996 91.5183 12.0737C91.6967 12.0659 91.8739 12.0669 92.0523 12.071C92.1182 12.0715 92.1841 12.0719 92.2501 12.0722C92.4231 12.0732 92.5961 12.076 92.7691 12.079C92.9458 12.0819 93.1226 12.0831 93.2993 12.0845C93.6458 12.0875 93.9922 12.0922 94.3386 12.0981C94.2718 12.237 94.204 12.3378 94.097 12.4494C94.0676 12.4805 94.0381 12.5116 94.0077 12.5436C93.9615 12.5916 93.9615 12.5916 93.9143 12.6406C93.7065 12.8582 93.5026 13.0775 93.3055 13.3048C93.198 13.4281 93.0873 13.548 92.9764 13.6681C92.8369 13.8194 92.6983 13.9713 92.5637 14.1269C92.3963 14.3201 92.2221 14.5068 92.0483 14.6942C91.9247 14.8277 91.8024 14.9619 91.6834 15.0995C91.5171 15.2919 91.3438 15.4775 91.171 15.6639C91.0474 15.7974 90.9251 15.9316 90.8061 16.0692C90.6418 16.2592 90.4709 16.4429 90.3002 16.6271C90.1251 16.8161 89.9522 17.007 89.7803 17.1989C89.6594 17.3331 89.5372 17.466 89.415 17.5988C89.2492 17.7791 89.0857 17.9611 88.9253 18.1461C88.7617 18.3331 88.5946 18.517 88.428 18.7013C88.5045 18.8703 88.6083 19.0164 88.7166 19.166C88.7366 19.1939 88.7567 19.2218 88.7774 19.2505C89.0304 19.6012 89.2877 19.9487 89.5448 20.2965C89.6806 20.4803 89.8162 20.6644 89.9518 20.8485C90.0057 20.9216 90.0595 20.9948 90.1134 21.0679C90.6521 21.799 91.1909 22.5301 91.7296 23.2612C91.7563 23.2974 91.7829 23.3336 91.8104 23.3709C91.8643 23.444 91.9181 23.5171 91.9719 23.5902C92.1071 23.7736 92.2423 23.957 92.3777 24.1402C92.6406 24.4963 92.9024 24.853 93.1611 25.2122C93.3683 25.5 93.577 25.7867 93.7873 26.0722C93.814 26.1084 93.8406 26.1446 93.868 26.1818C94.0014 26.3626 94.1357 26.5426 94.2717 26.7214C94.2975 26.7555 94.3234 26.7896 94.35 26.8248C94.399 26.8893 94.4482 26.9536 94.4977 27.0178C94.6618 27.2338 94.6618 27.2338 94.6618 27.3363C94.2773 27.359 93.893 27.3761 93.508 27.3866C93.3291 27.3916 93.1506 27.3984 92.972 27.4095C91.8251 27.4789 91.8251 27.4789 91.4786 27.2447C91.2511 27.0229 91.0919 26.7693 90.9435 26.4901C90.8374 26.298 90.7065 26.1262 90.5752 25.951C90.5266 25.8836 90.4782 25.816 90.43 25.7483C90.2568 25.5085 90.077 25.2738 89.897 25.039C89.676 24.7508 89.4585 24.4612 89.2493 24.1642C89.0838 23.9301 88.9121 23.7009 88.7397 23.4719C88.4292 23.0596 88.1222 22.6449 87.8166 22.2289C87.7326 22.1146 87.6484 22.0004 87.5641 21.8862C87.2813 21.5028 86.9988 21.1191 86.7194 20.7331C86.5397 20.805 86.4395 20.9184 86.3125 21.0621C86.2921 21.085 86.2717 21.1079 86.2506 21.1316C86.113 21.2864 85.9774 21.4429 85.8415 21.5993C85.7174 21.7392 85.5909 21.8769 85.464 22.0145C85.4404 22.0401 85.4168 22.0658 85.3924 22.0922C85.3697 22.1168 85.3469 22.1414 85.3235 22.1667C85.3033 22.1885 85.2831 22.2104 85.2623 22.2329C85.1956 22.3031 85.1956 22.3031 85.1001 22.3847C84.9905 22.5114 84.9896 22.5646 84.9945 22.7296C84.9954 22.7779 84.9962 22.8261 84.9971 22.8759C84.9988 22.9279 85.0005 22.9799 85.0022 23.0334C85.0034 23.1442 85.0044 23.2549 85.0053 23.3656C85.0077 23.5397 85.0109 23.7137 85.0161 23.8878C85.0425 24.8484 85.0425 24.8484 84.8718 25.1402C84.7541 25.246 84.6366 25.3312 84.5054 25.4185C84.3021 25.5702 84.1321 25.7615 83.9557 25.9429C83.8738 26.0255 83.7919 26.108 83.7098 26.1905C83.5829 26.3186 83.456 26.4468 83.3292 26.5751C83.2054 26.7003 83.0813 26.8252 82.9571 26.9501C82.9189 26.989 82.8808 27.0278 82.8414 27.0677C82.8062 27.1031 82.771 27.1384 82.7348 27.1748C82.7039 27.2061 82.6729 27.2374 82.641 27.2696C82.5635 27.3363 82.5635 27.3363 82.4712 27.3363C82.4712 22.3077 82.4712 17.2791 82.4712 12.0981Z" fill="#EE7380"/>
<path d="M38.7881 12.0059C41.3329 12.0059 43.8777 12.0059 46.4996 12.0059C46.4996 12.844 46.4996 13.6821 46.4996 14.5456C45.3872 14.5456 44.2748 14.5456 43.1287 14.5456C43.1287 17.9589 43.1287 21.3723 43.1287 24.8891C44.2411 24.8891 45.3535 24.8891 46.4996 24.8891C46.4077 25.1189 46.3417 25.1995 46.1677 25.3653C46.0221 25.5064 45.878 25.6468 45.7463 25.8011C45.5641 26.0144 45.3716 26.2177 45.1798 26.4223C44.9592 26.6578 44.7409 26.8952 44.5235 27.1337C44.4899 27.1702 44.4563 27.2066 44.4216 27.2441C44.4013 27.2689 44.381 27.2937 44.3601 27.3193C44.2559 27.405 44.1918 27.3997 44.0578 27.3993C44.0114 27.3995 43.965 27.3997 43.9171 27.3999C43.8663 27.3994 43.8154 27.3989 43.7629 27.3984C43.6825 27.3984 43.6825 27.3984 43.6005 27.3984C43.4228 27.3984 43.2452 27.3973 43.0675 27.3962C42.9445 27.3959 42.8215 27.3957 42.6985 27.3956C42.4076 27.3952 42.1167 27.394 41.8257 27.3926C41.462 27.3909 41.0983 27.3902 40.7346 27.3894C40.0858 27.3881 39.4369 27.3853 38.7881 27.3827C38.7881 26.5598 38.7881 25.7369 38.7881 24.8891C39.3976 24.8891 40.0071 24.8891 40.6351 24.8891C40.6351 21.4758 40.6351 18.0624 40.6351 14.5456C40.0256 14.5456 39.4161 14.5456 38.7881 14.5456C38.7881 13.7075 38.7881 12.8694 38.7881 12.0059Z" fill="#EE7380"/>
<path d="M112.255 12.0981C113.078 12.0981 113.901 12.0981 114.749 12.0981C114.749 16.3649 114.749 20.6316 114.749 25.0276C116.456 25.0276 118.162 25.0276 119.921 25.0276C120.196 25.3525 120.469 25.6761 120.737 26.006C120.856 26.1505 120.977 26.2934 121.098 26.436C121.183 26.536 121.268 26.636 121.352 26.7361C121.373 26.7607 121.394 26.7853 121.415 26.8107C121.474 26.8809 121.533 26.9513 121.592 27.0218C121.626 27.0625 121.66 27.1031 121.695 27.145C121.768 27.2441 121.768 27.2441 121.768 27.3364C118.629 27.3364 115.49 27.3364 112.255 27.3364C112.255 22.3078 112.255 17.2792 112.255 12.0981Z" fill="#EE7380"/>
</svg>
