<svg width="225" height="60" viewBox="0 0 225 60" fill="none" xmlns="http://www.w3.org/2000/svg">
<path d="M75.6875 10.8354C77.859 10.8354 80.0304 10.8354 82.2677 10.8354C84.3758 13.8659 84.3758 13.8659 85.1321 14.9841C85.2966 15.2268 85.4612 15.4694 85.6258 15.7119C85.7031 15.8258 85.7803 15.9396 85.8598 16.0568C86.3523 16.7813 86.8498 17.5024 87.3471 18.2237C88.2033 19.4664 89.0552 20.712 89.9048 21.9593C90.181 22.3648 90.4576 22.7701 90.7346 23.1751C92.7107 26.0656 94.6678 28.9693 96.6113 31.8819C96.6608 31.9561 96.7104 32.0303 96.7615 32.1067C97.6285 33.4052 98.4853 34.7103 99.3425 36.0153C99.467 36.2048 99.5915 36.3942 99.7159 36.5837C100.018 37.0438 100.321 37.504 100.623 37.9642C100.622 37.8509 100.622 37.7376 100.621 37.6209C100.61 34.8634 100.606 32.1058 100.608 29.3482C100.609 28.0147 100.608 26.6812 100.602 25.3476C100.596 24.1851 100.595 23.0227 100.599 21.8602C100.6 21.2448 100.6 20.6295 100.595 20.0141C100.59 19.4344 100.591 18.855 100.595 18.2753C100.596 18.063 100.595 17.8506 100.592 17.6383C100.568 16.0382 100.568 16.0382 100.986 15.4513C101.276 15.1865 101.564 14.9733 101.893 14.7605C102.072 14.6178 102.25 14.4737 102.427 14.3276C102.521 14.253 102.616 14.1784 102.713 14.1016C103.133 13.7692 103.548 13.4317 103.963 13.0938C104.043 13.0292 104.122 12.9647 104.204 12.8982C104.769 12.4389 105.332 11.9785 105.895 11.5168C105.984 11.4444 106.073 11.3719 106.164 11.2972C106.317 11.1689 106.317 11.1689 106.473 11.0379C106.741 10.8354 106.741 10.8354 106.972 10.8354C106.972 23.407 106.972 35.9786 106.972 48.9311C104.801 48.9311 102.629 48.9311 100.392 48.9311C99.8017 48.1196 99.2216 47.3087 98.6603 46.478C97.8237 45.2455 96.9748 44.0219 96.1225 42.8002C95.7366 42.2467 95.3514 41.6928 94.9662 41.1388C94.8123 40.9176 94.6584 40.6963 94.5045 40.475C94.1966 40.0325 93.8888 39.59 93.5809 39.1475C93.5047 39.0379 93.4284 38.9283 93.3499 38.8154C93.1964 38.5948 93.043 38.3742 92.8895 38.1536C92.4977 37.5902 92.1057 37.027 91.7136 36.4639C90.9941 35.4306 90.2752 34.397 89.5635 33.3583C89.2694 32.9296 88.9734 32.5024 88.6756 32.0762C86.4132 28.8387 84.2278 25.5507 82.0368 22.2642C81.9987 31.0643 81.9606 39.8644 81.9213 48.9311C79.8642 48.9311 77.807 48.9311 75.6875 48.9311C75.6875 36.3596 75.6875 23.788 75.6875 10.8354Z" fill="#EE7380"/>
<path d="M180.853 14.7608C180.953 14.8447 181.052 14.9286 181.154 15.0151C184.728 18.0837 186.914 22.9256 187.318 27.5748C187.359 28.3294 187.357 29.0848 187.354 29.8403C187.354 29.9427 187.354 30.0451 187.353 30.1506C187.348 31.6226 187.325 33.0646 186.972 34.5013C186.948 34.6 186.923 34.6987 186.899 34.8004C185.981 38.4306 184.328 41.4575 181.777 44.1984C181.7 44.2824 181.624 44.3665 181.545 44.4531C178.359 47.8148 173.554 49.6199 168.984 49.7725C163.845 49.8709 158.854 48.338 155.087 44.7422C154.981 44.6389 154.874 44.5356 154.764 44.4292C154.664 44.3355 154.564 44.2417 154.461 44.1451C151.922 41.701 150.298 38.3893 149.475 34.9919C149.441 34.853 149.441 34.853 149.407 34.7113C149.047 33.1359 148.948 31.5859 148.955 29.9774C148.956 29.8836 148.956 29.7898 148.956 29.6931C148.961 28.2695 149.019 26.8896 149.338 25.4968C149.358 25.4076 149.377 25.3183 149.398 25.2263C150.573 20.0597 153.52 15.7037 158.005 12.8389C160.345 11.3907 162.992 10.4611 165.731 10.1431C165.835 10.1305 165.94 10.1178 166.048 10.1048C171.416 9.55852 176.825 11.1535 180.853 14.7608ZM159.15 19.9556C156.223 23.2302 155.366 27.3417 155.572 31.6152C155.834 35.2878 157.679 38.6751 160.42 41.0814C162.928 43.1524 166.216 44.115 169.443 43.83C172.675 43.477 175.454 41.886 177.582 39.458C180.289 36.0592 181.127 31.7833 180.685 27.5279C180.273 24.4785 178.813 21.6894 176.697 19.4939C176.586 19.3691 176.586 19.3691 176.472 19.2418C174.44 17.042 171.403 16.1136 168.501 15.9152C164.962 15.7935 161.558 17.4185 159.15 19.9556Z" fill="#EE7380"/>
<path d="M63.3197 15.1216C63.8238 15.5908 64.2878 16.0716 64.7194 16.6079C64.8096 16.7195 64.8998 16.8311 64.9927 16.9461C66.8603 19.2952 68.1476 21.9774 68.8537 24.8908C68.8762 24.9834 68.8987 25.076 68.9219 25.1714C69.2778 26.7322 69.3845 28.275 69.3804 29.8692C69.3803 30.0086 69.3803 30.0086 69.3802 30.1508C69.3631 35.6822 67.2958 40.5542 63.4929 44.5447C62.1838 45.8186 60.6881 46.8382 59.0628 47.6616C58.9899 47.6988 58.917 47.736 58.8419 47.7743C54.2586 50.0818 48.8089 50.3967 43.94 48.816C41.2377 47.8926 38.9675 46.5051 36.898 44.5447C36.7344 44.3923 36.7344 44.3923 36.5675 44.2367C33.8166 41.6211 32.1956 38.1636 31.3569 34.5013C31.3361 34.414 31.3154 34.3266 31.2941 34.2366C30.6748 31.4959 30.7254 28.1136 31.3569 25.3814C31.376 25.2931 31.3952 25.2048 31.415 25.1138C32.5056 20.1819 35.4299 15.7989 39.6686 13.0292C42.114 11.4895 44.8734 10.4703 47.7495 10.1432C47.8573 10.1304 47.965 10.1176 48.076 10.1044C53.7184 9.53398 59.1022 11.365 63.3197 15.1216ZM41.9775 19.1476C41.883 19.2303 41.7885 19.3131 41.6911 19.3983C40.3872 20.6261 39.4657 22.1402 38.7451 23.7653C38.6894 23.8897 38.6338 24.0141 38.5765 24.1422C37.819 25.9694 37.5635 27.9053 37.5618 29.8692C37.5618 29.9494 37.5617 30.0295 37.5616 30.1121C37.5635 31.3402 37.6243 32.4994 37.937 33.6932C37.9556 33.7669 37.9742 33.8405 37.9933 33.9164C38.5079 35.91 39.4244 37.7437 40.7076 39.3498C40.7892 39.4525 40.8707 39.5552 40.9547 39.661C43.011 42.0905 46.108 43.5496 49.2503 43.8521C52.439 44.018 55.6101 43.1121 58.0238 40.966C58.1082 40.898 58.1926 40.83 58.2795 40.7599C60.8281 38.6503 62.3549 35.1732 62.7289 31.9445C63.0661 27.9892 62.3599 23.8419 59.8173 20.6683C59.4332 20.2169 59.0235 19.7939 58.601 19.3785C58.5061 19.2837 58.4112 19.1889 58.3133 19.0912C56.1148 17.0044 53.2275 16.0074 50.2288 15.9053C47.0874 16.0143 44.3398 17.078 41.9775 19.1476Z" fill="#EE7380"/>
<path d="M119.208 10.8362C121.265 10.8362 123.322 10.8362 125.442 10.8362C125.442 16.6649 125.442 22.4935 125.442 28.4988C125.632 28.3083 125.823 28.1178 126.019 27.9215C126.095 27.847 126.171 27.7724 126.249 27.6956C126.693 27.2577 127.115 26.809 127.522 26.336C127.804 26.0129 128.095 25.6974 128.386 25.3818C128.736 25.0009 129.085 24.6188 129.425 24.2274C129.813 23.7797 130.213 23.3437 130.615 22.9076C131.126 22.3508 131.632 21.7889 132.137 21.2259C132.397 20.937 132.658 20.6481 132.918 20.3592C133.088 20.17 133.258 19.9806 133.428 19.791C133.904 19.2611 134.383 18.7342 134.865 18.21C135.208 17.8363 135.55 17.4612 135.882 17.0773C136.301 16.5943 136.736 16.1275 137.17 15.6591C137.479 15.3253 137.785 14.9899 138.083 14.6458C138.435 14.2385 138.799 13.8431 139.165 13.4481C140.233 12.3785 140.233 12.3785 141.11 11.1701C141.341 10.8953 141.467 10.84 141.826 10.7753C142.272 10.7558 142.715 10.7583 143.161 10.7686C143.326 10.7699 143.49 10.7709 143.655 10.7715C144.088 10.7742 144.52 10.781 144.953 10.7887C145.395 10.7958 145.836 10.7989 146.278 10.8024C147.144 10.8098 148.01 10.8216 148.876 10.8362C148.71 11.1836 148.54 11.4357 148.273 11.7147C148.199 11.7923 148.125 11.87 148.049 11.95C147.934 12.0701 147.934 12.0701 147.816 12.1927C147.296 12.7365 146.786 13.2848 146.294 13.8531C146.025 14.1612 145.748 14.461 145.471 14.7612C145.122 15.1396 144.776 15.5192 144.439 15.9084C144.021 16.3914 143.585 16.8581 143.151 17.3266C142.842 17.6604 142.536 17.9958 142.239 18.3399C141.823 18.8208 141.39 19.2849 140.957 19.7509C140.648 20.0847 140.343 20.42 140.045 20.7642C139.634 21.2391 139.207 21.6982 138.781 22.1587C138.343 22.6314 137.911 23.1086 137.481 23.5884C137.178 23.9237 136.873 24.256 136.568 24.5882C136.153 25.0389 135.744 25.4937 135.343 25.9563C134.934 26.4239 134.516 26.8835 134.1 27.3443C134.291 27.7668 134.551 28.132 134.821 28.506C134.872 28.5757 134.922 28.6455 134.974 28.7174C135.606 29.594 136.249 30.4629 136.892 31.3322C137.232 31.7919 137.571 32.2522 137.91 32.7124C138.044 32.8952 138.179 33.0779 138.314 33.2607C139.66 35.0885 141.007 36.9164 142.354 38.7442C142.421 38.8347 142.487 38.9252 142.556 39.0184C142.691 39.2011 142.825 39.3838 142.96 39.5665C143.298 40.0251 143.636 40.4835 143.974 40.9416C144.632 41.8317 145.286 42.7236 145.933 43.6216C146.451 44.341 146.973 45.0578 147.498 45.7717C147.565 45.8621 147.631 45.9525 147.7 46.0456C148.033 46.4975 148.369 46.9475 148.709 47.3946C148.774 47.4799 148.838 47.5651 148.905 47.653C149.028 47.8142 149.151 47.9751 149.274 48.1356C149.685 48.6755 149.685 48.6755 149.685 48.9319C148.723 48.9885 147.763 49.0314 146.8 49.0575C146.353 49.0701 145.907 49.087 145.46 49.1148C142.593 49.2884 142.593 49.2884 141.727 48.7029C141.158 48.1483 140.76 47.5143 140.389 46.8162C140.124 46.3361 139.796 45.9066 139.468 45.4687C139.347 45.2999 139.226 45.131 139.105 44.9618C138.672 44.3622 138.222 43.7756 137.772 43.1887C137.22 42.468 136.676 41.744 136.153 41.0016C135.74 40.4164 135.31 39.8434 134.879 39.2709C134.103 38.24 133.336 37.2032 132.572 36.1634C132.361 35.8776 132.151 35.5921 131.94 35.3066C131.233 34.348 130.527 33.3889 129.829 32.4238C129.379 32.6035 129.129 32.8872 128.811 33.2463C128.76 33.3036 128.709 33.3609 128.657 33.42C128.313 33.807 127.974 34.1984 127.634 34.5892C127.324 34.9392 127.007 35.2834 126.69 35.6273C126.631 35.6914 126.572 35.7555 126.511 35.8216C126.454 35.883 126.397 35.9445 126.339 36.0079C126.288 36.0624 126.238 36.117 126.186 36.1732C126.019 36.3488 126.019 36.3488 125.78 36.5528C125.506 36.8694 125.504 37.0026 125.516 37.4151C125.518 37.5357 125.521 37.6564 125.523 37.7807C125.527 37.9107 125.531 38.0407 125.536 38.1746C125.538 38.4514 125.541 38.7283 125.543 39.0051C125.549 39.4404 125.557 39.8754 125.57 40.3106C125.636 42.7121 125.636 42.7121 125.209 43.4415C124.915 43.706 124.621 43.919 124.294 44.1373C123.785 44.5167 123.36 44.9947 122.919 45.4484C122.715 45.6548 122.51 45.8611 122.305 46.0673C121.987 46.3876 121.67 46.708 121.353 47.0288C121.044 47.3418 120.733 47.6542 120.423 47.9664C120.327 48.0634 120.232 48.1605 120.134 48.2604C120.046 48.3488 119.958 48.4371 119.867 48.5282C119.79 48.6064 119.712 48.6846 119.633 48.7651C119.439 48.9319 119.439 48.9319 119.208 48.9319C119.208 36.3603 119.208 23.7887 119.208 10.8362Z" fill="#EE7380"/>
<path d="M10 10.605C16.362 10.605 22.724 10.605 29.2787 10.605C29.2787 12.7002 29.2787 14.7955 29.2787 16.9543C26.4977 16.9543 23.7168 16.9543 20.8515 16.9543C20.8515 25.4877 20.8515 34.0211 20.8515 42.8131C23.6325 42.8131 26.4135 42.8131 29.2787 42.8131C29.0489 43.3876 28.884 43.589 28.449 44.0036C28.085 44.3564 27.7249 44.7072 27.3956 45.0931C26.94 45.6262 26.4588 46.1346 25.9793 46.6462C25.4278 47.2349 24.882 47.8284 24.3386 48.4247C24.2546 48.5158 24.1705 48.6068 24.0839 48.7007C24.0331 48.7626 23.9823 48.8246 23.93 48.8885C23.6696 49.1029 23.5092 49.0897 23.1744 49.0886C23.0583 49.0891 22.9422 49.0896 22.8226 49.0901C22.6954 49.0888 22.5682 49.0876 22.4372 49.0863C22.2361 49.0864 22.2361 49.0864 22.031 49.0865C21.5868 49.0862 21.1428 49.0835 20.6986 49.0808C20.3911 49.0802 20.0836 49.0796 19.7761 49.0793C19.0488 49.0782 18.3215 49.0754 17.5941 49.0719C16.6849 49.0677 15.7756 49.0658 14.8664 49.0639C13.2442 49.0605 11.6221 49.0536 10 49.047C10 46.9898 10 44.9327 10 42.8131C11.5238 42.8131 13.0477 42.8131 14.6177 42.8131C14.6177 34.2797 14.6177 25.7463 14.6177 16.9543C13.0938 16.9543 11.57 16.9543 10 16.9543C10 14.859 10 12.7637 10 10.605Z" fill="#EE7380"/>
<path d="M193.668 10.8354C195.725 10.8354 197.782 10.8354 199.902 10.8354C199.902 21.5022 199.902 32.169 199.902 43.1591C204.169 43.1591 208.435 43.1591 212.831 43.1591C213.519 43.9713 214.202 44.7805 214.873 45.605C215.17 45.9664 215.472 46.3235 215.775 46.68C215.987 46.93 216.198 47.1801 216.41 47.4304C216.462 47.4919 216.514 47.5534 216.567 47.6168C216.715 47.7922 216.862 47.9684 217.009 48.1447C217.094 48.2463 217.179 48.348 217.266 48.4527C217.449 48.7002 217.449 48.7002 217.449 48.9311C209.601 48.9311 201.753 48.9311 193.668 48.9311C193.668 36.3596 193.668 23.788 193.668 10.8354Z" fill="#EE7380"/>
</svg>
