<svg width="260" height="99" viewBox="0 0 260 99" fill="none" xmlns="http://www.w3.org/2000/svg">
<path d="M206.825 77.7948L206.155 63.4877L239.828 31.68H258.475L206.825 77.7948ZM194.215 98.7445V4.21548H208.033L208.301 85.4594L194.215 98.7445ZM241.706 98.7445L215.143 69.2361L224.936 60.6774L259.414 98.7445H241.706Z" fill="#ED7380"/>
<path d="M114.429 98.7445V31.68H128.247V45.4761L125.832 47.009C126.726 44.0284 128.47 41.3032 131.064 38.8335C133.658 36.2787 136.743 34.2348 140.321 32.7019C143.898 31.0839 147.565 30.2748 151.321 30.2748C156.688 30.2748 161.16 31.2968 164.737 33.3406C168.315 35.2994 170.998 38.3226 172.786 42.4103C174.575 46.4981 175.47 51.6503 175.47 57.8671V85.4594L161.651 98.7445V58.7613C161.651 54.929 161.115 51.7781 160.042 49.3084C158.968 46.7535 157.314 44.9226 155.078 43.8155C152.842 42.6232 150.069 42.1123 146.76 42.2826C144.077 42.2826 141.618 42.7084 139.382 43.56C137.146 44.3265 135.178 45.4335 133.479 46.8813C131.869 48.329 130.572 50.0323 129.588 51.991C128.694 53.8645 128.247 55.9084 128.247 58.1226V98.7445H121.405C120.242 98.7445 119.079 98.7445 117.917 98.7445C116.754 98.7445 115.591 98.7445 114.429 98.7445Z" fill="#ED7380"/>
<path d="M79.371 98.7445V44.0423L93.189 31.68V98.7445H79.371ZM86.0788 16.8619C83.1273 16.8619 80.8467 16.1381 79.2368 14.6903C77.627 13.2426 76.822 11.1987 76.822 8.55871C76.822 6.08903 77.627 4.08774 79.2368 2.55484C80.9361 1.02194 83.2168 0.255484 86.0788 0.255484C89.0302 0.255484 91.3108 0.979356 92.9207 2.4271C94.5306 3.87484 95.3355 5.91871 95.3355 8.55871C95.3355 11.0284 94.4859 13.0297 92.7866 14.5626C91.1767 16.0955 88.9408 16.8619 86.0788 16.8619Z" fill="#ED7380"/>
<path d="M0.268312 98.7445V9.32516H14.7571V85.4594L49.7718 85.2039L58.7603 98.7445H0.268312Z" fill="#ED7380"/>
<path d="M208.033 4.21548H194.215V98.7445L208.301 85.4594L208.033 76.7168L215.708 69.8639L241.706 98.7445H259.414L225.411 61.2011L258.475 31.68H239.828L208.033 61.7136V4.21548ZM208.301 61.1003L239.717 31.4245H259.154L225.782 61.2198L260 99H241.582L241.502 98.9107L215.687 70.2329L208.301 76.8273V85.4594L193.946 99V3.96H208.301V61.1003Z" fill="#ED7380"/>
<path d="M128.247 58.1226C128.247 55.9084 128.694 53.8645 129.588 51.991C130.572 50.0323 131.869 48.329 133.479 46.8813C135.125 45.4788 137.023 44.396 139.173 43.6329L139.382 43.56C141.548 42.735 143.924 42.3096 146.509 42.2838L146.76 42.2826C150.069 42.1123 152.842 42.6232 155.078 43.8155C157.314 44.9226 158.968 46.7535 160.042 49.3084C161.115 51.7781 161.651 54.929 161.651 58.7613V98.7445L175.47 85.4594V57.8671C175.47 51.8445 174.63 46.821 172.951 42.7965L172.786 42.4103C170.998 38.3226 168.315 35.2994 164.737 33.3406C161.271 31.3606 156.966 30.3397 151.822 30.2778L151.321 30.2748C147.565 30.2748 143.898 31.0839 140.321 32.7019C136.743 34.2348 133.658 36.2787 131.064 38.8335C129.975 39.8705 129.036 40.9529 128.247 42.08V31.68H114.429V98.7445H128.247V58.1226ZM128.515 41.2666C129.205 40.3653 129.991 39.494 130.874 38.6529C133.492 36.075 136.605 34.0138 140.211 32.4689C143.82 30.837 147.525 30.0194 151.321 30.0194C156.72 30.0194 161.242 31.0472 164.871 33.1191L165.04 33.2132C168.591 35.2055 171.254 38.2439 173.034 42.312L173.201 42.7022C174.896 46.7661 175.738 51.8242 175.738 57.8671L175.47 85.4594L161.383 99V58.7613C161.383 54.9492 160.849 51.8345 159.794 49.4062L159.792 49.4032C158.739 46.8964 157.125 45.117 154.954 44.0423L154.947 44.0383C152.767 42.8757 150.048 42.3691 146.775 42.5376L146.768 42.5381H146.76C144.107 42.5381 141.682 42.959 139.481 43.7973L139.477 43.7988L139.473 43.8003C137.268 44.5561 135.33 45.6467 133.658 47.0717C132.075 48.4962 130.799 50.1721 129.83 52.1012C128.954 53.9379 128.515 55.9438 128.515 58.1226V99H114.16V31.4245H128.515V41.2666Z" fill="#ED7380"/>
<path d="M93.189 31.68L79.371 44.0423V98.7445H93.189V31.68ZM95.3355 8.55871C95.3355 6.00121 94.5801 4.00316 93.0693 2.56457L92.9207 2.4271C91.3612 1.02462 89.1722 0.301328 86.3536 0.25748L86.0788 0.255484C83.2168 0.255484 80.9361 1.02194 79.2368 2.55484L79.0883 2.6998C77.5774 4.21316 76.822 6.16618 76.822 8.55871L76.8244 8.80446C76.8731 11.3259 77.6773 13.2878 79.2368 14.6903C80.7964 16.0928 82.9855 16.8159 85.8042 16.8597L86.0788 16.8619C88.9408 16.8619 91.1767 16.0955 92.7866 14.5626C94.4328 13.0776 95.2817 11.1529 95.3332 8.78874L95.3355 8.55871ZM93.4573 99H79.1027L79.371 44.0423L93.4573 31.4245V99ZM95.6038 8.55871C95.6038 11.0876 94.7314 13.157 92.976 14.743L92.9763 14.7432C91.3039 16.3356 88.9926 17.1174 86.0788 17.1174C83.1759 17.1174 80.8749 16.427 79.2117 15.0149L79.0526 14.8759C77.3762 13.3684 76.5537 11.2501 76.5537 8.55871C76.5537 6.03154 77.3798 3.96182 79.0471 2.3742L79.0497 2.37171L79.0524 2.36946C80.8121 0.782047 83.1643 3.23239e-07 86.0788 0C89.0753 0 91.4305 0.735698 93.1049 2.24147L93.2595 2.38443C94.8319 3.88186 95.6038 5.95136 95.6038 8.55871Z" fill="#ED7380"/>
<path d="M49.7718 85.2039L14.7571 85.4594V9.32516H0.268312V98.7445H58.7603L49.7718 85.2039ZM15.0255 85.2039H49.7718L59.0286 99H0V9.06968H15.0255V85.2039Z" fill="#ED7380"/>
</svg>
