<svg width="43" height="42" viewBox="0 0 43 42" fill="none" xmlns="http://www.w3.org/2000/svg">
<path d="M14.6665 36.75H28.6665M21.6665 29.75V36.75M12.5665 29.75H30.7665C33.7068 29.75 35.1769 29.75 36.3 29.1778C37.2878 28.6744 38.091 27.8713 38.5943 26.8835C39.1665 25.7604 39.1665 24.2903 39.1665 21.35V13.65C39.1665 10.7097 39.1665 9.23959 38.5943 8.11655C38.091 7.1287 37.2878 6.32555 36.3 5.82222C35.1769 5.25 33.7068 5.25 30.7665 5.25H12.5665C9.62623 5.25 8.15609 5.25 7.03305 5.82222C6.0452 6.32555 5.24205 7.1287 4.73872 8.11655C4.1665 9.23959 4.1665 10.7097 4.1665 13.65V21.35C4.1665 24.2903 4.1665 25.7604 4.73872 26.8835C5.24205 27.8713 6.0452 28.6744 7.03305 29.1778C8.15609 29.75 9.62623 29.75 12.5665 29.75Z" stroke="#ED707E" stroke-width="2" stroke-linecap="round" stroke-linejoin="round"/>
</svg>
