<svg width="49" height="48" viewBox="0 0 49 48" fill="none" xmlns="http://www.w3.org/2000/svg">
<path d="M10.3334 26C10.3334 29.2968 11.6628 32.283 13.8148 34.4519C14.0224 34.6611 14.1262 34.7657 14.1874 34.8663C14.2459 34.9622 14.2799 35.0448 14.306 35.1541C14.3334 35.2687 14.3334 35.399 14.3334 35.6597V40.4C14.3334 40.9601 14.3334 41.2401 14.4424 41.454C14.5382 41.6422 14.6912 41.7951 14.8794 41.891C15.0933 42 15.3733 42 15.9334 42H19.7334C20.2934 42 20.5734 42 20.7873 41.891C20.9755 41.7951 21.1285 41.6422 21.2244 41.454C21.3334 41.2401 21.3334 40.9601 21.3334 40.4V39.6C21.3334 39.0399 21.3334 38.7599 21.4424 38.546C21.5382 38.3578 21.6912 38.2049 21.8794 38.109C22.0933 38 22.3733 38 22.9334 38H25.7334C26.2934 38 26.5734 38 26.7873 38.109C26.9755 38.2049 27.1285 38.3578 27.2244 38.546C27.3334 38.7599 27.3334 39.0399 27.3334 39.6V40.4C27.3334 40.9601 27.3334 41.2401 27.4424 41.454C27.5382 41.6422 27.6912 41.7951 27.8794 41.891C28.0933 42 28.3733 42 28.9334 42H32.7335C33.2935 42 33.5736 42 33.7875 41.891C33.9756 41.7951 34.1286 41.6422 34.2245 41.454C34.3335 41.2401 34.3335 40.9601 34.3335 40.4V38.4487C34.3335 38.0445 34.3335 37.8425 34.391 37.6803C34.4462 37.5248 34.5156 37.416 34.6334 37.3005C34.7563 37.18 34.9645 37.0834 35.3809 36.89C37.3453 35.978 39.0216 34.5501 40.2357 32.7803C40.4492 32.4691 40.556 32.3135 40.67 32.2216C40.779 32.1337 40.8768 32.0822 41.011 32.042C41.1513 32 41.3178 32 41.651 32H42.7335C43.2935 32 43.5736 32 43.7875 31.891C43.9757 31.7951 44.1286 31.6422 44.2245 31.454C44.3335 31.2401 44.3335 30.9601 44.3335 30.4V23.5715C44.3335 23.0383 44.3335 22.7717 44.2344 22.5661C44.1362 22.362 43.9715 22.1973 43.7674 22.0991C43.5618 22 43.2952 22 42.762 22C42.3761 22 42.1831 22 42.0277 21.9476C41.8601 21.8911 41.7426 21.816 41.621 21.6875C41.5082 21.5684 41.4161 21.3693 41.232 20.9709C40.6411 19.6924 39.8318 18.5355 38.852 17.5481C38.6445 17.3389 38.5407 17.2343 38.4794 17.1337C38.421 17.0378 38.387 16.9552 38.3609 16.8459C38.3335 16.7313 38.3335 16.601 38.3335 16.3404V14.1212C38.3335 13.4011 38.3335 13.041 38.1835 12.799C38.0522 12.587 37.8463 12.4318 37.6064 12.3637C37.3325 12.286 36.9863 12.3849 36.294 12.5827L31.5488 13.9384C31.4682 13.9615 31.4279 13.973 31.3869 13.9811C31.3505 13.9883 31.3137 13.9934 31.2767 13.9965C31.2351 14 31.1931 14 31.1093 14H30.2516M10.3334 26C10.3334 21.3919 12.9308 17.3904 16.7414 15.3798M10.3334 26H8.3335C6.12436 26 4.3335 24.2091 4.3335 22C4.3335 20.5194 5.13789 19.2267 6.3335 18.5351M30.3335 13C30.3335 16.866 27.1995 20 23.3335 20C19.4675 20 16.3335 16.866 16.3335 13C16.3335 9.13401 19.4675 6 23.3335 6C27.1995 6 30.3335 9.13401 30.3335 13Z" stroke="#ED707E" stroke-width="2" stroke-linecap="round" stroke-linejoin="round"/>
</svg>
