<svg width="34" height="34" viewBox="0 0 34 34" fill="none" xmlns="http://www.w3.org/2000/svg">
<path fill-rule="evenodd" clip-rule="evenodd" d="M6.87743 10.555C4.58114 10.9022 3.97228 13.9285 5.95568 15.1366L13.1838 19.5393C13.3019 19.6113 13.3847 19.7291 13.4123 19.8646L15.1048 28.157C15.5693 30.4325 18.6228 30.8853 19.7276 28.8426L29.2705 11.1978C30.2464 9.39345 28.7404 7.25026 26.7121 7.55685L6.87743 10.555ZM6.99034 13.438C6.59367 13.1963 6.71543 12.5911 7.1747 12.5216L25.4416 9.76044L14.0705 17.7506L6.99034 13.438ZM15.3217 19.3024C15.3366 19.3565 15.3498 19.4114 15.3611 19.4668L17.0536 27.7593C17.1465 28.2144 17.7572 28.3049 17.9782 27.8964L27.1037 11.0234L15.3217 19.3024Z" fill="#BB6DCF"/>
</svg>
