<svg width="315" height="272" viewBox="0 0 315 272" fill="none" xmlns="http://www.w3.org/2000/svg">
<g filter="url(#filter0_d_1784_2706)">
<rect x="92" y="68" width="114" height="32" rx="8" fill="#FFE9EF" shape-rendering="crispEdges"/>
<path d="M109.184 88V79.2727H110.241V87.0625H114.298V88H109.184ZM119.947 85.3239V81.4545H120.953V88H119.947V86.892H119.879C119.725 87.2244 119.487 87.5071 119.163 87.7401C118.839 87.9702 118.43 88.0852 117.936 88.0852C117.526 88.0852 117.163 87.9957 116.845 87.8168C116.526 87.6349 116.276 87.3622 116.095 86.9986C115.913 86.6321 115.822 86.1705 115.822 85.6136V81.4545H116.828V85.5455C116.828 86.0227 116.961 86.4034 117.228 86.6875C117.498 86.9716 117.842 87.1136 118.259 87.1136C118.509 87.1136 118.764 87.0497 119.022 86.9219C119.284 86.794 119.502 86.598 119.678 86.3338C119.857 86.0696 119.947 85.733 119.947 85.3239ZM123.569 81.4545L125.137 84.1307L126.705 81.4545H127.864L125.75 84.7273L127.864 88H126.705L125.137 85.4602L123.569 88H122.41L124.489 84.7273L122.41 81.4545H123.569ZM131.249 88.1534C130.834 88.1534 130.458 88.0753 130.12 87.919C129.782 87.7599 129.513 87.5312 129.315 87.233C129.116 86.9318 129.016 86.5682 129.016 86.142C129.016 85.767 129.09 85.4631 129.238 85.2301C129.386 84.9943 129.583 84.8097 129.83 84.6761C130.077 84.5426 130.35 84.4432 130.648 84.3778C130.949 84.3097 131.252 84.2557 131.556 84.2159C131.954 84.1648 132.276 84.1264 132.523 84.1009C132.773 84.0724 132.955 84.0256 133.069 83.9602C133.185 83.8949 133.244 83.7812 133.244 83.6193V83.5852C133.244 83.1648 133.128 82.8381 132.898 82.6051C132.671 82.3722 132.326 82.2557 131.863 82.2557C131.383 82.2557 131.006 82.3608 130.734 82.571C130.461 82.7812 130.269 83.0057 130.158 83.2443L129.204 82.9034C129.374 82.5057 129.601 82.196 129.886 81.9744C130.172 81.75 130.485 81.5937 130.823 81.5057C131.164 81.4148 131.499 81.3693 131.829 81.3693C132.039 81.3693 132.28 81.3949 132.553 81.446C132.829 81.4943 133.094 81.5952 133.35 81.7486C133.609 81.902 133.823 82.1335 133.994 82.4432C134.164 82.7528 134.249 83.1676 134.249 83.6875V88H133.244V87.1136H133.192C133.124 87.2557 133.011 87.4077 132.851 87.5696C132.692 87.7315 132.481 87.8693 132.217 87.983C131.952 88.0966 131.63 88.1534 131.249 88.1534ZM131.403 87.25C131.8 87.25 132.136 87.1719 132.408 87.0156C132.684 86.8594 132.891 86.6577 133.03 86.4105C133.172 86.1634 133.244 85.9034 133.244 85.6307V84.7102C133.201 84.7614 133.107 84.8082 132.962 84.8509C132.82 84.8906 132.655 84.9261 132.468 84.9SVG574C132.283 84.9858 132.103 85.0114 131.927 85.0341C131.753 85.054 131.613 85.071 131.505 85.0852C131.244 85.1193 130.999 85.1747 130.772 85.2514C130.547 85.3253 130.366 85.4375 130.226 85.5881C130.09 85.7358 130.022 85.9375 130.022 86.1932C130.022 86.5426 130.151 86.8068 130.41 86.9858C130.671 87.1619 131.002 87.25 131.403 87.25ZM136.109 88V81.4545H137.08V82.4432H137.149C137.268 82.1193 137.484 81.8565 137.796 81.6548C138.109 81.4531 138.461 81.3523 138.853 81.3523C138.927 81.3523 139.019 81.3537 139.13 81.3565C139.241 81.3594 139.325 81.3636 139.382 81.3693V82.392C139.347 82.3835 139.269 82.3707 139.147 82.3537C139.028 82.3338 138.901 82.3239 138.768 82.3239C138.45 82.3239 138.166 82.3906 137.916 82.5241C137.668 82.6548 137.472 82.8366 137.328 83.0696C137.185 83.2997 137.114 83.5625 137.114 83.858V88H136.109ZM141.445 90.4545C141.274 90.4545 141.122 90.4403 140.989 90.4119C140.855 90.3864 140.763 90.3608 140.712 90.3352L140.967 89.4489C141.212 89.5114 141.428 89.5341 141.615 89.517C141.803 89.5 141.969 89.4162 142.114 89.2656C142.261 89.1179 142.396 88.8778 142.518 88.5455L142.706 88.0341L140.285 81.4545H141.376L143.183 86.6705H143.251L145.058 81.4545H146.149L143.371 88.9545C143.246 89.2926 143.091 89.5724 142.906 89.794C142.722 90.0185 142.507 90.1847 142.263 90.2926C142.021 90.4006 141.749 90.4545 141.445 90.4545ZM151.036 88V79.2727H154.087C154.695 79.2727 155.196 79.3778 155.591 79.5881C155.986 79.7955 156.28 80.0753 156.473 80.4276C156.667 80.777 156.763 81.1648 156.763 81.5909C156.763 81.9659 156.696 82.2756 156.563 82.5199C156.432 82.7642 156.259 82.9574 156.043 83.0994C155.83 83.2415 155.598 83.3466 155.348 83.4148V83.5C155.615 83.517 155.884 83.6108 156.154 83.7812C156.424 83.9517 156.65 84.196 156.831 84.5142C157.013 84.8324 157.104 85.2216 157.104 85.6818C157.104 86.1193 157.005 86.5128 156.806 86.8622C156.607 87.2116 156.293 87.4886 155.864 87.6932C155.435 87.8977 154.877 88 154.189 88H151.036ZM152.093 87.0625H154.189C154.88 87.0625 155.37 86.929 155.659 86.6619C155.952 86.392 156.098 86.0653 156.098 85.6818C156.098 85.3864 156.023 85.1136 155.873 84.8636C155.722 84.6108 155.507 84.4091 155.229 84.2585C154.951 84.1051 154.621 84.0284 154.24 84.0284H152.093V87.0625ZM152.093 83.108H154.053C154.371 83.108 154.658 83.0455 154.914 82.9205C155.172 82.7955 155.377 82.6193 155.527 82.392C155.681 82.1648 155.757 81.8977 155.757 81.5909C155.757 81.2074 155.624 80.8821 155.357 80.6151C155.09 80.3452 154.667 80.2102 154.087 80.2102H152.093V83.108ZM158.728 88V81.4545H159.7V82.4432H159.768C159.887 82.1193 160.103 81.8565 160.416 81.6548C160.728 81.4531 161.08 81.3523 161.473 81.3523C161.546 81.3523 161.639 81.3537 161.75 81.3565C161.86 81.3594 161.944 81.3636 162.001 81.3693V82.392C161.967 82.3835 161.889 82.3707 161.767 82.3537C161.647 82.3338 161.521 82.3239 161.387 82.3239C161.069 82.3239 160.785 82.3906 160.535 82.5241C160.288 82.6548 160.092 82.8366 159.947 83.0696C159.805 83.2997 159.734 83.5625 159.734 83.858V88H158.728ZM165.143 88.1534C164.728 88.1534 164.352 88.0753 164.014 87.919C163.676 87.7599 163.407 87.5312 163.209 87.233C163.01 86.9318 162.91 86.5682 162.91 86.142C162.91 85.767 162.984 85.4631 163.132 85.2301C163.28 84.9943 163.477 84.8097 163.724 84.6761C163.971 84.5426 164.244 84.4432 164.542 84.3778C164.843 84.3097 165.146 84.2557 165.45 84.2159C165.848 84.1648 166.17 84.1264 166.417 84.1009C166.667 84.0724 166.849 84.0256 166.963 83.9602C167.079 83.8949 167.138 83.7812 167.138 83.6193V83.5852C167.138 83.1648 167.022 82.8381 166.792 82.6051C166.565 82.3722 166.22 82.2557 165.757 82.2557C165.277 82.2557 164.9 82.3608 164.628 82.571C164.355 82.7812 164.163 83.0057 164.052 83.2443L163.098 82.9034C163.268 82.5057 163.495 82.196 163.78 81.9744C164.066 81.75 164.379 81.5937 164.717 81.5057C165.058 81.4148 165.393 81.3693 165.723 81.3693C165.933 81.3693 166.174 81.3949 166.447 81.446C166.723 81.4943 166.988 81.5952 167.244 81.7486C167.503 81.902 167.717 82.1335 167.888 82.4432C168.058 82.7528 168.143 83.1676 168.143 83.6875V88H167.138V87.1136H167.086C167.018 87.2557 166.905 87.4077 166.745 87.5696C166.586 87.7315 166.375 87.8693 166.111 87.983C165.846 88.0966 165.524 88.1534 165.143 88.1534ZM165.297 87.25C165.694 87.25 166.03 87.1719 166.302 87.0156C166.578 86.8594 166.785 86.6577 166.924 86.4105C167.066 86.1634 167.138 85.9034 167.138 85.6307V84.7102C167.095 84.7614 167.001 84.8082 166.856 84.8509C166.714 84.8906 166.549 84.9261 166.362 84.9574C166.177 84.9858 165.997 85.0114 165.821 85.0341C165.647 85.054 165.507 85.071 165.399 85.0852C165.138 85.1193 164.893 85.1747 164.666 85.2514C164.441 85.3253 164.26 85.4375 164.12 85.5881C163.984 85.7358 163.916 85.9375 163.916 86.1932C163.916 86.5426 164.045 86.8068 164.304 86.9858C164.565 87.1619 164.896 87.25 165.297 87.25ZM171.008 84.0625V88H170.003V81.4545H170.974V82.4773H171.06C171.213 82.1449 171.446 81.8778 171.758 81.6761C172.071 81.4716 172.474 81.3693 172.969 81.3693C173.412 81.3693 173.8 81.4602 174.132 81.642C174.464 81.821 174.723 82.0938 174.908 82.4602C175.092 82.8239 175.185 83.2841 175.185 83.8409V88H174.179V83.9091C174.179 83.3949 174.045 82.9943 173.778 82.7074C173.511 82.4176 173.145 82.2727 172.679 82.2727C172.358 82.2727 172.071 82.3423 171.818 82.4815C171.568 82.6207 171.371 82.8239 171.226 83.0909C171.081 83.358 171.008 83.6818 171.008 84.0625ZM179.518 88.1364C178.972 88.1364 178.491 87.9986 178.073 87.723C177.656 87.4446 177.329 87.0526 177.093 86.5469C176.857 86.0384 176.739 85.4375 176.739 84.7443C176.739 84.0568 176.857 83.4602 177.093 82.9545C177.329 82.4489 177.657 82.0582 178.078 81.7827C178.498 81.5071 178.984 81.3693 179.535 81.3693C179.961 81.3693 180.298 81.4403 180.545 81.5824C180.795 81.7216 180.985 81.8807 181.116 82.0597C181.249 82.2358 181.353 82.3807 181.427 82.4943H181.512V79.2727H182.518V88H181.546V86.9943H181.427C181.353 87.1136 181.248 87.2642 181.112 87.446C180.975 87.625 180.781 87.7855 180.528 87.9276C180.275 88.0668 179.938 88.1364 179.518 88.1364ZM179.654 87.233C180.058 87.233 180.399 87.1278 180.677 86.9176C180.955 86.7045 181.167 86.4105 181.312 86.0355C181.457 85.6577 181.529 85.2216 181.529 84.7273C181.529 84.2386 181.458 83.8111 181.316 83.4446C181.174 83.0753 180.964 82.7884 180.686 82.5838C180.407 82.3764 180.063 82.2727 179.654 82.2727C179.228 82.2727 178.873 82.3821 178.589 82.6009C178.308 82.8168 178.096 83.1108 177.954 83.483C177.815 83.8523 177.745 84.267 177.745 84.7273C177.745 85.1932 177.816 85.6165 177.958 85.9972C178.103 86.375 178.316 86.6761 178.597 86.9006C178.882 87.1222 179.234 87.233 179.654 87.233ZM189.16 82.9205L188.256 83.1761C188.2 83.0256 188.116 82.8793 188.005 82.7372C187.897 82.5923 187.749 82.473 187.562 82.3793C187.374 82.2855 187.134 82.2386 186.842 82.2386C186.441 82.2386 186.107 82.331 185.84 82.5156C185.576 82.6974 185.444 82.929 185.444 83.2102C185.444 83.4602 185.535 83.6577 185.717 83.8026C185.898 83.9474 186.183 84.0682 186.569 84.1648L187.54 84.4034C188.126 84.5455 188.562 84.7628 188.849 85.0554C189.136 85.3452 189.279 85.7187 189.279 86.1761C189.279 86.5511 189.171 86.8864 188.955 87.1818C188.742 87.4773 188.444 87.7102 188.06 87.8807C187.677 88.0511 187.231 88.1364 186.722 88.1364C186.055 88.1364 185.502 87.9915 185.065 87.7017C184.627 87.4119 184.35 86.9886 184.234 86.4318L185.188 86.1932C185.279 86.5455 185.451 86.8097 185.704 86.9858C185.96 87.1619 186.293 87.25 186.705 87.25C187.174 87.25 187.546 87.1506 187.822 86.9517C188.1 86.75 188.239 86.5085 188.239 86.2273C188.239 86 188.16 85.8097 188.001 85.6562C187.842 85.5 187.597 85.3835 187.268 85.3068L186.177 85.0511C185.577 84.9091 185.137 84.6889 184.856 84.3906C184.577 84.0895 184.438 83.7131 184.438 83.2614C184.438 82.892 184.542 82.5653 184.749 82.2812C184.96 81.9972 185.245 81.7741 185.606 81.6122C185.969 81.4503 186.381 81.3693 186.842 81.3693C187.489 81.3693 187.998 81.5114 188.367 81.7955C188.739 82.0795 189.004 82.4545 189.16 82.9205Z" fill="#0D0C22"/>
</g>
<g filter="url(#filter1_d_1784_2706)">
<rect x="124" y="164" width="150" height="32" rx="8" fill="#FFE9EF" shape-rendering="crispEdges"/>
<path d="M144.512 175.273H145.569V181.511C145.569 182.068 145.466 182.541 145.262 182.93C145.057 183.32 144.769 183.615 144.397 183.817C144.025 184.018 143.586 184.119 143.08 184.119C142.603 184.119 142.178 184.033 141.806 183.859C141.434 183.683 141.141 183.433 140.928 183.109C140.715 182.786 140.608 182.401 140.608 181.955H141.648C141.648 182.202 141.709 182.418 141.831 182.602C141.956 182.784 142.127 182.926 142.343 183.028C142.559 183.131 142.804 183.182 143.08 183.182C143.384 183.182 143.642 183.118 143.856 182.99C144.069 182.862 144.231 182.675 144.341 182.428C144.455 182.178 144.512 181.872 144.512 181.511V175.273ZM150.318 184.136C149.688 184.136 149.144 183.997 148.686 183.719C148.232 183.438 147.881 183.045 147.634 182.543C147.389 182.037 147.267 181.449 147.267 180.778C147.267 180.108 147.389 179.517 147.634 179.006C147.881 178.491 148.225 178.091 148.665 177.804C149.108 177.514 149.625 177.369 150.216 177.369C150.557 177.369 150.894 177.426 151.226 177.54C151.559 177.653 151.861 177.838 152.134 178.094C152.407 178.347 152.624 178.682 152.786 179.099C152.948 179.517 153.029 180.031 153.029 180.642V181.068H147.983V180.199H152.006C152.006 179.83 151.932 179.5 151.784 179.21C151.639 178.92 151.432 178.692 151.162 178.524C150.895 178.357 150.58 178.273 150.216 178.273C149.816 178.273 149.469 178.372 149.176 178.571C148.887 178.767 148.664 179.023 148.507 179.338C148.351 179.653 148.273 179.991 148.273 180.352V180.932C148.273 181.426 148.358 181.845 148.529 182.189C148.702 182.53 148.942 182.79 149.249 182.969C149.556 183.145 149.912 183.233 150.318 183.233C150.583 183.233 150.821 183.196 151.034 183.122C151.25 183.045 151.436 182.932 151.593 182.781C151.749 182.628 151.87 182.437 151.955 182.21L152.926 182.483C152.824 182.812 152.652 183.102 152.411 183.352C152.169 183.599 151.871 183.793 151.516 183.932C151.161 184.068 150.762 184.136 150.318 184.136ZM156.065 184L154.071 177.455H155.128L156.543 182.466H156.611L158.009 177.455H159.083L160.463 182.449H160.531L161.946 177.455H163.003L161.009 184H160.02L158.588 178.972H158.486L157.054 184H156.065ZM166.878 184.136C166.248 184.136 165.703 183.997 165.246 183.719C164.792 183.438 164.441 183.045 164.194 182.543C163.949 182.037 163.827 181.449 163.827 180.778C163.827 180.108 163.949 179.517 164.194 179.006C164.441 178.491 164.784 178.091 165.225 177.804C165.668 177.514 166.185 177.369 166.776 177.369C167.117 177.369 167.453 177.426 167.786 177.54C168.118 177.653 168.421 177.838 168.694 178.094C168.966 178.347 169.184 178.682 169.346 179.099C169.507 179.517 169.588 180.031 169.588 180.642V181.068H164.543V180.199H168.566C168.566 179.83 168.492 179.5 168.344 179.21C168.199 178.92 167.992 178.692 167.722 178.524C167.455 178.357 167.14 178.273 166.776 178.273C166.375 178.273 166.029 178.372 165.736 178.571C165.446 178.767 165.223 179.023 165.067 179.338C164.911 179.653 164.833 179.991 164.833 180.352V180.932C164.833 181.426 164.918 181.845 165.088 182.189C165.262 182.53 165.502 182.79 165.809 182.969C166.115 183.145 166.472 183.233 166.878 183.233C167.142 183.233 167.381 183.196 167.594 183.122C167.81 183.045 167.996 182.932 168.152 182.781C168.309 182.628 168.429 182.437 168.515 182.21L169.486 182.483C169.384 182.812 169.212 183.102 168.971 183.352C168.729 183.599 168.431 183.793 168.076 183.932C167.721 184.068 167.321 184.136 166.878 184.136ZM172.148 175.273V184H171.142V175.273H172.148ZM175.02 175.273V184H174.014V175.273H175.02ZM179.63 184.136C178.999 184.136 178.455 183.997 177.998 183.719C177.543 183.438 177.192 183.045 176.945 182.543C176.701 182.037 176.579 181.449 176.579 180.778C176.579 180.108 176.701 179.517 176.945 179.006C177.192 178.491 177.536 178.091 177.976 177.804C178.42 177.514 178.937 177.369 179.528 177.369C179.869 177.369 180.205 177.426 180.538 177.54C180.87 177.653 181.172 177.838 181.445 178.094C181.718 178.347 181.935 178.682 182.097 179.099C182.259 179.517 182.34 180.031 182.34 180.642V181.068H177.295V180.199H181.317C181.317 179.83 181.244 179.5 181.096 179.21C180.951 178.92 180.744 178.692 180.474 178.524C180.207 178.357 179.891 178.273 179.528 178.273C179.127 178.273 178.78 178.372 178.488 178.571C178.198 178.767 177.975 179.023 177.819 179.338C177.663 179.653 177.584 179.991 177.584 180.352V180.932C177.584 181.426 177.67 181.845 177.84 182.189C178.013 182.53 178.253 182.79 178.56 182.969C178.867 183.145 179.224 183.233 179.63 183.233C179.894 183.233 180.133 183.196 180.346 183.122C180.562 183.045 180.748 182.932 180.904 182.781C181.06 182.628 181.181 182.437 181.266 182.21L182.238 182.483C182.136 182.812 181.964 183.102 181.722 183.352C181.481 183.599 181.182 183.793 180.827 183.932C180.472 184.068 180.073 184.136 179.63 184.136ZM183.894 184V177.455H184.866V178.443H184.934C185.053 178.119 185.269 177.857 185.581 177.655C185.894 177.453 186.246 177.352 186.638 177.352C186.712 177.352 186.804 177.354 186.915 177.357C187.026 177.359 187.11 177.364 187.167 177.369V178.392C187.133 178.384 187.054 178.371 186.932 178.354C186.813 178.334 186.687 178.324 186.553 178.324C186.235 178.324 185.951 178.391 185.701 178.524C185.454 178.655 185.258 178.837 185.113 179.07C184.971 179.3 184.9 179.562 184.9 179.858V184H183.894ZM189.23 186.455C189.059 186.455 188.907 186.44 188.774 186.412C188.64 186.386 188.548 186.361 188.497 186.335L188.752 185.449C188.997 185.511 189.213 185.534 189.4 185.517C189.588 185.5 189.754 185.416 189.899 185.266C190.046 185.118 190.181 184.878 190.304 184.545L190.491 184.034L188.071 177.455H189.162L190.968 182.67H191.037L192.843 177.455H193.934L191.156 184.955C191.031 185.293 190.876 185.572 190.691 185.794C190.507 186.018 190.292 186.185 190.048 186.293C189.806 186.401 189.534 186.455 189.23 186.455ZM201.156 184.119C200.582 184.119 200.088 184.014 199.673 183.804C199.259 183.594 198.939 183.305 198.715 182.939C198.49 182.572 198.378 182.153 198.378 181.682C198.378 181.318 198.455 180.996 198.608 180.714C198.764 180.43 198.979 180.168 199.251 179.926C199.527 179.682 199.844 179.438 200.202 179.193L201.463 178.256C201.71 178.094 201.908 177.92 202.055 177.736C202.206 177.551 202.281 177.31 202.281 177.011C202.281 176.79 202.183 176.575 201.987 176.368C201.794 176.161 201.54 176.057 201.224 176.057C201.003 176.057 200.807 176.114 200.636 176.227C200.469 176.338 200.337 176.48 200.24 176.653C200.146 176.824 200.099 177 200.099 177.182C200.099 177.386 200.155 177.594 200.266 177.804C200.379 178.011 200.523 178.224 200.696 178.443C200.872 178.659 201.054 178.881 201.242 179.108L205.247 184H204.037L200.73 180.011C200.423 179.642 200.145 179.307 199.895 179.006C199.645 178.705 199.446 178.408 199.298 178.115C199.151 177.822 199.077 177.506 199.077 177.165C199.077 176.773 199.163 176.429 199.337 176.134C199.513 175.835 199.759 175.604 200.074 175.439C200.392 175.271 200.764 175.188 201.19 175.188C201.628 175.188 202.004 175.273 202.32 175.443C202.635 175.611 202.878 175.834 203.048 176.112C203.219 176.388 203.304 176.688 203.304 177.011C203.304 177.429 203.2 177.791 202.993 178.098C202.786 178.405 202.503 178.69 202.145 178.955L200.406 180.25C200.014 180.54 199.749 180.821 199.609 181.094C199.47 181.366 199.401 181.562 199.401 181.682C199.401 181.955 199.472 182.209 199.614 182.445C199.756 182.68 199.956 182.871 200.215 183.016C200.473 183.161 200.776 183.233 201.122 183.233C201.452 183.233 201.773 183.163 202.085 183.024C202.398 182.882 202.68 182.678 202.933 182.411C203.189 182.143 203.391 181.822 203.538 181.447C203.689 181.072 203.764 180.651 203.764 180.182H204.736C204.736 180.761 204.669 181.234 204.536 181.601C204.402 181.967 204.251 182.254 204.084 182.462C203.916 182.669 203.781 182.824 203.679 182.926C203.645 182.969 203.614 183.011 203.585 183.054C203.557 183.097 203.526 183.139 203.492 183.182C203.21 183.497 202.855 183.733 202.426 183.889C201.997 184.043 201.574 184.119 201.156 184.119ZM211.505 184L209.119 175.273H210.193L212.016 182.381H212.102L213.96 175.273H215.153L217.011 182.381H217.096L218.92 175.273H219.994L217.607 184H216.516L214.59 177.045H214.522L212.596 184H211.505ZM222.515 184.153C222.1 184.153 221.724 184.075 221.386 183.919C221.048 183.76 220.779 183.531 220.58 183.233C220.381 182.932 220.282 182.568 220.282 182.142C220.282 181.767 220.356 181.463 220.503 181.23C220.651 180.994 220.849 180.81 221.096 180.676C221.343 180.543 221.616 180.443 221.914 180.378C222.215 180.31 222.518 180.256 222.822 180.216C223.219 180.165 223.542 180.126 223.789 180.101C224.039 180.072 224.221 180.026 224.334 179.96C224.451 179.895 224.509 179.781 224.509 179.619V179.585C224.509 179.165 224.394 178.838 224.164 178.605C223.937 178.372 223.592 178.256 223.128 178.256C222.648 178.256 222.272 178.361 221.999 178.571C221.726 178.781 221.535 179.006 221.424 179.244L220.469 178.903C220.64 178.506 220.867 178.196 221.151 177.974C221.438 177.75 221.751 177.594 222.089 177.506C222.43 177.415 222.765 177.369 223.094 177.369C223.305 177.369 223.546 177.395 223.819 177.446C224.094 177.494 224.36 177.595 224.616 177.749C224.874 177.902 225.089 178.134 225.259 178.443C225.43 178.753 225.515 179.168 225.515 179.688V184H224.509V183.114H224.458C224.39 183.256 224.276 183.408 224.117 183.57C223.958 183.732 223.746 183.869 223.482 183.983C223.218 184.097 222.896 184.153 222.515 184.153ZM222.668 183.25C223.066 183.25 223.401 183.172 223.674 183.016C223.95 182.859 224.157 182.658 224.296 182.411C224.438 182.163 224.509 181.903 224.509 181.631V180.71C224.467 180.761 224.373 180.808 224.228 180.851C224.086 180.891 223.921 180.926 223.734 180.957C223.549 180.986 223.369 181.011 223.192 181.034C223.019 181.054 222.878 181.071 222.771 181.085C222.509 181.119 222.265 181.175 222.038 181.251C221.813 181.325 221.631 181.437 221.492 181.588C221.356 181.736 221.288 181.937 221.288 182.193C221.288 182.543 221.417 182.807 221.675 182.986C221.937 183.162 222.268 183.25 222.668 183.25ZM230.221 177.455V178.307H226.829V177.455H230.221ZM227.818 175.886H228.823V182.125C228.823 182.409 228.864 182.622 228.947 182.764C229.032 182.903 229.14 182.997 229.271 183.045C229.404 183.091 229.545 183.114 229.693 183.114C229.803 183.114 229.894 183.108 229.965 183.097C230.036 183.082 230.093 183.071 230.136 183.062L230.34 183.966C230.272 183.991 230.177 184.017 230.055 184.043C229.933 184.071 229.778 184.085 229.59 184.085C229.306 184.085 229.028 184.024 228.755 183.902C228.485 183.78 228.261 183.594 228.082 183.344C227.906 183.094 227.818 182.778 227.818 182.398V175.886ZM234.347 184.136C233.733 184.136 233.205 183.991 232.761 183.702C232.318 183.412 231.977 183.013 231.739 182.504C231.5 181.996 231.381 181.415 231.381 180.761C231.381 180.097 231.503 179.51 231.747 179.001C231.994 178.49 232.338 178.091 232.778 177.804C233.222 177.514 233.739 177.369 234.33 177.369C234.79 177.369 235.205 177.455 235.574 177.625C235.943 177.795 236.246 178.034 236.482 178.341C236.717 178.648 236.864 179.006 236.92 179.415H235.915C235.838 179.116 235.668 178.852 235.403 178.622C235.142 178.389 234.79 178.273 234.347 178.273C233.955 178.273 233.611 178.375 233.315 178.58C233.023 178.781 232.794 179.067 232.629 179.436C232.467 179.803 232.386 180.233 232.386 180.727C232.386 181.233 232.466 181.673 232.625 182.048C232.787 182.423 233.014 182.714 233.307 182.922C233.602 183.129 233.949 183.233 234.347 183.233C234.608 183.233 234.845 183.188 235.058 183.097C235.271 183.006 235.452 182.875 235.599 182.705C235.747 182.534 235.852 182.33 235.915 182.091H236.92C236.864 182.477 236.723 182.825 236.499 183.135C236.277 183.442 235.983 183.686 235.616 183.868C235.253 184.047 234.83 184.136 234.347 184.136ZM239.42 180.062V184H238.415V175.273H239.42V178.477H239.506C239.659 178.139 239.889 177.871 240.196 177.672C240.506 177.47 240.917 177.369 241.432 177.369C241.878 177.369 242.268 177.459 242.604 177.638C242.939 177.814 243.199 178.085 243.383 178.452C243.571 178.815 243.665 179.278 243.665 179.841V184H242.659V179.909C242.659 179.389 242.524 178.987 242.254 178.703C241.987 178.416 241.616 178.273 241.142 178.273C240.812 178.273 240.517 178.342 240.256 178.482C239.997 178.621 239.792 178.824 239.642 179.091C239.494 179.358 239.42 179.682 239.42 180.062ZM248.273 184.136C247.642 184.136 247.098 183.997 246.641 183.719C246.186 183.438 245.835 183.045 245.588 182.543C245.344 182.037 245.222 181.449 245.222 180.778C245.222 180.108 245.344 179.517 245.588 179.006C245.835 178.491 246.179 178.091 246.619 177.804C247.063 177.514 247.58 177.369 248.171 177.369C248.511 177.369 248.848 177.426 249.18 177.54C249.513 177.653 249.815 177.838 250.088 178.094C250.361 178.347 250.578 178.682 250.74 179.099C250.902 179.517 250.983 180.031 250.983 180.642V181.068H245.938V180.199H249.96C249.96 179.83 249.886 179.5 249.739 179.21C249.594 178.92 249.386 178.692 249.117 178.524C248.849 178.357 248.534 178.273 248.171 178.273C247.77 178.273 247.423 178.372 247.131 178.571C246.841 178.767 246.618 179.023 246.462 179.338C246.305 179.653 246.227 179.991 246.227 180.352V180.932C246.227 181.426 246.313 181.845 246.483 182.189C246.656 182.53 246.896 182.79 247.203 182.969C247.51 183.145 247.867 183.233 248.273 183.233C248.537 183.233 248.776 183.196 248.989 183.122C249.205 183.045 249.391 182.932 249.547 182.781C249.703 182.628 249.824 182.437 249.909 182.21L250.881 182.483C250.778 182.812 250.607 183.102 250.365 183.352C250.124 183.599 249.825 183.793 249.47 183.932C249.115 184.068 248.716 184.136 248.273 184.136ZM257.173 178.92L256.27 179.176C256.213 179.026 256.129 178.879 256.018 178.737C255.91 178.592 255.763 178.473 255.575 178.379C255.388 178.286 255.148 178.239 254.855 178.239C254.454 178.239 254.121 178.331 253.854 178.516C253.589 178.697 253.457 178.929 253.457 179.21C253.457 179.46 253.548 179.658 253.73 179.803C253.912 179.947 254.196 180.068 254.582 180.165L255.554 180.403C256.139 180.545 256.575 180.763 256.862 181.055C257.149 181.345 257.293 181.719 257.293 182.176C257.293 182.551 257.185 182.886 256.969 183.182C256.756 183.477 256.457 183.71 256.074 183.881C255.69 184.051 255.244 184.136 254.736 184.136C254.068 184.136 253.516 183.991 253.078 183.702C252.641 183.412 252.364 182.989 252.247 182.432L253.202 182.193C253.293 182.545 253.464 182.81 253.717 182.986C253.973 183.162 254.307 183.25 254.719 183.25C255.187 183.25 255.56 183.151 255.835 182.952C256.114 182.75 256.253 182.509 256.253 182.227C256.253 182 256.173 181.81 256.014 181.656C255.855 181.5 255.611 181.384 255.281 181.307L254.19 181.051C253.591 180.909 253.15 180.689 252.869 180.391C252.591 180.089 252.452 179.713 252.452 179.261C252.452 178.892 252.555 178.565 252.763 178.281C252.973 177.997 253.258 177.774 253.619 177.612C253.983 177.45 254.395 177.369 254.855 177.369C255.503 177.369 256.011 177.511 256.381 177.795C256.753 178.08 257.017 178.455 257.173 178.92Z" fill="#0D0C22"/>
</g>
<g filter="url(#filter2_d_1784_2706)">
<rect x="49" y="212" width="84" height="32" rx="8" fill="#FFE9EF" shape-rendering="crispEdges"/>
<path d="M65.7372 224.21V223.273H72.2826V224.21H69.5383V232H68.4815V224.21H65.7372ZM73.1216 232V225.455H74.0932V226.443H74.1614C74.2807 226.119 74.4966 225.857 74.8091 225.655C75.1216 225.453 75.4739 225.352 75.8659 225.352C75.9398 225.352 76.0321 225.354 76.1429 225.357C76.2537 225.359 76.3375 225.364 76.3943 225.369V226.392C76.3602 226.384 76.2821 226.371 76.16 226.354C76.0406 226.334 75.9142 226.324 75.7807 226.324C75.4625 226.324 75.1784 226.391 74.9284 226.524C74.6813 226.655 74.4852 226.837 74.3404 227.07C74.1983 227.3 74.1273 227.562 74.1273 227.858V232H73.1216ZM79.5366 232.153C79.1218 232.153 78.7454 232.075 78.4073 231.919C78.0693 231.76 77.8008 231.531 77.6019 231.233C77.4031 230.932 77.3036 230.568 77.3036 230.142C77.3036 229.767 77.3775 229.463 77.5252 229.23C77.673 228.994 77.8704 228.81 78.1176 228.676C78.3647 228.543 78.6374 228.443 78.9357 228.378C79.2369 228.31 79.5394 228.256 79.8434 228.216C80.2411 228.165 80.5636 228.126 80.8107 228.101C81.0607 228.072 81.2426 228.026 81.3562 227.96C81.4727 227.895 81.5309 227.781 81.5309 227.619V227.585C81.5309 227.165 81.4159 226.838 81.1857 226.605C80.9585 226.372 80.6133 226.256 80.1502 226.256C79.6701 226.256 79.2937 226.361 79.021 226.571C78.7482 226.781 78.5565 227.006 78.4457 227.244L77.4911 226.903C77.6616 226.506 77.8889 226.196 78.173 225.974C78.4599 225.75 78.7724 225.594 79.1105 225.506C79.4514 225.415 79.7866 225.369 80.1161 225.369C80.3264 225.369 80.5678 225.395 80.8406 225.446C81.1161 225.494 81.3818 225.595 81.6374 225.749C81.896 225.902 82.1105 226.134 82.2809 226.443C82.4514 226.753 82.5366 227.168 82.5366 227.688V232H81.5309V231.114H81.4798C81.4116 231.256 81.298 231.408 81.1389 231.57C80.9798 231.732 80.7681 231.869 80.5039 231.983C80.2397 232.097 79.9173 232.153 79.5366 232.153ZM79.69 231.25C80.0877 231.25 80.423 231.172 80.6957 231.016C80.9713 230.859 81.1786 230.658 81.3178 230.411C81.4599 230.163 81.5309 229.903 81.5309 229.631V228.71C81.4883 228.761 81.3945 228.808 81.2497 228.851C81.1076 228.891 80.9428 228.926 80.7553 228.957C80.5707 228.986 80.3903 229.011 80.2141 229.034C80.0409 229.054 79.9002 229.071 79.7923 229.085C79.5309 229.119 79.2866 229.175 79.0593 229.251C78.8349 229.325 78.6531 229.437 78.5139 229.588C78.3775 229.736 78.3093 229.937 78.3093 230.193C78.3093 230.543 78.4386 230.807 78.6971 230.986C78.9585 231.162 79.2894 231.25 79.69 231.25ZM89.5141 225.455L87.0936 232H86.0709L83.6504 225.455H84.7413L86.5482 230.67H86.6163L88.4232 225.455H89.5141ZM93.3754 232.136C92.7447 232.136 92.2007 231.997 91.7433 231.719C91.2888 231.438 90.9379 231.045 90.6908 230.543C90.4465 230.037 90.3243 229.449 90.3243 228.778C90.3243 228.108 90.4465 227.517 90.6908 227.006C90.9379 226.491 91.2817 226.091 91.722 225.804C92.1652 225.514 92.6822 225.369 93.2732 225.369C93.6141 225.369 93.9507 225.426 94.2831 225.54C94.6155 225.653 94.918 225.838 95.1908 226.094C95.4635 226.347 95.6808 226.682 95.8428 227.099C96.0047 227.517 96.0857 228.031 96.0857 228.642V229.068H91.0402V228.199H95.0629C95.0629 227.83 94.9891 227.5 94.8413 227.21C94.6965 226.92 94.4891 226.692 94.2192 226.524C93.9521 226.357 93.6368 226.273 93.2732 226.273C92.8726 226.273 92.526 226.372 92.2334 226.571C91.9436 226.767 91.7206 227.023 91.5644 227.338C91.4081 227.653 91.33 227.991 91.33 228.352V228.932C91.33 229.426 91.4152 229.845 91.5857 230.189C91.759 230.53 91.999 230.79 92.3058 230.969C92.6126 231.145 92.9692 231.233 93.3754 231.233C93.6396 231.233 93.8783 231.196 94.0913 231.122C94.3072 231.045 94.4933 230.932 94.6496 230.781C94.8058 230.628 94.9266 230.437 95.0118 230.21L95.9834 230.483C95.8811 230.812 95.7092 231.102 95.4678 231.352C95.2263 231.599 94.928 231.793 94.5729 231.932C94.2178 232.068 93.8186 232.136 93.3754 232.136ZM98.6452 223.273V232H97.6395V223.273H98.6452ZM100.511 232V225.455H101.517V232H100.511ZM101.023 224.364C100.826 224.364 100.657 224.297 100.515 224.163C100.376 224.03 100.307 223.869 100.307 223.682C100.307 223.494 100.376 223.334 100.515 223.2C100.657 223.067 100.826 223 101.023 223C101.219 223 101.386 223.067 101.525 223.2C101.667 223.334 101.738 223.494 101.738 223.682C101.738 223.869 101.667 224.03 101.525 224.163C101.386 224.297 101.219 224.364 101.023 224.364ZM104.388 228.062V232H103.383V225.455H104.354V226.477H104.44C104.593 226.145 104.826 225.878 105.138 225.676C105.451 225.472 105.854 225.369 106.349 225.369C106.792 225.369 107.18 225.46 107.512 225.642C107.844 225.821 108.103 226.094 108.288 226.46C108.472 226.824 108.565 227.284 108.565 227.841V232H107.559V227.909C107.559 227.395 107.425 226.994 107.158 226.707C106.891 226.418 106.525 226.273 106.059 226.273C105.738 226.273 105.451 226.342 105.198 226.482C104.948 226.621 104.751 226.824 104.606 227.091C104.461 227.358 104.388 227.682 104.388 228.062ZM113.068 234.591C112.583 234.591 112.165 234.528 111.816 234.403C111.466 234.281 111.175 234.119 110.942 233.918C110.712 233.719 110.529 233.506 110.392 233.278L111.193 232.716C111.284 232.835 111.399 232.972 111.539 233.125C111.678 233.281 111.868 233.416 112.11 233.53C112.354 233.646 112.673 233.705 113.068 233.705C113.597 233.705 114.033 233.577 114.377 233.321C114.72 233.065 114.892 232.665 114.892 232.119V230.79H114.807C114.733 230.909 114.628 231.057 114.492 231.233C114.358 231.406 114.165 231.561 113.912 231.697C113.662 231.831 113.324 231.898 112.898 231.898C112.37 231.898 111.895 231.773 111.475 231.523C111.057 231.273 110.726 230.909 110.482 230.432C110.24 229.955 110.12 229.375 110.12 228.693C110.12 228.023 110.237 227.439 110.473 226.942C110.709 226.442 111.037 226.055 111.458 225.783C111.878 225.507 112.364 225.369 112.915 225.369C113.341 225.369 113.679 225.44 113.929 225.582C114.182 225.722 114.375 225.881 114.509 226.06C114.645 226.236 114.75 226.381 114.824 226.494H114.926V225.455H115.898V232.188C115.898 232.75 115.77 233.207 115.514 233.56C115.262 233.915 114.921 234.175 114.492 234.339C114.066 234.507 113.591 234.591 113.068 234.591ZM113.034 230.994C113.438 230.994 113.779 230.902 114.057 230.717C114.335 230.533 114.547 230.267 114.692 229.92C114.837 229.574 114.909 229.159 114.909 228.676C114.909 228.205 114.838 227.788 114.696 227.428C114.554 227.067 114.344 226.784 114.066 226.58C113.787 226.375 113.443 226.273 113.034 226.273C112.608 226.273 112.253 226.381 111.969 226.597C111.688 226.812 111.476 227.102 111.334 227.466C111.195 227.83 111.125 228.233 111.125 228.676C111.125 229.131 111.196 229.533 111.338 229.882C111.483 230.229 111.696 230.501 111.977 230.7C112.262 230.896 112.614 230.994 113.034 230.994Z" fill="#0D0C22"/>
</g>
<g filter="url(#filter3_d_1784_2706)">
<rect x="149" y="212" width="81" height="32" rx="8" fill="#FFE9EF" shape-rendering="crispEdges"/>
<path d="M170.853 225.455C170.802 225.023 170.594 224.688 170.231 224.449C169.867 224.21 169.421 224.091 168.892 224.091C168.506 224.091 168.168 224.153 167.878 224.278C167.591 224.403 167.367 224.575 167.205 224.794C167.046 225.013 166.966 225.261 166.966 225.54C166.966 225.773 167.022 225.973 167.133 226.141C167.246 226.305 167.391 226.443 167.567 226.554C167.743 226.662 167.928 226.751 168.121 226.822C168.314 226.891 168.492 226.946 168.654 226.989L169.54 227.227C169.767 227.287 170.02 227.369 170.299 227.474C170.58 227.58 170.848 227.723 171.104 227.905C171.363 228.084 171.576 228.314 171.743 228.595C171.911 228.876 171.995 229.222 171.995 229.631C171.995 230.102 171.871 230.528 171.624 230.909C171.38 231.29 171.022 231.592 170.55 231.817C170.081 232.041 169.512 232.153 168.841 232.153C168.216 232.153 167.675 232.053 167.218 231.851C166.763 231.649 166.405 231.368 166.144 231.007C165.885 230.646 165.739 230.227 165.705 229.75H166.796C166.824 230.08 166.935 230.352 167.128 230.568C167.324 230.781 167.571 230.94 167.87 231.045C168.171 231.148 168.495 231.199 168.841 231.199C169.245 231.199 169.607 231.134 169.928 231.003C170.249 230.869 170.503 230.685 170.691 230.449C170.878 230.21 170.972 229.932 170.972 229.614C170.972 229.324 170.891 229.088 170.729 228.906C170.567 228.724 170.354 228.577 170.09 228.463C169.826 228.349 169.54 228.25 169.233 228.165L168.16 227.858C167.478 227.662 166.938 227.382 166.54 227.018C166.142 226.655 165.944 226.179 165.944 225.591C165.944 225.102 166.076 224.676 166.34 224.312C166.607 223.946 166.965 223.662 167.414 223.46C167.865 223.256 168.37 223.153 168.927 223.153C169.489 223.153 169.989 223.254 170.427 223.456C170.864 223.655 171.211 223.928 171.466 224.274C171.725 224.621 171.861 225.014 171.875 225.455H170.853ZM174.557 229.614L174.54 228.369H174.745L177.609 225.455H178.853L175.802 228.54H175.717L174.557 229.614ZM173.62 232V223.273H174.626V232H173.62ZM177.779 232L175.222 228.761L175.938 228.062L179.057 232H177.779ZM180.171 232V225.455H181.177V232H180.171ZM180.683 224.364C180.487 224.364 180.318 224.297 180.176 224.163C180.036 224.03 179.967 223.869 179.967 223.682C179.967 223.494 180.036 223.334 180.176 223.2C180.318 223.067 180.487 223 180.683 223C180.879 223 181.046 223.067 181.185 223.2C181.328 223.334 181.399 223.494 181.399 223.682C181.399 223.869 181.328 224.03 181.185 224.163C181.046 224.297 180.879 224.364 180.683 224.364ZM184.049 228.062V232H183.043V225.455H184.015V226.477H184.1C184.253 226.145 184.486 225.878 184.799 225.676C185.111 225.472 185.515 225.369 186.009 225.369C186.452 225.369 186.84 225.46 187.172 225.642C187.505 225.821 187.763 226.094 187.948 226.46C188.132 226.824 188.225 227.284 188.225 227.841V232H187.219V227.909C187.219 227.395 187.086 226.994 186.819 226.707C186.551 226.418 186.185 226.273 185.719 226.273C185.398 226.273 185.111 226.342 184.858 226.482C184.608 226.621 184.411 226.824 184.266 227.091C184.121 227.358 184.049 227.682 184.049 228.062ZM192.746 232.136C192.132 232.136 191.604 231.991 191.16 231.702C190.717 231.412 190.376 231.013 190.138 230.504C189.899 229.996 189.78 229.415 189.78 228.761C189.78 228.097 189.902 227.51 190.146 227.001C190.393 226.49 190.737 226.091 191.177 225.804C191.621 225.514 192.138 225.369 192.729 225.369C193.189 225.369 193.604 225.455 193.973 225.625C194.342 225.795 194.645 226.034 194.881 226.341C195.116 226.648 195.263 227.006 195.319 227.415H194.314C194.237 227.116 194.067 226.852 193.802 226.622C193.541 226.389 193.189 226.273 192.746 226.273C192.354 226.273 192.01 226.375 191.714 226.58C191.422 226.781 191.193 227.067 191.028 227.436C190.866 227.803 190.785 228.233 190.785 228.727C190.785 229.233 190.865 229.673 191.024 230.048C191.186 230.423 191.413 230.714 191.706 230.922C192.001 231.129 192.348 231.233 192.746 231.233C193.007 231.233 193.244 231.188 193.457 231.097C193.67 231.006 193.851 230.875 193.998 230.705C194.146 230.534 194.251 230.33 194.314 230.091H195.319C195.263 230.477 195.122 230.825 194.898 231.135C194.676 231.442 194.382 231.686 194.015 231.868C193.652 232.047 193.229 232.136 192.746 232.136ZM198.74 232.153C198.325 232.153 197.949 232.075 197.61 231.919C197.272 231.76 197.004 231.531 196.805 231.233C196.606 230.932 196.507 230.568 196.507 230.142C196.507 229.767 196.581 229.463 196.728 229.23C196.876 228.994 197.074 228.81 197.321 228.676C197.568 228.543 197.841 228.443 198.139 228.378C198.44 228.31 198.743 228.256 199.047 228.216C199.444 228.165 199.767 228.126 200.014 228.101C200.264 228.072 200.446 228.026 200.559 227.96C200.676 227.895 200.734 227.781 200.734 227.619V227.585C200.734 227.165 200.619 226.838 200.389 226.605C200.162 226.372 199.816 226.256 199.353 226.256C198.873 226.256 198.497 226.361 198.224 226.571C197.951 226.781 197.76 227.006 197.649 227.244L196.694 226.903C196.865 226.506 197.092 226.196 197.376 225.974C197.663 225.75 197.976 225.594 198.314 225.506C198.655 225.415 198.99 225.369 199.319 225.369C199.53 225.369 199.771 225.395 200.044 225.446C200.319 225.494 200.585 225.595 200.841 225.749C201.099 225.902 201.314 226.134 201.484 226.443C201.655 226.753 201.74 227.168 201.74 227.688V232H200.734V231.114H200.683C200.615 231.256 200.501 231.408 200.342 231.57C200.183 231.732 199.971 231.869 199.707 231.983C199.443 232.097 199.12 232.153 198.74 232.153ZM198.893 231.25C199.291 231.25 199.626 231.172 199.899 231.016C200.174 230.859 200.382 230.658 200.521 230.411C200.663 230.163 200.734 229.903 200.734 229.631V228.71C200.691 228.761 200.598 228.808 200.453 228.851C200.311 228.891 200.146 228.926 199.958 228.957C199.774 228.986 199.593 229.011 199.417 229.034C199.244 229.054 199.103 229.071 198.995 229.085C198.734 229.119 198.49 229.175 198.262 229.251C198.038 229.325 197.856 229.437 197.717 229.588C197.581 229.736 197.512 229.937 197.512 230.193C197.512 230.543 197.642 230.807 197.9 230.986C198.162 231.162 198.493 231.25 198.893 231.25ZM203.599 232V225.455H204.571V226.443H204.639C204.758 226.119 204.974 225.857 205.287 225.655C205.599 225.453 205.952 225.352 206.344 225.352C206.417 225.352 206.51 225.354 206.621 225.357C206.731 225.359 206.815 225.364 206.872 225.369V226.392C206.838 226.384 206.76 226.371 206.638 226.354C206.518 226.334 206.392 226.324 206.258 226.324C205.94 226.324 205.656 226.391 205.406 226.524C205.159 226.655 204.963 226.837 204.818 227.07C204.676 227.3 204.605 227.562 204.605 227.858V232H203.599ZM210.633 232.136C210.003 232.136 209.459 231.997 209.001 231.719C208.547 231.438 208.196 231.045 207.949 230.543C207.704 230.037 207.582 229.449 207.582 228.778C207.582 228.108 207.704 227.517 207.949 227.006C208.196 226.491 208.54 226.091 208.98 225.804C209.423 225.514 209.94 225.369 210.531 225.369C210.872 225.369 211.209 225.426 211.541 225.54C211.873 225.653 212.176 225.838 212.449 226.094C212.721 226.347 212.939 226.682 213.101 227.099C213.263 227.517 213.343 228.031 213.343 228.642V229.068H208.298V228.199H212.321C212.321 227.83 212.247 227.5 212.099 227.21C211.954 226.92 211.747 226.692 211.477 226.524C211.21 226.357 210.895 226.273 210.531 226.273C210.13 226.273 209.784 226.372 209.491 226.571C209.201 226.767 208.978 227.023 208.822 227.338C208.666 227.653 208.588 227.991 208.588 228.352V228.932C208.588 229.426 208.673 229.845 208.843 230.189C209.017 230.53 209.257 230.79 209.564 230.969C209.87 231.145 210.227 231.233 210.633 231.233C210.897 231.233 211.136 231.196 211.349 231.122C211.565 231.045 211.751 230.932 211.907 230.781C212.064 230.628 212.184 230.437 212.27 230.21L213.241 230.483C213.139 230.812 212.967 231.102 212.726 231.352C212.484 231.599 212.186 231.793 211.831 231.932C211.476 232.068 211.076 232.136 210.633 232.136Z" fill="#0D0C22"/>
</g>
<g filter="url(#filter4_d_1784_2706)">
<rect x="24" y="116" width="267" height="32" rx="8" fill="#FFE9EF" shape-rendering="crispEdges"/>
<path d="M48.4754 130H47.4186C47.3561 129.696 47.2467 129.429 47.0904 129.199C46.937 128.969 46.7495 128.776 46.5279 128.619C46.3092 128.46 46.0663 128.341 45.7993 128.261C45.5322 128.182 45.2538 128.142 44.964 128.142C44.4356 128.142 43.9569 128.276 43.5279 128.543C43.1018 128.81 42.7623 129.203 42.5095 129.723C42.2595 130.243 42.1345 130.881 42.1345 131.636C42.1345 132.392 42.2595 133.03 42.5095 133.55C42.7623 134.07 43.1018 134.463 43.5279 134.73C43.9569 134.997 44.4356 135.131 44.964 135.131C45.2538 135.131 45.5322 135.091 45.7993 135.011C46.0663 134.932 46.3092 134.814 46.5279 134.658C46.7495 134.499 46.937 134.304 47.0904 134.074C47.2467 133.841 47.3561 133.574 47.4186 133.273H48.4754C48.3958 133.719 48.251 134.118 48.0407 134.47C47.8305 134.822 47.5691 135.122 47.2566 135.369C46.9441 135.614 46.5933 135.8 46.2041 135.928C45.8177 136.055 45.4044 136.119 44.964 136.119C44.2197 136.119 43.5578 135.938 42.9782 135.574C42.3987 135.21 41.9427 134.693 41.6103 134.023C41.2779 133.352 41.1118 132.557 41.1118 131.636C41.1118 130.716 41.2779 129.92 41.6103 129.25C41.9427 128.58 42.3987 128.062 42.9782 127.699C43.5578 127.335 44.2197 127.153 44.964 127.153C45.4044 127.153 45.8177 127.217 46.2041 127.345C46.5933 127.473 46.9441 127.661 47.2566 127.908C47.5691 128.152 47.8305 128.45 48.0407 128.803C48.251 129.152 48.3958 129.551 48.4754 130ZM51.0764 127.273V136H50.0708V127.273H51.0764ZM55.6015 136.136C55.0106 136.136 54.4921 135.996 54.0461 135.714C53.6029 135.433 53.2563 135.04 53.0063 134.534C52.7592 134.028 52.6356 133.437 52.6356 132.761C52.6356 132.08 52.7592 131.484 53.0063 130.976C53.2563 130.467 53.6029 130.072 54.0461 129.791C54.4921 129.51 55.0106 129.369 55.6015 129.369C56.1924 129.369 56.7095 129.51 57.1527 129.791C57.5987 130.072 57.9453 130.467 58.1924 130.976C58.4424 131.484 58.5674 132.08 58.5674 132.761C58.5674 133.437 58.4424 134.028 58.1924 134.534C57.9453 135.04 57.5987 135.433 57.1527 135.714C56.7095 135.996 56.1924 136.136 55.6015 136.136ZM55.6015 135.233C56.0504 135.233 56.4197 135.118 56.7095 134.888C56.9992 134.658 57.2137 134.355 57.3529 133.98C57.4921 133.605 57.5617 133.199 57.5617 132.761C57.5617 132.324 57.4921 131.916 57.3529 131.538C57.2137 131.161 56.9992 130.855 56.7095 130.622C56.4197 130.389 56.0504 130.273 55.6015 130.273C55.1527 130.273 54.7833 130.389 54.4936 130.622C54.2038 130.855 53.9893 131.161 53.8501 131.538C53.7109 131.916 53.6413 132.324 53.6413 132.761C53.6413 133.199 53.7109 133.605 53.8501 133.98C53.9893 134.355 54.2038 134.658 54.4936 134.888C54.7833 135.118 55.1527 135.233 55.6015 135.233ZM62.9732 129.455V130.307H59.5811V129.455H62.9732ZM60.5698 127.886H61.5754V134.125C61.5754 134.409 61.6166 134.622 61.699 134.764C61.7843 134.903 61.8922 134.997 62.0229 135.045C62.1564 135.091 62.297 135.114 62.4448 135.114C62.5556 135.114 62.6465 135.108 62.7175 135.097C62.7885 135.082 62.8453 135.071 62.8879 135.062L63.0925 135.966C63.0243 135.991 62.9291 136.017 62.807 136.043C62.6848 136.071 62.53 136.085 62.3425 136.085C62.0584 136.085 61.78 136.024 61.5073 135.902C61.2374 135.78 61.0129 135.594 60.834 135.344C60.6578 135.094 60.5698 134.778 60.5698 134.398V127.886ZM65.6563 132.062V136H64.6506V127.273H65.6563V130.477H65.7415C65.8949 130.139 66.125 129.871 66.4318 129.672C66.7415 129.47 67.1534 129.369 67.6676 129.369C68.1136 129.369 68.5043 129.459 68.8395 129.638C69.1747 129.814 69.4347 130.085 69.6193 130.452C69.8068 130.815 69.9006 131.278 69.9006 131.841V136H68.8949V131.909C68.8949 131.389 68.76 130.987 68.4901 130.703C68.223 130.416 67.8523 130.273 67.3779 130.273C67.0483 130.273 66.7529 130.342 66.4915 130.482C66.233 130.621 66.0284 130.824 65.8779 131.091C65.7301 131.358 65.6563 131.682 65.6563 132.062ZM74.5087 136.136C73.8781 136.136 73.334 135.997 72.8766 135.719C72.4221 135.438 72.0712 135.045 71.8241 134.543C71.5798 134.037 71.4576 133.449 71.4576 132.778C71.4576 132.108 71.5798 131.517 71.8241 131.006C72.0712 130.491 72.415 130.091 72.8553 129.804C73.2985 129.514 73.8156 129.369 74.4065 129.369C74.7474 129.369 75.084 129.426 75.4164 129.54C75.7488 129.653 76.0514 129.838 76.3241 130.094C76.5968 130.347 76.8141 130.682 76.9761 131.099C77.138 131.517 77.219 132.031 77.219 132.642V133.068H72.1735V132.199H76.1962C76.1962 131.83 76.1224 131.5 75.9747 131.21C75.8298 130.92 75.6224 130.692 75.3525 130.524C75.0854 130.357 74.7701 130.273 74.4065 130.273C74.0059 130.273 73.6593 130.372 73.3667 130.571C73.0769 130.767 72.8539 131.023 72.6977 131.338C72.5414 131.653 72.4633 131.991 72.4633 132.352V132.932C72.4633 133.426 72.5485 133.845 72.719 134.189C72.8923 134.53 73.1323 134.79 73.4391 134.969C73.746 135.145 74.1025 135.233 74.5087 135.233C74.7729 135.233 75.0116 135.196 75.2247 135.122C75.4406 135.045 75.6266 134.932 75.7829 134.781C75.9391 134.628 76.0599 134.437 76.1451 134.21L77.1167 134.483C77.0144 134.812 76.8425 135.102 76.6011 135.352C76.3596 135.599 76.0613 135.793 75.7062 135.932C75.3511 136.068 74.9519 136.136 74.5087 136.136ZM83.4092 130.92L82.5058 131.176C82.4489 131.026 82.3651 130.879 82.2543 130.737C82.1464 130.592 81.9987 130.473 81.8112 130.379C81.6237 130.286 81.3836 130.239 81.091 130.239C80.6904 130.239 80.3566 130.331 80.0896 130.516C79.8254 130.697 79.6933 130.929 79.6933 131.21C79.6933 131.46 79.7842 131.658 79.966 131.803C80.1478 131.947 80.4319 132.068 80.8183 132.165L81.7898 132.403C82.3751 132.545 82.8112 132.763 83.0981 133.055C83.385 133.345 83.5285 133.719 83.5285 134.176C83.5285 134.551 83.4205 134.886 83.2046 135.182C82.9915 135.477 82.6933 135.71 82.3097 135.881C81.9262 136.051 81.4802 136.136 80.9717 136.136C80.304 136.136 79.7515 135.991 79.314 135.702C78.8765 135.412 78.5995 134.989 78.483 134.432L79.4376 134.193C79.5285 134.545 79.7004 134.81 79.9532 134.986C80.2089 135.162 80.5427 135.25 80.9546 135.25C81.4234 135.25 81.7955 135.151 82.0711 134.952C82.3495 134.75 82.4887 134.509 82.4887 134.227C82.4887 134 82.4092 133.81 82.2501 133.656C82.091 133.5 81.8467 133.384 81.5171 133.307L80.4262 133.051C79.8268 132.909 79.3864 132.689 79.1052 132.391C78.8268 132.089 78.6876 131.713 78.6876 131.261C78.6876 130.892 78.7913 130.565 78.9987 130.281C79.2089 129.997 79.4944 129.774 79.8552 129.612C80.2188 129.45 80.6308 129.369 81.091 129.369C81.7387 129.369 82.2472 129.511 82.6165 129.795C82.9887 130.08 83.2529 130.455 83.4092 130.92ZM86.5663 134.807L86.4981 135.267C86.4499 135.591 86.376 135.938 86.2766 136.307C86.18 136.676 86.0791 137.024 85.974 137.351C85.8689 137.678 85.7822 137.938 85.7141 138.131H84.947C84.9839 137.949 85.0322 137.709 85.0919 137.411C85.1516 137.112 85.2112 136.778 85.2709 136.409C85.3334 136.043 85.3845 135.668 85.4243 135.284L85.4754 134.807H86.5663ZM96.7617 129.455C96.7106 129.023 96.5032 128.688 96.1395 128.449C95.7759 128.21 95.3299 128.091 94.8015 128.091C94.4151 128.091 94.077 128.153 93.7873 128.278C93.5003 128.403 93.2759 128.575 93.114 128.794C92.9549 129.013 92.8753 129.261 92.8753 129.54C92.8753 129.773 92.9307 129.973 93.0415 130.141C93.1552 130.305 93.3001 130.443 93.4762 130.554C93.6523 130.662 93.837 130.751 94.0302 130.822C94.2233 130.891 94.4009 130.946 94.5628 130.989L95.4492 131.227C95.6765 131.287 95.9293 131.369 96.2077 131.474C96.489 131.58 96.7574 131.723 97.0131 131.905C97.2716 132.084 97.4847 132.314 97.6523 132.595C97.8199 132.876 97.9037 133.222 97.9037 133.631C97.9037 134.102 97.7802 134.528 97.533 134.909C97.2887 135.29 96.9307 135.592 96.4591 135.817C95.9904 136.041 95.4208 136.153 94.7503 136.153C94.1253 136.153 93.5841 136.053 93.1268 135.851C92.6722 135.649 92.3143 135.368 92.0529 135.007C91.7944 134.646 91.6481 134.227 91.614 133.75H92.7049C92.7333 134.08 92.8441 134.352 93.0373 134.568C93.2333 134.781 93.4805 134.94 93.7787 135.045C94.0799 135.148 94.4037 135.199 94.7503 135.199C95.1537 135.199 95.516 135.134 95.837 135.003C96.158 134.869 96.4123 134.685 96.5998 134.449C96.7873 134.21 96.881 133.932 96.881 133.614C96.881 133.324 96.8001 133.088 96.6381 132.906C96.4762 132.724 96.2631 132.577 95.9989 132.463C95.7347 132.349 95.4492 132.25 95.1424 132.165L94.0685 131.858C93.3867 131.662 92.8469 131.382 92.4492 131.018C92.0515 130.655 91.8526 130.179 91.8526 129.591C91.8526 129.102 91.9847 128.676 92.2489 128.312C92.516 127.946 92.8739 127.662 93.3228 127.46C93.7745 127.256 94.2787 127.153 94.8356 127.153C95.3981 127.153 95.8981 127.254 96.3356 127.456C96.7731 127.655 97.1197 127.928 97.3753 128.274C97.6339 128.621 97.7702 129.014 97.7844 129.455H96.7617ZM100.535 132.062V136H99.529V127.273H100.535V130.477H100.62C100.773 130.139 101.003 129.871 101.31 129.672C101.62 129.47 102.032 129.369 102.546 129.369C102.992 129.369 103.383 129.459 103.718 129.638C104.053 129.814 104.313 130.085 104.498 130.452C104.685 130.815 104.779 131.278 104.779 131.841V136H103.773V131.909C103.773 131.389 103.638 130.987 103.368 130.703C103.101 130.416 102.731 130.273 102.256 130.273C101.927 130.273 101.631 130.342 101.37 130.482C101.111 130.621 100.907 130.824 100.756 131.091C100.609 131.358 100.535 131.682 100.535 132.062ZM109.302 136.136C108.711 136.136 108.193 135.996 107.746 135.714C107.303 135.433 106.957 135.04 106.707 134.534C106.46 134.028 106.336 133.437 106.336 132.761C106.336 132.08 106.46 131.484 106.707 130.976C106.957 130.467 107.303 130.072 107.746 129.791C108.193 129.51 108.711 129.369 109.302 129.369C109.893 129.369 110.41 129.51 110.853 129.791C111.299 130.072 111.646 130.467 111.893 130.976C112.143 131.484 112.268 132.08 112.268 132.761C112.268 133.437 112.143 134.028 111.893 134.534C111.646 135.04 111.299 135.433 110.853 135.714C110.41 135.996 109.893 136.136 109.302 136.136ZM109.302 135.233C109.751 135.233 110.12 135.118 110.41 134.888C110.7 134.658 110.914 134.355 111.053 133.98C111.193 133.605 111.262 133.199 111.262 132.761C111.262 132.324 111.193 131.916 111.053 131.538C110.914 131.161 110.7 130.855 110.41 130.622C110.12 130.389 109.751 130.273 109.302 130.273C108.853 130.273 108.484 130.389 108.194 130.622C107.904 130.855 107.69 131.161 107.55 131.538C107.411 131.916 107.342 132.324 107.342 132.761C107.342 133.199 107.411 133.605 107.55 133.98C107.69 134.355 107.904 134.658 108.194 134.888C108.484 135.118 108.853 135.233 109.302 135.233ZM116.571 136.136C115.941 136.136 115.397 135.997 114.939 135.719C114.485 135.438 114.134 135.045 113.887 134.543C113.642 134.037 113.52 133.449 113.52 132.778C113.52 132.108 113.642 131.517 113.887 131.006C114.134 130.491 114.478 130.091 114.918 129.804C115.361 129.514 115.878 129.369 116.469 129.369C116.81 129.369 117.147 129.426 117.479 129.54C117.811 129.653 118.114 129.838 118.387 130.094C118.659 130.347 118.877 130.682 119.039 131.099C119.201 131.517 119.282 132.031 119.282 132.642V133.068H114.236V132.199H118.259C118.259 131.83 118.185 131.5 118.037 131.21C117.892 130.92 117.685 130.692 117.415 130.524C117.148 130.357 116.833 130.273 116.469 130.273C116.068 130.273 115.722 130.372 115.429 130.571C115.139 130.767 114.916 131.023 114.76 131.338C114.604 131.653 114.526 131.991 114.526 132.352V132.932C114.526 133.426 114.611 133.845 114.782 134.189C114.955 134.53 115.195 134.79 115.502 134.969C115.808 135.145 116.165 135.233 116.571 135.233C116.835 135.233 117.074 135.196 117.287 135.122C117.503 135.045 117.689 134.932 117.845 134.781C118.002 134.628 118.122 134.437 118.208 134.21L119.179 134.483C119.077 134.812 118.905 135.102 118.664 135.352C118.422 135.599 118.124 135.793 117.769 135.932C117.414 136.068 117.014 136.136 116.571 136.136ZM125.472 130.92L124.568 131.176C124.511 131.026 124.428 130.879 124.317 130.737C124.209 130.592 124.061 130.473 123.874 130.379C123.686 130.286 123.446 130.239 123.154 130.239C122.753 130.239 122.419 130.331 122.152 130.516C121.888 130.697 121.756 130.929 121.756 131.21C121.756 131.46 121.847 131.658 122.029 131.803C122.21 131.947 122.494 132.068 122.881 132.165L123.852 132.403C124.438 132.545 124.874 132.763 125.161 133.055C125.448 133.345 125.591 133.719 125.591 134.176C125.591 134.551 125.483 134.886 125.267 135.182C125.054 135.477 124.756 135.71 124.372 135.881C123.989 136.051 123.543 136.136 123.034 136.136C122.367 136.136 121.814 135.991 121.377 135.702C120.939 135.412 120.662 134.989 120.546 134.432L121.5 134.193C121.591 134.545 121.763 134.81 122.016 134.986C122.271 135.162 122.605 135.25 123.017 135.25C123.486 135.25 123.858 135.151 124.134 134.952C124.412 134.75 124.551 134.509 124.551 134.227C124.551 134 124.472 133.81 124.313 133.656C124.154 133.5 123.909 133.384 123.58 133.307L122.489 133.051C121.889 132.909 121.449 132.689 121.168 132.391C120.889 132.089 120.75 131.713 120.75 131.261C120.75 130.892 120.854 130.565 121.061 130.281C121.271 129.997 121.557 129.774 121.918 129.612C122.281 129.45 122.693 129.369 123.154 129.369C123.801 129.369 124.31 129.511 124.679 129.795C125.051 130.08 125.315 130.455 125.472 130.92ZM128.629 134.807L128.561 135.267C128.512 135.591 128.439 135.938 128.339 136.307C128.242 136.676 128.142 137.024 128.037 137.351C127.931 137.678 127.845 137.938 127.777 138.131H127.01C127.046 137.949 127.095 137.709 127.154 137.411C127.214 137.112 127.274 136.778 127.333 136.409C127.396 136.043 127.447 135.668 127.487 135.284L127.538 134.807H128.629ZM134.052 136V127.273H135.108V131.159H139.762V127.273H140.819V136H139.762V132.097H135.108V136H134.052ZM144.748 136.153C144.333 136.153 143.957 136.075 143.619 135.919C143.281 135.76 143.012 135.531 142.813 135.233C142.615 134.932 142.515 134.568 142.515 134.142C142.515 133.767 142.589 133.463 142.737 133.23C142.884 132.994 143.082 132.81 143.329 132.676C143.576 132.543 143.849 132.443 144.147 132.378C144.448 132.31 144.751 132.256 145.055 132.216C145.453 132.165 145.775 132.126 146.022 132.101C146.272 132.072 146.454 132.026 146.568 131.96C146.684 131.895 146.742 131.781 146.742 131.619V131.585C146.742 131.165 146.627 130.838 146.397 130.605C146.17 130.372 145.825 130.256 145.362 130.256C144.882 130.256 144.505 130.361 144.232 130.571C143.96 130.781 143.768 131.006 143.657 131.244L142.703 130.903C142.873 130.506 143.1 130.196 143.384 129.974C143.671 129.75 143.984 129.594 144.322 129.506C144.663 129.415 144.998 129.369 145.328 129.369C145.538 129.369 145.779 129.395 146.052 129.446C146.328 129.494 146.593 129.595 146.849 129.749C147.107 129.902 147.322 130.134 147.492 130.443C147.663 130.753 147.748 131.168 147.748 131.688V136H146.742V135.114H146.691C146.623 135.256 146.509 135.408 146.35 135.57C146.191 135.732 145.98 135.869 145.715 135.983C145.451 136.097 145.129 136.153 144.748 136.153ZM144.901 135.25C145.299 135.25 145.634 135.172 145.907 135.016C146.183 134.859 146.39 134.658 146.529 134.411C146.671 134.163 146.742 133.903 146.742 133.631V132.71C146.7 132.761 146.606 132.808 146.461 132.851C146.319 132.891 146.154 132.926 145.967 132.957C145.782 132.986 145.602 133.011 145.426 133.034C145.252 133.054 145.112 133.071 145.004 133.085C144.742 133.119 144.498 133.175 144.271 133.251C144.046 133.325 143.865 133.437 143.725 133.588C143.589 133.736 143.521 133.937 143.521 134.193C143.521 134.543 143.65 134.807 143.909 134.986C144.17 135.162 144.501 135.25 144.901 135.25ZM150.613 132.062V136H149.608V129.455H150.579V130.477H150.664C150.818 130.145 151.051 129.878 151.363 129.676C151.676 129.472 152.079 129.369 152.574 129.369C153.017 129.369 153.405 129.46 153.737 129.642C154.069 129.821 154.328 130.094 154.513 130.46C154.697 130.824 154.789 131.284 154.789 131.841V136H153.784V131.909C153.784 131.395 153.65 130.994 153.383 130.707C153.116 130.418 152.75 130.273 152.284 130.273C151.963 130.273 151.676 130.342 151.423 130.482C151.173 130.621 150.976 130.824 150.831 131.091C150.686 131.358 150.613 131.682 150.613 132.062ZM159.123 136.136C158.577 136.136 158.096 135.999 157.678 135.723C157.261 135.445 156.934 135.053 156.698 134.547C156.462 134.038 156.344 133.438 156.344 132.744C156.344 132.057 156.462 131.46 156.698 130.955C156.934 130.449 157.262 130.058 157.682 129.783C158.103 129.507 158.589 129.369 159.14 129.369C159.566 129.369 159.903 129.44 160.15 129.582C160.4 129.722 160.59 129.881 160.721 130.06C160.854 130.236 160.958 130.381 161.032 130.494H161.117V127.273H162.123V136H161.151V134.994H161.032C160.958 135.114 160.853 135.264 160.717 135.446C160.58 135.625 160.386 135.786 160.133 135.928C159.88 136.067 159.543 136.136 159.123 136.136ZM159.259 135.233C159.663 135.233 160.003 135.128 160.282 134.918C160.56 134.705 160.772 134.411 160.917 134.036C161.062 133.658 161.134 133.222 161.134 132.727C161.134 132.239 161.063 131.811 160.921 131.445C160.779 131.075 160.569 130.788 160.29 130.584C160.012 130.376 159.668 130.273 159.259 130.273C158.833 130.273 158.478 130.382 158.194 130.601C157.913 130.817 157.701 131.111 157.559 131.483C157.42 131.852 157.35 132.267 157.35 132.727C157.35 133.193 157.421 133.616 157.563 133.997C157.708 134.375 157.921 134.676 158.202 134.901C158.486 135.122 158.839 135.233 159.259 135.233ZM164.265 136V127.273H165.27V130.494H165.356C165.429 130.381 165.532 130.236 165.662 130.06C165.796 129.881 165.986 129.722 166.233 129.582C166.483 129.44 166.822 129.369 167.248 129.369C167.799 129.369 168.285 129.507 168.705 129.783C169.125 130.058 169.454 130.449 169.689 130.955C169.925 131.46 170.043 132.057 170.043 132.744C170.043 133.438 169.925 134.038 169.689 134.547C169.454 135.053 169.127 135.445 168.709 135.723C168.292 135.999 167.81 136.136 167.265 136.136C166.844 136.136 166.508 136.067 166.255 135.928C166.002 135.786 165.807 135.625 165.671 135.446C165.535 135.264 165.429 135.114 165.356 134.994H165.236V136H164.265ZM165.253 132.727C165.253 133.222 165.326 133.658 165.471 134.036C165.616 134.411 165.827 134.705 166.106 134.918C166.384 135.128 166.725 135.233 167.128 135.233C167.549 135.233 167.9 135.122 168.181 134.901C168.465 134.676 168.678 134.375 168.82 133.997C168.965 133.616 169.037 133.193 169.037 132.727C169.037 132.267 168.966 131.852 168.824 131.483C168.685 131.111 168.474 130.817 168.189 130.601C167.908 130.382 167.554 130.273 167.128 130.273C166.719 130.273 166.375 130.376 166.097 130.584C165.819 130.788 165.608 131.075 165.466 131.445C165.324 131.811 165.253 132.239 165.253 132.727ZM173.532 136.153C173.117 136.153 172.74 136.075 172.402 135.919C172.064 135.76 171.796 135.531 171.597 135.233C171.398 134.932 171.299 134.568 171.299 134.142C171.299 133.767 171.372 133.463 171.52 133.23C171.668 132.994 171.865 132.81 172.113 132.676C172.36 132.543 172.632 132.443 172.931 132.378C173.232 132.31 173.534 132.256 173.838 132.216C174.236 132.165 174.559 132.126 174.806 132.101C175.056 132.072 175.238 132.026 175.351 131.96C175.468 131.895 175.526 131.781 175.526 131.619V131.585C175.526 131.165 175.411 130.838 175.181 130.605C174.953 130.372 174.608 130.256 174.145 130.256C173.665 130.256 173.289 130.361 173.016 130.571C172.743 130.781 172.551 131.006 172.441 131.244L171.486 130.903C171.657 130.506 171.884 130.196 172.168 129.974C172.455 129.75 172.767 129.594 173.105 129.506C173.446 129.415 173.782 129.369 174.111 129.369C174.321 129.369 174.563 129.395 174.836 129.446C175.111 129.494 175.377 129.595 175.632 129.749C175.891 129.902 176.105 130.134 176.276 130.443C176.446 130.753 176.532 131.168 176.532 131.688V136H175.526V135.114H175.475C175.407 135.256 175.293 135.408 175.134 135.57C174.975 135.732 174.763 135.869 174.499 135.983C174.235 136.097 173.912 136.153 173.532 136.153ZM173.685 135.25C174.083 135.25 174.418 135.172 174.691 135.016C174.966 134.859 175.174 134.658 175.313 134.411C175.455 134.163 175.526 133.903 175.526 133.631V132.71C175.483 132.761 175.39 132.808 175.245 132.851C175.103 132.891 174.938 132.926 174.75 132.957C174.566 132.986 174.385 133.011 174.209 133.034C174.036 133.054 173.895 133.071 173.787 133.085C173.526 133.119 173.282 133.175 173.054 133.251C172.83 133.325 172.648 133.437 172.509 133.588C172.372 133.736 172.304 133.937 172.304 134.193C172.304 134.543 172.434 134.807 172.692 134.986C172.953 135.162 173.284 135.25 173.685 135.25ZM181.033 138.591C180.547 138.591 180.13 138.528 179.78 138.403C179.431 138.281 179.14 138.119 178.907 137.918C178.677 137.719 178.493 137.506 178.357 137.278L179.158 136.716C179.249 136.835 179.364 136.972 179.503 137.125C179.643 137.281 179.833 137.416 180.074 137.53C180.319 137.646 180.638 137.705 181.033 137.705C181.562 137.705 181.998 137.577 182.341 137.321C182.685 137.065 182.857 136.665 182.857 136.119V134.79H182.772C182.698 134.909 182.593 135.057 182.457 135.233C182.323 135.406 182.13 135.561 181.877 135.697C181.627 135.831 181.289 135.898 180.863 135.898C180.334 135.898 179.86 135.773 179.439 135.523C179.022 135.273 178.691 134.909 178.447 134.432C178.205 133.955 178.084 133.375 178.084 132.693C178.084 132.023 178.202 131.439 178.438 130.942C178.674 130.442 179.002 130.055 179.422 129.783C179.843 129.507 180.329 129.369 180.88 129.369C181.306 129.369 181.644 129.44 181.894 129.582C182.147 129.722 182.34 129.881 182.474 130.06C182.61 130.236 182.715 130.381 182.789 130.494H182.891V129.455H183.863V136.188C183.863 136.75 183.735 137.207 183.479 137.56C183.226 137.915 182.885 138.175 182.457 138.339C182.03 138.507 181.556 138.591 181.033 138.591ZM180.999 134.994C181.403 134.994 181.743 134.902 182.022 134.717C182.3 134.533 182.512 134.267 182.657 133.92C182.802 133.574 182.874 133.159 182.874 132.676C182.874 132.205 182.803 131.788 182.661 131.428C182.519 131.067 182.309 130.784 182.03 130.58C181.752 130.375 181.408 130.273 180.999 130.273C180.573 130.273 180.218 130.381 179.934 130.597C179.653 130.812 179.441 131.102 179.299 131.466C179.16 131.83 179.09 132.233 179.09 132.676C179.09 133.131 179.161 133.533 179.303 133.882C179.448 134.229 179.661 134.501 179.942 134.7C180.226 134.896 180.579 134.994 180.999 134.994ZM190.364 130.92L189.461 131.176C189.404 131.026 189.32 130.879 189.209 130.737C189.101 130.592 188.954 130.473 188.766 130.379C188.579 130.286 188.338 130.239 188.046 130.239C187.645 130.239 187.311 130.331 187.044 130.516C186.78 130.697 186.648 130.929 186.648 131.21C186.648 131.46 186.739 131.658 186.921 131.803C187.103 131.947 187.387 132.068 187.773 132.165L188.745 132.403C189.33 132.545 189.766 132.763 190.053 133.055C190.34 133.345 190.483 133.719 190.483 134.176C190.483 134.551 190.375 134.886 190.159 135.182C189.946 135.477 189.648 135.71 189.265 135.881C188.881 136.051 188.435 136.136 187.927 136.136C187.259 136.136 186.706 135.991 186.269 135.702C185.831 135.412 185.554 134.989 185.438 134.432L186.392 134.193C186.483 134.545 186.655 134.81 186.908 134.986C187.164 135.162 187.498 135.25 187.909 135.25C188.378 135.25 188.75 135.151 189.026 134.952C189.304 134.75 189.444 134.509 189.444 134.227C189.444 134 189.364 133.81 189.205 133.656C189.046 133.5 188.802 133.384 188.472 133.307L187.381 133.051C186.782 132.909 186.341 132.689 186.06 132.391C185.782 132.089 185.642 131.713 185.642 131.261C185.642 130.892 185.746 130.565 185.954 130.281C186.164 129.997 186.449 129.774 186.81 129.612C187.174 129.45 187.586 129.369 188.046 129.369C188.694 129.369 189.202 129.511 189.571 129.795C189.944 130.08 190.208 130.455 190.364 130.92ZM197.892 136.119C197.318 136.119 196.824 136.014 196.409 135.804C195.994 135.594 195.674 135.305 195.45 134.939C195.226 134.572 195.113 134.153 195.113 133.682C195.113 133.318 195.19 132.996 195.344 132.714C195.5 132.43 195.714 132.168 195.987 131.926C196.263 131.682 196.579 131.438 196.937 131.193L198.199 130.256C198.446 130.094 198.643 129.92 198.791 129.736C198.942 129.551 199.017 129.31 199.017 129.011C199.017 128.79 198.919 128.575 198.723 128.368C198.53 128.161 198.275 128.057 197.96 128.057C197.738 128.057 197.542 128.114 197.372 128.227C197.204 128.338 197.072 128.48 196.976 128.653C196.882 128.824 196.835 129 196.835 129.182C196.835 129.386 196.89 129.594 197.001 129.804C197.115 130.011 197.258 130.224 197.432 130.443C197.608 130.659 197.79 130.881 197.977 131.108L201.983 136H200.772L197.466 132.011C197.159 131.642 196.88 131.307 196.63 131.006C196.38 130.705 196.182 130.408 196.034 130.115C195.886 129.822 195.812 129.506 195.812 129.165C195.812 128.773 195.899 128.429 196.072 128.134C196.248 127.835 196.494 127.604 196.809 127.439C197.128 127.271 197.5 127.188 197.926 127.188C198.363 127.188 198.74 127.273 199.055 127.443C199.37 127.611 199.613 127.834 199.784 128.112C199.954 128.388 200.04 128.688 200.04 129.011C200.04 129.429 199.936 129.791 199.728 130.098C199.521 130.405 199.238 130.69 198.88 130.955L197.142 132.25C196.75 132.54 196.484 132.821 196.345 133.094C196.206 133.366 196.136 133.562 196.136 133.682C196.136 133.955 196.207 134.209 196.349 134.445C196.491 134.68 196.692 134.871 196.95 135.016C197.209 135.161 197.511 135.233 197.858 135.233C198.187 135.233 198.508 135.163 198.821 135.024C199.133 134.882 199.416 134.678 199.669 134.411C199.924 134.143 200.126 133.822 200.274 133.447C200.424 133.072 200.5 132.651 200.5 132.182H201.471C201.471 132.761 201.405 133.234 201.271 133.601C201.138 133.967 200.987 134.254 200.819 134.462C200.652 134.669 200.517 134.824 200.415 134.926C200.38 134.969 200.349 135.011 200.321 135.054C200.292 135.097 200.261 135.139 200.227 135.182C199.946 135.497 199.591 135.733 199.162 135.889C198.733 136.043 198.309 136.119 197.892 136.119ZM207.013 136H205.905L209.11 127.273H210.201L213.405 136H212.297L209.689 128.653H209.621L207.013 136ZM207.422 132.591H211.888V133.528H207.422V132.591ZM217.311 136.136C216.698 136.136 216.169 135.991 215.726 135.702C215.283 135.412 214.942 135.013 214.703 134.504C214.465 133.996 214.346 133.415 214.346 132.761C214.346 132.097 214.468 131.51 214.712 131.001C214.959 130.49 215.303 130.091 215.743 129.804C216.186 129.514 216.703 129.369 217.294 129.369C217.755 129.369 218.169 129.455 218.539 129.625C218.908 129.795 219.211 130.034 219.446 130.341C219.682 130.648 219.828 131.006 219.885 131.415H218.88C218.803 131.116 218.632 130.852 218.368 130.622C218.107 130.389 217.755 130.273 217.311 130.273C216.919 130.273 216.576 130.375 216.28 130.58C215.988 130.781 215.759 131.067 215.594 131.436C215.432 131.803 215.351 132.233 215.351 132.727C215.351 133.233 215.431 133.673 215.59 134.048C215.752 134.423 215.979 134.714 216.272 134.922C216.567 135.129 216.914 135.233 217.311 135.233C217.573 135.233 217.81 135.188 218.023 135.097C218.236 135.006 218.417 134.875 218.564 134.705C218.712 134.534 218.817 134.33 218.88 134.091H219.885C219.828 134.477 219.688 134.825 219.463 135.135C219.242 135.442 218.948 135.686 218.581 135.868C218.218 136.047 217.794 136.136 217.311 136.136ZM224.039 136.136C223.425 136.136 222.897 135.991 222.453 135.702C222.01 135.412 221.669 135.013 221.431 134.504C221.192 133.996 221.073 133.415 221.073 132.761C221.073 132.097 221.195 131.51 221.439 131.001C221.686 130.49 222.03 130.091 222.47 129.804C222.914 129.514 223.431 129.369 224.022 129.369C224.482 129.369 224.897 129.455 225.266 129.625C225.635 129.795 225.938 130.034 226.174 130.341C226.409 130.648 226.556 131.006 226.612 131.415H225.607C225.53 131.116 225.36 130.852 225.095 130.622C224.834 130.389 224.482 130.273 224.039 130.273C223.647 130.273 223.303 130.375 223.007 130.58C222.715 130.781 222.486 131.067 222.321 131.436C222.159 131.803 222.078 132.233 222.078 132.727C222.078 133.233 222.158 133.673 222.317 134.048C222.479 134.423 222.706 134.714 222.999 134.922C223.294 135.129 223.641 135.233 224.039 135.233C224.3 135.233 224.537 135.188 224.75 135.097C224.963 135.006 225.144 134.875 225.291 134.705C225.439 134.534 225.544 134.33 225.607 134.091H226.612C226.556 134.477 226.415 134.825 226.191 135.135C225.969 135.442 225.675 135.686 225.308 135.868C224.945 136.047 224.522 136.136 224.039 136.136ZM230.851 136.136C230.22 136.136 229.676 135.997 229.219 135.719C228.764 135.438 228.413 135.045 228.166 134.543C227.922 134.037 227.8 133.449 227.8 132.778C227.8 132.108 227.922 131.517 228.166 131.006C228.413 130.491 228.757 130.091 229.198 129.804C229.641 129.514 230.158 129.369 230.749 129.369C231.09 129.369 231.426 129.426 231.759 129.54C232.091 129.653 232.394 129.838 232.666 130.094C232.939 130.347 233.156 130.682 233.318 131.099C233.48 131.517 233.561 132.031 233.561 132.642V133.068H228.516V132.199H232.538C232.538 131.83 232.465 131.5 232.317 131.21C232.172 130.92 231.965 130.692 231.695 130.524C231.428 130.357 231.112 130.273 230.749 130.273C230.348 130.273 230.001 130.372 229.709 130.571C229.419 130.767 229.196 131.023 229.04 131.338C228.884 131.653 228.805 131.991 228.805 132.352V132.932C228.805 133.426 228.891 133.845 229.061 134.189C229.234 134.53 229.475 134.79 229.781 134.969C230.088 135.145 230.445 135.233 230.851 135.233C231.115 135.233 231.354 135.196 231.567 135.122C231.783 135.045 231.969 134.932 232.125 134.781C232.281 134.628 232.402 134.437 232.487 134.21L233.459 134.483C233.357 134.812 233.185 135.102 232.943 135.352C232.702 135.599 232.403 135.793 232.048 135.932C231.693 136.068 231.294 136.136 230.851 136.136ZM239.751 130.92L238.848 131.176C238.791 131.026 238.707 130.879 238.597 130.737C238.489 130.592 238.341 130.473 238.153 130.379C237.966 130.286 237.726 130.239 237.433 130.239C237.033 130.239 236.699 130.331 236.432 130.516C236.168 130.697 236.035 130.929 236.035 131.21C236.035 131.46 236.126 131.658 236.308 131.803C236.49 131.947 236.774 132.068 237.16 132.165L238.132 132.403C238.717 132.545 239.153 132.763 239.44 133.055C239.727 133.345 239.871 133.719 239.871 134.176C239.871 134.551 239.763 134.886 239.547 135.182C239.334 135.477 239.035 135.71 238.652 135.881C238.268 136.051 237.822 136.136 237.314 136.136C236.646 136.136 236.094 135.991 235.656 135.702C235.219 135.412 234.942 134.989 234.825 134.432L235.78 134.193C235.871 134.545 236.043 134.81 236.295 134.986C236.551 135.162 236.885 135.25 237.297 135.25C237.766 135.25 238.138 135.151 238.413 134.952C238.692 134.75 238.831 134.509 238.831 134.227C238.831 134 238.751 133.81 238.592 133.656C238.433 133.5 238.189 133.384 237.859 133.307L236.768 133.051C236.169 132.909 235.729 132.689 235.447 132.391C235.169 132.089 235.03 131.713 235.03 131.261C235.03 130.892 235.133 130.565 235.341 130.281C235.551 129.997 235.837 129.774 236.197 129.612C236.561 129.45 236.973 129.369 237.433 129.369C238.081 129.369 238.589 129.511 238.959 129.795C239.331 130.08 239.595 130.455 239.751 130.92ZM246.045 130.92L245.141 131.176C245.085 131.026 245.001 130.879 244.89 130.737C244.782 130.592 244.634 130.473 244.447 130.379C244.259 130.286 244.019 130.239 243.727 130.239C243.326 130.239 242.992 130.331 242.725 130.516C242.461 130.697 242.329 130.929 242.329 131.21C242.329 131.46 242.42 131.658 242.602 131.803C242.784 131.947 243.068 132.068 243.454 132.165L244.426 132.403C245.011 132.545 245.447 132.763 245.734 133.055C246.021 133.345 246.164 133.719 246.164 134.176C246.164 134.551 246.056 134.886 245.84 135.182C245.627 135.477 245.329 135.71 244.945 135.881C244.562 136.051 244.116 136.136 243.607 136.136C242.94 136.136 242.387 135.991 241.95 135.702C241.512 135.412 241.235 134.989 241.119 134.432L242.073 134.193C242.164 134.545 242.336 134.81 242.589 134.986C242.845 135.162 243.178 135.25 243.59 135.25C244.059 135.25 244.431 135.151 244.707 134.952C244.985 134.75 245.124 134.509 245.124 134.227C245.124 134 245.045 133.81 244.886 133.656C244.727 133.5 244.482 133.384 244.153 133.307L243.062 133.051C242.462 132.909 242.022 132.689 241.741 132.391C241.462 132.089 241.323 131.713 241.323 131.261C241.323 130.892 241.427 130.565 241.634 130.281C241.845 129.997 242.13 129.774 242.491 129.612C242.855 129.45 243.266 129.369 243.727 129.369C244.374 129.369 244.883 129.511 245.252 129.795C245.624 130.08 245.889 130.455 246.045 130.92ZM250.361 136.136C249.77 136.136 249.252 135.996 248.806 135.714C248.363 135.433 248.016 135.04 247.766 134.534C247.519 134.028 247.395 133.437 247.395 132.761C247.395 132.08 247.519 131.484 247.766 130.976C248.016 130.467 248.363 130.072 248.806 129.791C249.252 129.51 249.77 129.369 250.361 129.369C250.952 129.369 251.469 129.51 251.912 129.791C252.358 130.072 252.705 130.467 252.952 130.976C253.202 131.484 253.327 132.08 253.327 132.761C253.327 133.437 253.202 134.028 252.952 134.534C252.705 135.04 252.358 135.433 251.912 135.714C251.469 135.996 250.952 136.136 250.361 136.136ZM250.361 135.233C250.81 135.233 251.179 135.118 251.469 134.888C251.759 134.658 251.973 134.355 252.113 133.98C252.252 133.605 252.321 133.199 252.321 132.761C252.321 132.324 252.252 131.916 252.113 131.538C251.973 131.161 251.759 130.855 251.469 130.622C251.179 130.389 250.81 130.273 250.361 130.273C249.912 130.273 249.543 130.389 249.253 130.622C248.963 130.855 248.749 131.161 248.61 131.538C248.471 131.916 248.401 132.324 248.401 132.761C248.401 133.199 248.471 133.605 248.61 133.98C248.749 134.355 248.963 134.658 249.253 134.888C249.543 135.118 249.912 135.233 250.361 135.233ZM254.886 136V129.455H255.858V130.443H255.926C256.045 130.119 256.261 129.857 256.574 129.655C256.886 129.453 257.238 129.352 257.631 129.352C257.704 129.352 257.797 129.354 257.908 129.357C258.018 129.359 258.102 129.364 258.159 129.369V130.392C258.125 130.384 258.047 130.371 257.925 130.354C257.805 130.334 257.679 130.324 257.545 130.324C257.227 130.324 256.943 130.391 256.693 130.524C256.446 130.655 256.25 130.837 256.105 131.07C255.963 131.3 255.892 131.562 255.892 131.858V136H254.886ZM259.375 136V129.455H260.381V136H259.375ZM259.886 128.364C259.69 128.364 259.521 128.297 259.379 128.163C259.24 128.03 259.17 127.869 259.17 127.682C259.17 127.494 259.24 127.334 259.379 127.2C259.521 127.067 259.69 127 259.886 127C260.082 127 260.25 127.067 260.389 127.2C260.531 127.334 260.602 127.494 260.602 127.682C260.602 127.869 260.531 128.03 260.389 128.163C260.25 128.297 260.082 128.364 259.886 128.364ZM264.991 136.136C264.36 136.136 263.816 135.997 263.359 135.719C262.904 135.438 262.554 135.045 262.306 134.543C262.062 134.037 261.94 133.449 261.94 132.778C261.94 132.108 262.062 131.517 262.306 131.006C262.554 130.491 262.897 130.091 263.338 129.804C263.781 129.514 264.298 129.369 264.889 129.369C265.23 129.369 265.566 129.426 265.899 129.54C266.231 129.653 266.534 129.838 266.806 130.094C267.079 130.347 267.296 130.682 267.458 131.099C267.62 131.517 267.701 132.031 267.701 132.642V133.068H262.656V132.199H266.679C266.679 131.83 266.605 131.5 266.457 131.21C266.312 130.92 266.105 130.692 265.835 130.524C265.568 130.357 265.252 130.273 264.889 130.273C264.488 130.273 264.142 130.372 263.849 130.571C263.559 130.767 263.336 131.023 263.18 131.338C263.024 131.653 262.946 131.991 262.946 132.352V132.932C262.946 133.426 263.031 133.845 263.201 134.189C263.375 134.53 263.615 134.79 263.921 134.969C264.228 135.145 264.585 135.233 264.991 135.233C265.255 135.233 265.494 135.196 265.707 135.122C265.923 135.045 266.109 134.932 266.265 134.781C266.421 134.628 266.542 134.437 266.627 134.21L267.599 134.483C267.497 134.812 267.325 135.102 267.083 135.352C266.842 135.599 266.544 135.793 266.188 135.932C265.833 136.068 265.434 136.136 264.991 136.136ZM273.891 130.92L272.988 131.176C272.931 131.026 272.847 130.879 272.737 130.737C272.629 130.592 272.481 130.473 272.293 130.379C272.106 130.286 271.866 130.239 271.573 130.239C271.173 130.239 270.839 130.331 270.572 130.516C270.308 130.697 270.176 130.929 270.176 131.21C270.176 131.46 270.266 131.658 270.448 131.803C270.63 131.947 270.914 132.068 271.301 132.165L272.272 132.403C272.857 132.545 273.293 132.763 273.58 133.055C273.867 133.345 274.011 133.719 274.011 134.176C274.011 134.551 273.903 134.886 273.687 135.182C273.474 135.477 273.176 135.71 272.792 135.881C272.408 136.051 271.962 136.136 271.454 136.136C270.786 136.136 270.234 135.991 269.796 135.702C269.359 135.412 269.082 134.989 268.965 134.432L269.92 134.193C270.011 134.545 270.183 134.81 270.435 134.986C270.691 135.162 271.025 135.25 271.437 135.25C271.906 135.25 272.278 135.151 272.553 134.952C272.832 134.75 272.971 134.509 272.971 134.227C272.971 134 272.891 133.81 272.732 133.656C272.573 133.5 272.329 133.384 271.999 133.307L270.908 133.051C270.309 132.909 269.869 132.689 269.587 132.391C269.309 132.089 269.17 131.713 269.17 131.261C269.17 130.892 269.274 130.565 269.481 130.281C269.691 129.997 269.977 129.774 270.337 129.612C270.701 129.45 271.113 129.369 271.573 129.369C272.221 129.369 272.73 129.511 273.099 129.795C273.471 130.08 273.735 130.455 273.891 130.92Z" fill="#0D0C22"/>
</g>
<g filter="url(#filter5_d_1784_2706)">
<rect x="24" y="20" width="147" height="32" rx="8" fill="#FFE9EF" shape-rendering="crispEdges"/>
<path d="M41.4817 40V31.2727H44.5329C45.1408 31.2727 45.6422 31.3778 46.0371 31.5881C46.432 31.7955 46.726 32.0753 46.9192 32.4276C47.1124 32.777 47.209 33.1648 47.209 33.5909C47.209 33.9659 47.1422 34.2756 47.0087 34.5199C46.878 34.7642 46.7047 34.9574 46.4888 35.0994C46.2758 35.2415 46.0442 35.3466 45.7942 35.4148V35.5C46.0613 35.517 46.3297 35.6108 46.5996 35.7812C46.8695 35.9517 47.0954 36.196 47.2772 36.5142C47.459 36.8324 47.5499 37.2216 47.5499 37.6818C47.5499 38.1193 47.4505 38.5128 47.2516 38.8622C47.0527 39.2116 46.7388 39.4886 46.3099 39.6932C45.8809 39.8977 45.3226 40 44.6351 40H41.4817ZM42.5385 39.0625H44.6351C45.3255 39.0625 45.8155 38.929 46.1053 38.6619C46.3979 38.392 46.5442 38.0653 46.5442 37.6818C46.5442 37.3864 46.4689 37.1136 46.3184 36.8636C46.1678 36.6108 45.9533 36.4091 45.6749 36.2585C45.3965 36.1051 45.067 36.0284 44.6863 36.0284H42.5385V39.0625ZM42.5385 35.108H44.4988C44.817 35.108 45.1039 35.0455 45.3596 34.9205C45.6181 34.7955 45.8226 34.6193 45.9732 34.392C46.1266 34.1648 46.2033 33.8977 46.2033 33.5909C46.2033 33.2074 46.0698 32.8821 45.8027 32.6151C45.5357 32.3452 45.1124 32.2102 44.5329 32.2102H42.5385V35.108ZM51.9184 40.1364C51.2877 40.1364 50.7437 39.9972 50.2863 39.7188C49.8317 39.4375 49.4809 39.0455 49.2337 38.5426C48.9894 38.0369 48.8672 37.4489 48.8672 36.7784C48.8672 36.108 48.9894 35.517 49.2337 35.0057C49.4809 34.4915 49.8246 34.0909 50.265 33.804C50.7081 33.5142 51.2252 33.3693 51.8161 33.3693C52.157 33.3693 52.4937 33.4261 52.826 33.5398C53.1584 33.6534 53.461 33.8381 53.7337 34.0938C54.0064 34.3466 54.2238 34.6818 54.3857 35.0994C54.5476 35.517 54.6286 36.0312 54.6286 36.642V37.0682H49.5831V36.1989H53.6059C53.6059 35.8295 53.532 35.5 53.3843 35.2102C53.2394 34.9205 53.032 34.6918 52.7621 34.5241C52.4951 34.3565 52.1797 34.2727 51.8161 34.2727C51.4155 34.2727 51.0689 34.3722 50.7763 34.571C50.4865 34.767 50.2635 35.0227 50.1073 35.3381C49.951 35.6534 49.8729 35.9915 49.8729 36.3523V36.9318C49.8729 37.4261 49.9581 37.8452 50.1286 38.1889C50.3019 38.5298 50.5419 38.7898 50.8488 38.9688C51.1556 39.1449 51.5121 39.233 51.9184 39.233C52.1826 39.233 52.4212 39.196 52.6343 39.1222C52.8502 39.0455 53.0363 38.9318 53.1925 38.7812C53.3488 38.6278 53.4695 38.4375 53.5547 38.2102L54.5263 38.483C54.4241 38.8125 54.2522 39.1023 54.0107 39.3523C53.7692 39.5994 53.4709 39.7926 53.1158 39.9318C52.7607 40.0682 52.3616 40.1364 51.9184 40.1364ZM58.1086 40.1534C57.6938 40.1534 57.3174 40.0753 56.9793 39.919C56.6412 39.7599 56.3728 39.5312 56.1739 39.233C55.975 38.9318 55.8756 38.5682 55.8756 38.142C55.8756 37.767 55.9495 37.4631 56.0972 37.2301C56.2449 36.9943 56.4424 36.8097 56.6895 36.6761C56.9367 36.5426 57.2094 36.4432 57.5077 36.3778C57.8088 36.3097 58.1114 36.2557 58.4154 36.2159C58.8131 36.1648 59.1356 36.1264 59.3827 36.1009C59.6327 36.0724 59.8145 36.0256 59.9282 35.9602C60.0446 35.8949 60.1029 35.7812 60.1029 35.6193V35.5852C60.1029 35.1648 59.9878 34.8381 59.7577 34.6051C59.5304 34.3722 59.1853 34.2557 58.7222 34.2557C58.2421 34.2557 57.8657 34.3608 57.5929 34.571C57.3202 34.7812 57.1284 35.0057 57.0177 35.2443L56.0631 34.9034C56.2336 34.5057 56.4608 34.196 56.7449 33.9744C57.0319 33.75 57.3444 33.5937 57.6824 33.5057C58.0233 33.4148 58.3586 33.3693 58.6881 33.3693C58.8983 33.3693 59.1398 33.3949 59.4125 33.446C59.6881 33.4943 59.9537 33.5952 60.2094 33.7486C60.4679 33.902 60.6824 34.1335 60.8529 34.4432C61.0233 34.7528 61.1086 35.1676 61.1086 35.6875V40H60.1029V39.1136H60.0517C59.9836 39.2557 59.8699 39.4077 59.7108 39.5696C59.5517 39.7315 59.3401 39.8693 59.0759 39.983C58.8117 40.0966 58.4892 40.1534 58.1086 40.1534ZM58.262 39.25C58.6597 39.25 58.9949 39.1719 59.2677 39.0156C59.5432 38.8594 59.7506 38.6577 59.8898 38.4105C60.0319 38.1634 60.1029 37.9034 60.1029 37.6307V36.7102C60.0603 36.7614 59.9665 36.8082 59.8216 36.8509C59.6796 36.8906 59.5148 36.9261 59.3273 36.9574C59.1427 36.9858 58.9623 37.0114 58.7861 37.0341C58.6128 37.054 58.4722 37.071 58.3642 37.0852C58.1029 37.1193 57.8586 37.1747 57.6313 37.2514C57.4069 37.3253 57.225 37.4375 57.0858 37.5881C56.9495 37.7358 56.8813 37.9375 56.8813 38.1932C56.8813 38.5426 57.0106 38.8068 57.2691 38.9858C57.5304 39.1619 57.8614 39.25 58.262 39.25ZM67.0931 37.3239V33.4545H68.0988V40H67.0931V38.892H67.025C66.8716 39.2244 66.6329 39.5071 66.3091 39.7401C65.9852 39.9702 65.5761 40.0852 65.0818 40.0852C64.6727 40.0852 64.3091 39.9957 63.9909 39.8168C63.6727 39.6349 63.4227 39.3622 63.2409 38.9986C63.0591 38.6321 62.9681 38.1705 62.9681 37.6136V33.4545H63.9738V37.5455C63.9738 38.0227 64.1073 38.4034 64.3744 38.6875C64.6443 38.9716 64.988 39.1136 65.4056 39.1136C65.6556 39.1136 65.9099 39.0497 66.1684 38.9219C66.4298 38.794 66.6485 38.598 66.8247 38.3338C67.0037 38.0696 67.0931 37.733 67.0931 37.3239ZM72.8114 33.4545V34.3068H69.4193V33.4545H72.8114ZM70.408 31.8864H71.4137V38.125C71.4137 38.4091 71.4549 38.6222 71.5372 38.7642C71.6225 38.9034 71.7304 38.9972 71.8611 39.0455C71.9946 39.0909 72.1353 39.1136 72.283 39.1136C72.3938 39.1136 72.4847 39.108 72.5557 39.0966C72.6267 39.0824 72.6836 39.071 72.7262 39.0625L72.9307 39.9659C72.8625 39.9915 72.7674 40.017 72.6452 40.0426C72.523 40.071 72.3682 40.0852 72.1807 40.0852C71.8966 40.0852 71.6182 40.0241 71.3455 39.902C71.0756 39.7798 70.8512 39.5938 70.6722 39.3438C70.4961 39.0938 70.408 38.7784 70.408 38.3977V31.8864ZM74.9959 42.4545C74.8254 42.4545 74.6735 42.4403 74.5399 42.4119C74.4064 42.3864 74.3141 42.3608 74.2629 42.3352L74.5186 41.4489C74.7629 41.5114 74.9789 41.5341 75.1664 41.517C75.3539 41.5 75.52 41.4162 75.6649 41.2656C75.8127 41.1179 75.9476 40.8778 76.0698 40.5455L76.2573 40.0341L73.8368 33.4545H74.9277L76.7345 38.6705H76.8027L78.6095 33.4545H79.7004L76.922 40.9545C76.797 41.2926 76.6422 41.5724 76.4575 41.794C76.2729 42.0185 76.0584 42.1847 75.8141 42.2926C75.5726 42.4006 75.2999 42.4545 74.9959 42.4545ZM86.9225 40.1193C86.3486 40.1193 85.8543 40.0142 85.4395 39.804C85.0247 39.5937 84.7051 39.3054 84.4807 38.9389C84.2563 38.5724 84.144 38.1534 84.144 37.6818C84.144 37.3182 84.2207 36.9957 84.3742 36.7145C84.5304 36.4304 84.7449 36.1676 85.0176 35.9261C85.2932 35.6818 85.61 35.4375 85.9679 35.1932L87.2293 34.2557C87.4764 34.0937 87.6739 33.9205 87.8216 33.7358C87.9722 33.5511 88.0475 33.3097 88.0475 33.0114C88.0475 32.7898 87.9494 32.5753 87.7534 32.3679C87.5602 32.1605 87.306 32.0568 86.9906 32.0568C86.769 32.0568 86.573 32.1136 86.4026 32.2273C86.235 32.3381 86.1029 32.4801 86.0063 32.6534C85.9125 32.8239 85.8656 33 85.8656 33.1818C85.8656 33.3864 85.921 33.5938 86.0318 33.804C86.1455 34.0114 86.2889 34.2244 86.4622 34.4432C86.6384 34.6591 86.8202 34.8807 87.0077 35.108L91.0134 40H89.8031L86.4963 36.0114C86.1895 35.642 85.9111 35.3068 85.6611 35.0057C85.4111 34.7045 85.2122 34.4077 85.0645 34.1151C84.9168 33.8224 84.8429 33.5057 84.8429 33.1648C84.8429 32.7727 84.9296 32.429 85.1029 32.1335C85.279 31.8352 85.5247 31.6037 85.8401 31.4389C86.1582 31.2713 86.5304 31.1875 86.9565 31.1875C87.394 31.1875 87.7705 31.2727 88.0858 31.4432C88.4011 31.6108 88.644 31.8338 88.8145 32.1122C88.985 32.3878 89.0702 32.6875 89.0702 33.0114C89.0702 33.429 88.9665 33.7912 88.7591 34.098C88.5517 34.4048 88.269 34.6903 87.9111 34.9545L86.1725 36.25C85.7804 36.5398 85.5148 36.821 85.3756 37.0938C85.2364 37.3665 85.1668 37.5625 85.1668 37.6818C85.1668 37.9545 85.2378 38.2088 85.3798 38.4446C85.5219 38.6804 85.7222 38.8707 85.9807 39.0156C86.2392 39.1605 86.5418 39.233 86.8884 39.233C87.2179 39.233 87.5389 39.1634 87.8514 39.0241C88.1639 38.8821 88.4466 38.6776 88.6994 38.4105C88.9551 38.1435 89.1568 37.8224 89.3046 37.4474C89.4551 37.0724 89.5304 36.6506 89.5304 36.1818H90.502C90.502 36.7614 90.4352 37.2344 90.3017 37.6009C90.1682 37.9673 90.0176 38.2543 89.85 38.4616C89.6824 38.669 89.5475 38.8239 89.4452 38.9261C89.4111 38.9687 89.3798 39.0114 89.3514 39.054C89.323 39.0966 89.2918 39.1392 89.2577 39.1818C88.9764 39.4972 88.6213 39.733 88.1923 39.8892C87.7634 40.0426 87.3401 40.1193 86.9225 40.1193ZM102.709 34H101.652C101.589 33.696 101.48 33.429 101.324 33.1989C101.17 32.9688 100.983 32.7756 100.761 32.6193C100.543 32.4602 100.3 32.3409 100.033 32.2614C99.7656 32.1818 99.4871 32.142 99.1974 32.142C98.669 32.142 98.1903 32.2756 97.7613 32.5426C97.3352 32.8097 96.9957 33.2031 96.7428 33.723C96.4928 34.2429 96.3678 34.8807 96.3678 35.6364C96.3678 36.392 96.4928 37.0298 96.7428 37.5497C96.9957 38.0696 97.3352 38.4631 97.7613 38.7301C98.1903 38.9972 98.669 39.1307 99.1974 39.1307C99.4871 39.1307 99.7656 39.0909 100.033 39.0114C100.3 38.9318 100.543 38.8139 100.761 38.6577C100.983 38.4986 101.17 38.304 101.324 38.0739C101.48 37.8409 101.589 37.5739 101.652 37.2727H102.709C102.629 37.7187 102.484 38.1179 102.274 38.4702C102.064 38.8224 101.802 39.1222 101.49 39.3693C101.177 39.6136 100.827 39.7997 100.437 39.9276C100.051 40.0554 99.6377 40.1193 99.1974 40.1193C98.4531 40.1193 97.7911 39.9375 97.2116 39.5739C96.632 39.2102 96.1761 38.6932 95.8437 38.0227C95.5113 37.3523 95.3451 36.5568 95.3451 35.6364C95.3451 34.7159 95.5113 33.9205 95.8437 33.25C96.1761 32.5795 96.632 32.0625 97.2116 31.6989C97.7911 31.3352 98.4531 31.1534 99.1974 31.1534C99.6377 31.1534 100.051 31.2173 100.437 31.3452C100.827 31.473 101.177 31.6605 101.49 31.9077C101.802 32.152 102.064 32.4503 102.274 32.8026C102.484 33.152 102.629 33.5511 102.709 34ZM106.963 40.1364C106.372 40.1364 105.854 39.9957 105.408 39.7145C104.965 39.4332 104.618 39.0398 104.368 38.5341C104.121 38.0284 103.997 37.4375 103.997 36.7614C103.997 36.0795 104.121 35.4844 104.368 34.9759C104.618 34.4673 104.965 34.0724 105.408 33.7912C105.854 33.5099 106.372 33.3693 106.963 33.3693C107.554 33.3693 108.071 33.5099 108.514 33.7912C108.96 34.0724 109.307 34.4673 109.554 34.9759C109.804 35.4844 109.929 36.0795 109.929 36.7614C109.929 37.4375 109.804 38.0284 109.554 38.5341C109.307 39.0398 108.96 39.4332 108.514 39.7145C108.071 39.9957 107.554 40.1364 106.963 40.1364ZM106.963 39.233C107.412 39.233 107.781 39.1179 108.071 38.8878C108.361 38.6577 108.575 38.3551 108.715 37.9801C108.854 37.6051 108.923 37.1989 108.923 36.7614C108.923 36.3239 108.854 35.9162 108.715 35.5384C108.575 35.1605 108.361 34.8551 108.071 34.6222C107.781 34.3892 107.412 34.2727 106.963 34.2727C106.514 34.2727 106.145 34.3892 105.855 34.6222C105.565 34.8551 105.351 35.1605 105.212 35.5384C105.073 35.9162 105.003 36.3239 105.003 36.7614C105.003 37.1989 105.073 37.6051 105.212 37.9801C105.351 38.3551 105.565 38.6577 105.855 38.8878C106.145 39.1179 106.514 39.233 106.963 39.233ZM116.125 34.9205L115.221 35.1761C115.164 35.0256 115.081 34.8793 114.97 34.7372C114.862 34.5923 114.714 34.473 114.527 34.3793C114.339 34.2855 114.099 34.2386 113.806 34.2386C113.406 34.2386 113.072 34.331 112.805 34.5156C112.541 34.6974 112.409 34.929 112.409 35.2102C112.409 35.4602 112.5 35.6577 112.681 35.8026C112.863 35.9474 113.147 36.0682 113.534 36.1648L114.505 36.4034C115.091 36.5455 115.527 36.7628 115.814 37.0554C116.1 37.3452 116.244 37.7187 116.244 38.1761C116.244 38.5511 116.136 38.8864 115.92 39.1818C115.707 39.4773 115.409 39.7102 115.025 39.8807C114.642 40.0511 114.196 40.1364 113.687 40.1364C113.02 40.1364 112.467 39.9915 112.029 39.7017C111.592 39.4119 111.315 38.9886 111.198 38.4318L112.153 38.1932C112.244 38.5455 112.416 38.8097 112.669 38.9858C112.924 39.1619 113.258 39.25 113.67 39.25C114.139 39.25 114.511 39.1506 114.787 38.9517C115.065 38.75 115.204 38.5085 115.204 38.2273C115.204 38 115.125 37.8097 114.966 37.6562C114.806 37.5 114.562 37.3835 114.233 37.3068L113.142 37.0511C112.542 36.9091 112.102 36.6889 111.821 36.3906C111.542 36.0895 111.403 35.7131 111.403 35.2614C111.403 34.892 111.507 34.5653 111.714 34.2812C111.924 33.9972 112.21 33.7741 112.571 33.6122C112.934 33.4503 113.346 33.3693 113.806 33.3693C114.454 33.3693 114.963 33.5114 115.332 33.7955C115.704 34.0795 115.968 34.4545 116.125 34.9205ZM117.782 40V33.4545H118.753V34.4773H118.839C118.975 34.1278 119.195 33.8565 119.499 33.6634C119.803 33.4673 120.168 33.3693 120.594 33.3693C121.026 33.3693 121.385 33.4673 121.672 33.6634C121.962 33.8565 122.188 34.1278 122.35 34.4773H122.418C122.586 34.1392 122.837 33.8707 123.172 33.6719C123.508 33.4702 123.91 33.3693 124.378 33.3693C124.964 33.3693 125.442 33.5526 125.814 33.919C126.187 34.2827 126.373 34.8494 126.373 35.6193V40H125.367V35.6193C125.367 35.1364 125.235 34.7912 124.971 34.5838C124.707 34.3764 124.395 34.2727 124.037 34.2727C123.577 34.2727 123.221 34.4119 122.968 34.6903C122.715 34.9659 122.589 35.3153 122.589 35.7386V40H121.566V35.517C121.566 35.1449 121.445 34.8452 121.204 34.6179C120.962 34.3878 120.651 34.2727 120.27 34.2727C120.009 34.2727 119.765 34.3423 119.537 34.4815C119.313 34.6207 119.131 34.8139 118.992 35.0611C118.856 35.3054 118.787 35.5881 118.787 35.9091V40H117.782ZM130.98 40.1364C130.349 40.1364 129.805 39.9972 129.348 39.7188C128.893 39.4375 128.542 39.0455 128.295 38.5426C128.051 38.0369 127.929 37.4489 127.929 36.7784C127.929 36.108 128.051 35.517 128.295 35.0057C128.542 34.4915 128.886 34.0909 129.326 33.804C129.77 33.5142 130.287 33.3693 130.878 33.3693C131.218 33.3693 131.555 33.4261 131.887 33.5398C132.22 33.6534 132.522 33.8381 132.795 34.0938C133.068 34.3466 133.285 34.6818 133.447 35.0994C133.609 35.517 133.69 36.0312 133.69 36.642V37.0682H128.645V36.1989H132.667C132.667 35.8295 132.593 35.5 132.446 35.2102C132.301 34.9205 132.093 34.6918 131.824 34.5241C131.557 34.3565 131.241 34.2727 130.878 34.2727C130.477 34.2727 130.13 34.3722 129.838 34.571C129.548 34.767 129.325 35.0227 129.169 35.3381C129.012 35.6534 128.934 35.9915 128.934 36.3523V36.9318C128.934 37.4261 129.02 37.8452 129.19 38.1889C129.363 38.5298 129.603 38.7898 129.91 38.9688C130.217 39.1449 130.574 39.233 130.98 39.233C131.244 39.233 131.483 39.196 131.696 39.1222C131.912 39.0455 132.098 38.9318 132.254 38.7812C132.41 38.6278 132.531 38.4375 132.616 38.2102L133.588 38.483C133.485 38.8125 133.314 39.1023 133.072 39.3523C132.831 39.5994 132.532 39.7926 132.177 39.9318C131.822 40.0682 131.423 40.1364 130.98 40.1364ZM138.09 33.4545V34.3068H134.698V33.4545H138.09ZM135.687 31.8864H136.693V38.125C136.693 38.4091 136.734 38.6222 136.816 38.7642C136.902 38.9034 137.009 38.9972 137.14 39.0455C137.274 39.0909 137.414 39.1136 137.562 39.1136C137.673 39.1136 137.764 39.108 137.835 39.0966C137.906 39.0824 137.963 39.071 138.005 39.0625L138.21 39.9659C138.142 39.9915 138.046 40.017 137.924 40.0426C137.802 40.071 137.647 40.0852 137.46 40.0852C137.176 40.0852 136.897 40.0241 136.625 39.902C136.355 39.7798 136.13 39.5938 135.951 39.3438C135.775 39.0938 135.687 38.7784 135.687 38.3977V31.8864ZM139.627 40V33.4545H140.633V40H139.627ZM140.139 32.3636C139.943 32.3636 139.774 32.2969 139.632 32.1634C139.492 32.0298 139.423 31.8693 139.423 31.6818C139.423 31.4943 139.492 31.3338 139.632 31.2003C139.774 31.0668 139.943 31 140.139 31C140.335 31 140.502 31.0668 140.641 31.2003C140.783 31.3338 140.855 31.4943 140.855 31.6818C140.855 31.8693 140.783 32.0298 140.641 32.1634C140.502 32.2969 140.335 32.3636 140.139 32.3636ZM145.158 40.1364C144.544 40.1364 144.016 39.9915 143.573 39.7017C143.13 39.4119 142.789 39.0128 142.55 38.5043C142.311 37.9957 142.192 37.4148 142.192 36.7614C142.192 36.0966 142.314 35.5099 142.559 35.0014C142.806 34.4901 143.149 34.0909 143.59 33.804C144.033 33.5142 144.55 33.3693 145.141 33.3693C145.601 33.3693 146.016 33.4545 146.385 33.625C146.755 33.7955 147.057 34.0341 147.293 34.3409C147.529 34.6477 147.675 35.0057 147.732 35.4148H146.726C146.649 35.1165 146.479 34.8523 146.215 34.6222C145.953 34.3892 145.601 34.2727 145.158 34.2727C144.766 34.2727 144.422 34.375 144.127 34.5795C143.834 34.7812 143.605 35.0668 143.441 35.4361C143.279 35.8026 143.198 36.233 143.198 36.7273C143.198 37.233 143.277 37.6733 143.436 38.0483C143.598 38.4233 143.826 38.7145 144.118 38.9219C144.414 39.1293 144.76 39.233 145.158 39.233C145.419 39.233 145.657 39.1875 145.87 39.0966C146.083 39.0057 146.263 38.875 146.411 38.7045C146.559 38.5341 146.664 38.3295 146.726 38.0909H147.732C147.675 38.4773 147.534 38.8253 147.31 39.1349C147.088 39.4418 146.794 39.6861 146.428 39.8679C146.064 40.0469 145.641 40.1364 145.158 40.1364ZM153.862 34.9205L152.959 35.1761C152.902 35.0256 152.818 34.8793 152.708 34.7372C152.6 34.5923 152.452 34.473 152.264 34.3793C152.077 34.2855 151.837 34.2386 151.544 34.2386C151.144 34.2386 150.81 34.331 150.543 34.5156C150.279 34.6974 150.146 34.929 150.146 35.2102C150.146 35.4602 150.237 35.6577 150.419 35.8026C150.601 35.9474 150.885 36.0682 151.271 36.1648L152.243 36.4034C152.828 36.5455 153.264 36.7628 153.551 37.0554C153.838 37.3452 153.982 37.7187 153.982 38.1761C153.982 38.5511 153.874 38.8864 153.658 39.1818C153.445 39.4773 153.146 39.7102 152.763 39.8807C152.379 40.0511 151.933 40.1364 151.425 40.1364C150.757 40.1364 150.205 39.9915 149.767 39.7017C149.33 39.4119 149.053 38.9886 148.936 38.4318L149.891 38.1932C149.982 38.5455 150.154 38.8097 150.406 38.9858C150.662 39.1619 150.996 39.25 151.408 39.25C151.877 39.25 152.249 39.1506 152.524 38.9517C152.803 38.75 152.942 38.5085 152.942 38.2273C152.942 38 152.862 37.8097 152.703 37.6562C152.544 37.5 152.3 37.3835 151.97 37.3068L150.879 37.0511C150.28 36.9091 149.84 36.6889 149.558 36.3906C149.28 36.0895 149.141 35.7131 149.141 35.2614C149.141 34.892 149.244 34.5653 149.452 34.2812C149.662 33.9972 149.948 33.7741 150.308 33.6122C150.672 33.4503 151.084 33.3693 151.544 33.3693C152.192 33.3693 152.7 33.5114 153.07 33.7955C153.442 34.0795 153.706 34.4545 153.862 34.9205Z" fill="#0D0C22"/>
</g>
<defs>
<filter id="filter0_d_1784_2706" x="68" y="48" width="162" height="80" filterUnits="userSpaceOnUse" color-interpolation-filters="sRGB">
<feFlood flood-opacity="0" result="BackgroundImageFix"/>
<feColorMatrix in="SourceAlpha" type="matrix" values="0 0 0 0 0 0 0 0 0 0 0 0 0 0 0 0 0 0 127 0" result="hardAlpha"/>
<feOffset dy="4"/>
<feGaussianBlur stdDeviation="12"/>
<feComposite in2="hardAlpha" operator="out"/>
<feColorMatrix type="matrix" values="0 0 0 0 0.929525 0 0 0 0 0.905046 0 0 0 0 0.905046 0 0 0 0.25 0"/>
<feBlend mode="normal" in2="BackgroundImageFix" result="effect1_dropShadow_1784_2706"/>
<feBlend mode="normal" in="SourceGraphic" in2="effect1_dropShadow_1784_2706" result="shape"/>
</filter>
<filter id="filter1_d_1784_2706" x="100" y="144" width="198" height="80" filterUnits="userSpaceOnUse" color-interpolation-filters="sRGB">
<feFlood flood-opacity="0" result="BackgroundImageFix"/>
<feColorMatrix in="SourceAlpha" type="matrix" values="0 0 0 0 0 0 0 0 0 0 0 0 0 0 0 0 0 0 127 0" result="hardAlpha"/>
<feOffset dy="4"/>
<feGaussianBlur stdDeviation="12"/>
<feComposite in2="hardAlpha" operator="out"/>
<feColorMatrix type="matrix" values="0 0 0 0 0.929525 0 0 0 0 0.905046 0 0 0 0 0.905046 0 0 0 0.25 0"/>
<feBlend mode="normal" in2="BackgroundImageFix" result="effect1_dropShadow_1784_2706"/>
<feBlend mode="normal" in="SourceGraphic" in2="effect1_dropShadow_1784_2706" result="shape"/>
</filter>
<filter id="filter2_d_1784_2706" x="25" y="192" width="132" height="80" filterUnits="userSpaceOnUse" color-interpolation-filters="sRGB">
<feFlood flood-opacity="0" result="BackgroundImageFix"/>
<feColorMatrix in="SourceAlpha" type="matrix" values="0 0 0 0 0 0 0 0 0 0 0 0 0 0 0 0 0 0 127 0" result="hardAlpha"/>
<feOffset dy="4"/>
<feGaussianBlur stdDeviation="12"/>
<feComposite in2="hardAlpha" operator="out"/>
<feColorMatrix type="matrix" values="0 0 0 0 0.929525 0 0 0 0 0.905046 0 0 0 0 0.905046 0 0 0 0.25 0"/>
<feBlend mode="normal" in2="BackgroundImageFix" result="effect1_dropShadow_1784_2706"/>
<feBlend mode="normal" in="SourceGraphic" in2="effect1_dropShadow_1784_2706" result="shape"/>
</filter>
<filter id="filter3_d_1784_2706" x="125" y="192" width="129" height="80" filterUnits="userSpaceOnUse" color-interpolation-filters="sRGB">
<feFlood flood-opacity="0" result="BackgroundImageFix"/>
<feColorMatrix in="SourceAlpha" type="matrix" values="0 0 0 0 0 0 0 0 0 0 0 0 0 0 0 0 0 0 127 0" result="hardAlpha"/>
<feOffset dy="4"/>
<feGaussianBlur stdDeviation="12"/>
<feComposite in2="hardAlpha" operator="out"/>
<feColorMatrix type="matrix" values="0 0 0 0 0.929525 0 0 0 0 0.905046 0 0 0 0 0.905046 0 0 0 0.25 0"/>
<feBlend mode="normal" in2="BackgroundImageFix" result="effect1_dropShadow_1784_2706"/>
<feBlend mode="normal" in="SourceGraphic" in2="effect1_dropShadow_1784_2706" result="shape"/>
</filter>
<filter id="filter4_d_1784_2706" x="0" y="96" width="315" height="80" filterUnits="userSpaceOnUse" color-interpolation-filters="sRGB">
<feFlood flood-opacity="0" result="BackgroundImageFix"/>
<feColorMatrix in="SourceAlpha" type="matrix" values="0 0 0 0 0 0 0 0 0 0 0 0 0 0 0 0 0 0 127 0" result="hardAlpha"/>
<feOffset dy="4"/>
<feGaussianBlur stdDeviation="12"/>
<feComposite in2="hardAlpha" operator="out"/>
<feColorMatrix type="matrix" values="0 0 0 0 0.929525 0 0 0 0 0.905046 0 0 0 0 0.905046 0 0 0 0.25 0"/>
<feBlend mode="normal" in2="BackgroundImageFix" result="effect1_dropShadow_1784_2706"/>
<feBlend mode="normal" in="SourceGraphic" in2="effect1_dropShadow_1784_2706" result="shape"/>
</filter>
<filter id="filter5_d_1784_2706" x="0" y="0" width="195" height="80" filterUnits="userSpaceOnUse" color-interpolation-filters="sRGB">
<feFlood flood-opacity="0" result="BackgroundImageFix"/>
<feColorMatrix in="SourceAlpha" type="matrix" values="0 0 0 0 0 0 0 0 0 0 0 0 0 0 0 0 0 0 127 0" result="hardAlpha"/>
<feOffset dy="4"/>
<feGaussianBlur stdDeviation="12"/>
<feComposite in2="hardAlpha" operator="out"/>
<feColorMatrix type="matrix" values="0 0 0 0 0.929525 0 0 0 0 0.905046 0 0 0 0 0.905046 0 0 0 0.25 0"/>
<feBlend mode="normal" in2="BackgroundImageFix" result="effect1_dropShadow_1784_2706"/>
<feBlend mode="normal" in="SourceGraphic" in2="effect1_dropShadow_1784_2706" result="shape"/>
</filter>
</defs>
</svg>
