<svg width="222" height="126" viewBox="0 0 222 126" fill="none" xmlns="http://www.w3.org/2000/svg">
<path fill-rule="evenodd" clip-rule="evenodd" d="M189.963 29.5521C190.763 28.4274 192.324 28.1649 193.449 28.9652C194.574 29.7658 194.837 31.3267 194.037 32.4515C178.864 53.7697 164.996 70.0377 151.685 81.0238C138.36 92.0222 125.417 97.8695 112.15 98.0023C98.8822 98.135 85.7433 92.5473 72.0351 81.6127C71.55 81.2257 71.0884 80.8588 70.6458 80.5069L70.6428 80.5045C66.6097 77.2984 64.155 75.347 59.9277 70.9925C59.1114 70.1517 59.0792 68.8266 59.8417 67.9369C60.7275 66.9035 62.3129 66.8719 63.2734 67.8363C66.4884 71.0644 68.7769 72.8049 71.5361 74.9034C72.637 75.7407 73.8128 76.635 75.1523 77.7035C88.3188 88.2061 100.368 93.1195 112.1 93.0023C123.833 92.885 135.703 87.7312 148.502 77.1673C161.316 66.5909 174.886 50.7337 189.963 29.5521ZM28.5263 28.9828C29.5719 28.2197 31.0118 28.3866 31.8583 29.3295L32.0195 29.5287L33.498 31.5443C37.1598 36.512 46.0381 48.019 50.6152 53.7748C51.4 54.7617 51.3229 56.1789 50.4316 57.0707C49.3988 58.1034 47.702 58.0179 46.7909 56.8763C41.9932 50.8644 33.1798 39.5396 29.4696 34.5062L27.9804 32.4759L27.8407 32.2621C27.2007 31.1683 27.4806 29.746 28.5263 28.9828Z" fill="#FFD5D8"/>
<path d="M109.35 28.0023C122.618 27.8696 135.757 33.4573 149.465 44.392C153.3 47.4512 157.194 50.9391 161.162 54.8558C162.095 55.7771 162.137 57.2662 161.271 58.2513C160.314 59.34 158.635 59.3856 157.602 58.3675C153.767 54.5843 150.02 51.2308 146.348 48.3011C133.181 37.7985 121.132 32.8851 109.4 33.0023C97.6671 33.1197 85.7971 38.2734 72.998 48.8373C60.1838 59.4137 46.6132 75.271 31.537 96.4525C30.7364 97.5769 29.1754 97.8396 28.0507 97.0394C26.9261 96.2389 26.6628 94.6779 27.4628 93.5531C37.2325 79.8271 46.4608 68.1941 55.3476 58.7171C60.2629 53.4754 65.0741 48.8933 69.8144 44.9808C83.14 33.9824 96.083 28.1351 109.35 28.0023Z" fill="#156082"/>
<path d="M170.381 69.1214C171.254 68.2487 172.684 68.3035 173.491 69.2377C174.425 70.3193 175.417 71.4591 176.446 72.6423C181.51 78.4644 187.488 85.3362 192.03 91.4984L193.519 93.5287L193.659 93.7425C194.299 94.8363 194.019 96.2587 192.974 97.0218C191.928 97.7845 190.488 97.6178 189.642 96.6752L189.48 96.4759L188.002 94.4603C182.591 87.1195 175.576 78.3143 170.26 71.9916C169.55 71.1474 169.601 69.9014 170.381 69.1214Z" fill="#156082"/>
</svg>
