<svg width="306" height="294" viewBox="0 0 306 294" fill="none" xmlns="http://www.w3.org/2000/svg">
<path opacity="0.8" d="M177.8 174.771C177.8 208.178 151.008 235.259 117.957 235.259C84.9071 235.259 58.1145 208.178 58.1145 174.771C58.1145 141.365 84.9071 114.283 117.957 114.283C151.008 114.283 177.8 141.365 177.8 174.771Z" fill="#FFB5BD"/>
<path opacity="0.8" d="M213.964 126.381C213.964 152.963 192.414 174.512 165.832 174.512C139.249 174.512 117.7 152.963 117.7 126.381C117.7 99.7983 139.249 78.249 165.832 78.249C192.414 78.249 213.964 99.7983 213.964 126.381Z" fill="#FFDEE0"/>
<path d="M241.417 90.1108C241.417 112.041 223.639 129.819 201.708 129.819C179.778 129.819 162 112.041 162 90.1108C162 68.1803 179.778 50.4021 201.708 50.4021C223.639 50.4021 241.417 68.1803 241.417 90.1108ZM165.724 90.1108C165.724 109.985 181.835 126.095 201.708 126.095C221.582 126.095 237.693 109.985 237.693 90.1108C237.693 70.237 221.582 54.1261 201.708 54.1261C181.835 54.1261 165.724 70.237 165.724 90.1108Z" fill="#6E96AD"/>
<path opacity="0.8" d="M237.836 90.0875C237.836 110.024 221.674 126.186 201.737 126.186C181.801 126.186 165.639 110.024 165.639 90.0875C165.639 70.1507 181.801 53.9888 201.737 53.9888C221.674 53.9888 237.836 70.1507 237.836 90.0875Z" fill="#CBE9F8"/>
<path d="M220.756 123.03L229.233 116.312L254.203 148.504C256.034 150.864 255.62 154.281 253.279 156.136V156.136C250.939 157.991 247.557 157.582 245.726 155.222L220.756 123.03Z" fill="#6E96AD"/>
</svg>
