<svg width="258" height="258" viewBox="0 0 258 258" fill="none" xmlns="http://www.w3.org/2000/svg">
<path d="M177 183V189H81V183H177ZM183 177V81C183 77.7898 180.479 75.1684 177.309 75.0078L177 75H81C77.7898 75 75.1684 77.5211 75.0078 80.6914L75 81V177C75 180.314 77.6863 183 81 183V189L80.6904 188.996C74.309 188.834 69.1655 183.691 69.0039 177.31L69 177V81C69 74.4761 74.2061 69.1681 80.6904 69.0039L81 69H177L177.31 69.0039C183.794 69.1681 189 74.4761 189 81V177L188.996 177.31C188.834 183.691 183.691 188.834 177.31 188.996L177 189V183C180.314 183 183 180.314 183 177Z" fill="#2A4E5E"/>
<path d="M105 49C105 55.6274 99.6274 61 93 61C86.3726 61 81 55.6274 81 49C81 42.3726 86.3726 37 93 37C99.6274 37 105 42.3726 105 49Z" fill="#FED6D7"/>
<path d="M105 209C105 215.627 99.6274 221 93 221C86.3726 221 81 215.627 81 209C81 202.373 86.3726 197 93 197C99.6274 197 105 202.373 105 209Z" fill="#FED6D7"/>
<path d="M221 93C221 99.6274 215.627 105 209 105C202.373 105 197 99.6274 197 93C197 86.3726 202.373 81 209 81C215.627 81 221 86.3726 221 93Z" fill="#F1A2B4"/>
<path d="M61 93C61 99.6274 55.6274 105 49 105C42.3726 105 37 99.6274 37 93C37 86.3726 42.3726 81 49 81C55.6274 81 61 86.3726 61 93Z" fill="#F1A2B4"/>
<path d="M141 49C141 55.6274 135.627 61 129 61C122.373 61 117 55.6274 117 49C117 42.3726 122.373 37 129 37C135.627 37 141 42.3726 141 49Z" fill="#FED6D7"/>
<path d="M141 209C141 215.627 135.627 221 129 221C122.373 221 117 215.627 117 209C117 202.373 122.373 197 129 197C135.627 197 141 202.373 141 209Z" fill="#FED6D7"/>
<path d="M221 129C221 135.627 215.627 141 209 141C202.373 141 197 135.627 197 129C197 122.373 202.373 117 209 117C215.627 117 221 122.373 221 129Z" fill="#F1A2B4"/>
<path d="M61 129C61 135.627 55.6274 141 49 141C42.3726 141 37 135.627 37 129C37 122.373 42.3726 117 49 117C55.6274 117 61 122.373 61 129Z" fill="#F1A2B4"/>
<path d="M177 49C177 55.6274 171.627 61 165 61C158.373 61 153 55.6274 153 49C153 42.3726 158.373 37 165 37C171.627 37 177 42.3726 177 49Z" fill="#FED6D7"/>
<path d="M177 209C177 215.627 171.627 221 165 221C158.373 221 153 215.627 153 209C153 202.373 158.373 197 165 197C171.627 197 177 202.373 177 209Z" fill="#FED6D7"/>
<path d="M221 165C221 171.627 215.627 177 209 177C202.373 177 197 171.627 197 165C197 158.373 202.373 153 209 153C215.627 153 221 158.373 221 165Z" fill="#F1A2B4"/>
<path d="M61 165C61 171.627 55.6274 177 49 177C42.3726 177 37 171.627 37 165C37 158.373 42.3726 153 49 153C55.6274 153 61 158.373 61 165Z" fill="#F1A2B4"/>
</svg>
