<svg width="351" height="364" viewBox="0 0 351 364" fill="none" xmlns="http://www.w3.org/2000/svg">
<path d="M199 119.794C199 112.728 193.272 107 186.206 107C179.14 107 173.412 112.728 173.412 119.794V190.162C173.412 197.228 179.14 202.956 186.206 202.956C193.272 202.956 199 197.228 199 190.162V119.794Z" fill="#2F84B1"/>
<path d="M168.294 140.265C168.294 133.199 162.566 127.471 155.5 127.471C148.434 127.471 142.706 133.199 142.706 140.265V190.162C142.706 197.228 148.434 202.956 155.5 202.956C162.566 202.956 168.294 197.228 168.294 190.162V140.265Z" fill="#FFC6CA"/>
<path d="M137.588 162.015C137.588 154.949 131.86 149.221 124.794 149.221C117.728 149.221 112 154.949 112 162.015V190.162C112 197.228 117.728 202.956 124.794 202.956C131.86 202.956 137.588 197.228 137.588 190.162V162.015Z" fill="#FF939E"/>
<path d="M238.284 159.48C238.284 203.928 202.252 239.961 157.804 239.961C113.355 239.961 77.3226 203.928 77.3225 159.48C77.3225 115.031 113.355 78.9988 157.803 78.9989C202.252 78.999 238.284 115.032 238.284 159.48ZM84.8702 159.48C84.8703 199.76 117.524 232.413 157.804 232.413C198.084 232.413 230.737 199.76 230.737 159.48C230.737 119.2 198.083 86.5466 157.803 86.5466C117.523 86.5465 84.8701 119.2 84.8702 159.48Z" fill="#6E96AD"/>
<path opacity="0.3" d="M231.027 159.433C231.027 199.841 198.27 232.597 157.863 232.597C117.455 232.597 84.6981 199.84 84.698 159.433C84.6979 119.025 117.455 86.2684 157.862 86.2684C198.27 86.2685 231.027 119.025 231.027 159.433Z" fill="#CBE9F8"/>
<path d="M196.409 226.2L213.59 212.585L260.782 276.851C264.508 281.925 263.469 289.051 258.449 292.849V292.849C253.275 296.765 245.889 295.634 242.123 290.35L196.409 226.2Z" fill="#6E96AD"/>
</svg>
