<svg width="48" height="48" viewBox="0 0 48 48" fill="none" xmlns="http://www.w3.org/2000/svg">
<g id="translate-01">
<path id="Icon" d="M25.8261 34H40.1739M25.8261 34L22 42M25.8261 34L31.5566 22.018C32.0183 21.0525 32.2492 20.5698 32.5651 20.4172C32.8399 20.2846 33.1601 20.2846 33.4349 20.4172C33.7508 20.5698 33.9817 21.0525 34.4434 22.018L40.1739 34M40.1739 34L44 42M4 10H16M16 10H23M16 10V6M23 10H28M23 10C22.0077 15.9146 19.7052 21.2724 16.3311 25.7689M20 28C18.7749 27.4496 17.5253 26.6842 16.3311 25.7689M16.3311 25.7689C13.626 23.6955 11.2055 20.8533 10 18M16.3311 25.7689C13.1217 30.0459 8.94287 33.5436 4 36" stroke="#ED707E" stroke-width="2" stroke-linecap="round" stroke-linejoin="round"/>
</g>
</svg>
